<svg width="60" height="19" fill="#222" xmlns="http://www.w3.org/2000/svg"><path d="M13.752 14.025c0 1.094-.89 2.052-2.053 2.052a2.058 2.058 0 01-2.052-2.052c0-1.095.889-2.053 2.052-2.053 1.026.069 2.053.959 2.053 2.053zm2.326 0a4.365 4.365 0 01-4.379 4.378 4.364 4.364 0 01-4.378-4.378 4.365 4.365 0 014.378-4.379c2.395.069 4.379 1.984 4.379 4.379zm-1.642 0a2.745 2.745 0 00-2.737-2.737 2.745 2.745 0 00-2.737 2.737 2.745 2.745 0 002.737 2.737c1.505.136 2.737-1.164 2.737-2.737zm28.53-9.237V3.01l-1.506-.82-1.3 2.668c-.068 0 2.805-.069 2.805-.069zm10.809 9.237a4.364 4.364 0 01-4.38 4.378 4.364 4.364 0 01-4.378-4.378 4.364 4.364 0 014.379-4.379c2.464.069 4.379 1.984 4.379 4.379zm-1.574 0a2.745 2.745 0 00-2.737-2.737 2.744 2.744 0 00-2.736 2.737 2.745 2.745 0 002.736 2.737c1.505.136 2.737-1.164 2.737-2.737zm-2.737-2.053c-1.094 0-2.052.89-2.052 2.053 0 1.094.89 2.052 2.052 2.052a2.059 2.059 0 002.053-2.052c-.068-1.095-.958-2.053-2.053-2.053zM60 9.92l-.547 4.447-4.858 2.052c.137-.685.274-1.436.274-1.983 0-2.943-2.395-5.542-5.336-5.542-2.942 0-5.337 2.326-5.337 5.268 0 .547.069 1.436.274 1.983l-.274.274H16.83a10.17 10.17 0 00.206-1.916c0-3.216-2.395-5.678-5.338-5.678-2.94 0-5.335 2.873-5.335 5.815 0 .548.068 1.094.205 1.78h-.274l-2.804-.686-3.284-1.572L0 11.972l.547-.685-.136-1.845 1.78-1.712L3.9 7.046c4.174-1.574 15.94-2.6 15.94-2.6S27.846.82 30.445.138c.068-.07.958-.137.958-.137v1.231c-2.736.752-7.389 2.942-10.263 4.584-7.936.137-13.272 1.437-13.272 1.437s4.241.068 8.757-.41C26.75 6.02 44.675 5.746 49.327 5.13c.821-.137 2.122-.343 2.122-.343l8.072 1.027-.274 1.3.343 2.053.41.751v.001zM6.02 7.8s-2.326.548-3.01.89c-1.162.684-1.779 2.53-1.779 2.53l2.669-.957L6.02 7.8z"/></svg>