<svg width="60" height="19" fill="none" xmlns="http://www.w3.org/2000/svg"><path d="M59.045 9.319l-.682-2.95.342-1.113-5.388-.852C44.181.145 35.25-.903 27.41.734c0 0-2.25.46-8.523 4.587 0 0-11.659.655-15.409 1.966l-1.568.59-1.57 2.228.137 1.573-.478.59s.341 2.883.273 2.883l4.364.787h.136c-.136-.46-.273-.983-.273-1.508 0-2.687 2.25-4.849 5.046-4.849 2.795 0 5.045 2.162 5.045 4.85 0 .524-.068 1.048-.273 1.507h.341l28.977-.066.137-.066a5.256 5.256 0 01-.205-1.441 4.672 4.672 0 01.381-1.858 4.827 4.827 0 011.094-1.575 5.052 5.052 0 011.638-1.05 5.212 5.212 0 011.933-.366 5.21 5.21 0 011.932.366c.613.243 1.17.6 1.639 1.05.469.451.84.986 1.093 1.575.253.59.383 1.22.381 1.858 0 .328 0 .59-.068.851h.205c.954-.196 5.726-.917 5.726-.917L60 10.105s-.41-.327-.955-.786zM3.75 10.17l-2.318.852S1.909 9.45 3 8.86c.614-.328 2.66-.786 2.66-.786L3.75 10.17zm46.09-4.062c-1.227.131-3 .263-5.113.328-11.796.328-26.523 1.114-26.66 1.114-3 .131-7.158.393-7.158.393s1.977-.786 8.659-1.114c3.34-2.686 7.568-4.652 7.568-4.652 2.113-.59 5.182-.852 5.318-.852 1.5-.13 3.069-.065 4.704.066l-.477 4.718c.954-.066 1.841-.066 2.659-.066l.478-4.324c3.477.524 6.818 1.573 9 2.818.204.13-2.455.983-3.546 1.31 3.75-.196 6.478.066 6.478.066s-.683.064-1.91.195z" fill="#222"/><path d="M9.67 12.537c-1.011 0-1.888.877-1.888 1.887 0 .27.068.54.203.81.337.606.944 1.078 1.685 1.078.741 0 1.416-.404 1.686-1.079a1.8 1.8 0 00.201-.809c0-1.078-.809-1.887-1.887-1.887zm38.697-2.225a4.056 4.056 0 00-4.045 4.045 4.056 4.056 0 004.045 4.045 4.057 4.057 0 004.045-4.045 4.056 4.056 0 00-4.045-4.044zm0 6.607a2.56 2.56 0 110-5.123 2.562 2.562 0 110 5.123z" fill="#222"/><path d="M9.67 10.313a4.057 4.057 0 00-4.045 4.044 4.057 4.057 0 004.045 4.045 4.056 4.056 0 004.045-4.045 4.057 4.057 0 00-4.045-4.044zm0 6.606a2.56 2.56 0 110-5.123 2.562 2.562 0 11.001 5.123zm38.697-.675a1.887 1.887 0 100-3.774 1.887 1.887 0 000 3.774z" fill="#222"/></svg>