<svg width="60" height="22" fill="none" xmlns="http://www.w3.org/2000/svg"><path d="M9.517 14.79a2.099 2.099 0 100 4.198 2.099 2.099 0 000-4.197z" fill="#222"/><path d="M9.517 12.625a4.265 4.265 0 100 8.529 4.265 4.265 0 000-8.53zm0 7.118a2.855 2.855 0 110-5.71 2.855 2.855 0 010 5.711zm41.195-4.952a2.098 2.098 0 10.001 4.196 2.098 2.098 0 00-.001-4.196z" fill="#222"/><path d="M50.712 12.625a4.265 4.265 0 100 8.53 4.265 4.265 0 000-8.53zm0 7.118a2.855 2.855 0 11.002-5.71 2.855 2.855 0 01-.002 5.711z" fill="#222"/><path d="M59.723 12.463a7.257 7.257 0 01-1.362-4.711s-1.618-4.514-4.74-5.536l.849-.321a.06.06 0 00.023-.097.06.06 0 00-.033-.019C52.966 1.498 43.772-.155 35.184.013A1.392 1.392 0 0034.987 0c-2.437-.017-6.645.456-8.568.69a.769.769 0 01-.3.06c-.473.171-.989.22-1.414.493a.8.8 0 01-.195.091l-7.892 4.578V5.9l-.868.127c-2.061.076-5.748.627-8.803 1.136l-1.26.245-.041.01-.125.044-3.577 1.235-1.538 2.698.123 2.059-.509.816-.02.023.172 3.71 2.613.51 2.14.435c-1.304-2.686.596-5.138.596-5.138a5.06 5.06 0 018.489 5.446l1.498.029 29.18-.265.05-.002v.002l.09-.004 1.237-.05a5.063 5.063 0 119.376-.383l.947-.038c.652.02 2.497-.132 3.192-2.335.853-2.697.143-3.747.143-3.747zM4 11.797l-2.167.985s-.169-2.262 3.721-3.2L4 11.797zM9.517 9.03s4.11-1.48 8.368-1.396l5.697-4.31s1.777-1.649 4.99-1.649h4.878l2.71.125-.373 4.878h2.439V1.895l3.504.161 2.155.216c1.833.17 6.56.942 9.263 4.432L9.518 9.03z" fill="#222"/></svg>