<svg width="60" height="24" fill="#222" xmlns="http://www.w3.org/2000/svg"><path d="M50.608 16.72a2.085 2.085 0 011.48.625 2.175 2.175 0 010 3.022 2.089 2.089 0 01-.68.463 2.054 2.054 0 01-2.28-.463 2.16 2.16 0 01-.613-1.511c0-.567.22-1.11.613-1.511a2.07 2.07 0 011.48-.626zm4.28 2.136c0 2.376-1.878 4.37-4.28 4.37-2.327 0-4.279-1.917-4.279-4.37 0-2.377 1.877-4.37 4.28-4.37 2.326 0 4.279 1.917 4.279 4.37zm-1.428 0a2.97 2.97 0 00-.216-1.115 2.917 2.917 0 00-.619-.946 2.848 2.848 0 00-.925-.631 2.799 2.799 0 00-2.184 0c-.346.146-.661.36-.926.631-.265.27-.475.592-.618.946a2.966 2.966 0 00.618 3.175c.265.27.58.485.926.632a2.8 2.8 0 002.184 0 2.85 2.85 0 00.925-.632c.265-.27.475-.591.619-.945.143-.354.217-.733.216-1.115zm-46.045 0a2.176 2.176 0 00.612 1.51c.195.2.425.357.68.464a2.054 2.054 0 002.28-.463 2.175 2.175 0 000-3.022 2.07 2.07 0 00-1.48-.626 2.07 2.07 0 00-1.48.626 2.16 2.16 0 00-.612 1.51zm6.371 0c0 2.376-1.877 4.37-4.28 4.37-2.326 0-4.278-1.917-4.278-4.37 0-2.377 1.877-4.37 4.279-4.37 2.327 0 4.28 1.917 4.28 4.37zm-1.426 0c0-.383-.074-.762-.217-1.115a2.917 2.917 0 00-.618-.946 2.848 2.848 0 00-.926-.631 2.799 2.799 0 00-2.184 0 2.85 2.85 0 00-.926.631c-.265.27-.475.592-.618.946a2.966 2.966 0 00.618 3.175c.265.27.58.485.926.632a2.8 2.8 0 002.184 0 2.85 2.85 0 00.926-.632c.264-.27.475-.591.618-.945.143-.354.217-.733.217-1.115zM60 17.562l-.322 1.565-3.843.754c.152-.8.125-1.625-.079-2.413a5.453 5.453 0 00-1.1-2.139 3.129 3.129 0 00-.107-.127l-.001-.001a5.253 5.253 0 00-1.772-1.343 5.151 5.151 0 00-4.315-.01 5.251 5.251 0 00-1.778 1.335 5.479 5.479 0 00-1.399 3.672c0 .507.07.998.197 1.464-1.86.015-26.196.476-31.004.48a5.544 5.544 0 00-.586-5.026 5.36 5.36 0 00-1.91-1.73 5.235 5.235 0 00-4.957.002 5.362 5.362 0 00-1.907 1.733 5.544 5.544 0 00-.58 5.027l-4.202-.91L0 16.131l.758-.904-.21-1.506s.737-2.497.943-2.76c1.838-1.157 10.028-3.436 10.028-3.436 6.54-4.86 6.548-4.623 10.433-6.497C25.365-.305 56.04-.305 56.924.814c2.592 3.68 2.444 15.19 2.444 15.19L60 17.561zM5.751 10.688l-3.434 1.388-.797 2.393 3.789-2.41.442-1.37zm50.457-3.23s-.316-3.047-2.786-5.112c-.843-.51-5.004-.867-9.078-.956l.616 5.59-1.202.056-.648-5.558c-5.822-.055-12.422.11-13.11.11l.17 6.05c-.832.065-1.95.104-2.783.169l.17-6.176s-3.178.1-5.226.753c-2.023.947-6.32 3.179-9.754 6.32-5.19 1.345-5.705 1.518-5.705 1.518C16.875 8.924 47.338 7.43 56.208 7.458z"/></svg>