<svg width="60" height="20" fill="#222" xmlns="http://www.w3.org/2000/svg"><path d="M9.547 13.106c-1.023 0-1.91.886-1.91 1.909 0 .273.069.546.205.818.342.613.955 1.09 1.705 1.09.749 0 1.432-.407 1.705-1.09.135-.272.204-.545.204-.818 0-1.09-.819-1.91-1.91-1.91zm39.136-2.25a4.102 4.102 0 00-4.09 4.09 4.103 4.103 0 004.09 4.092 4.102 4.102 0 004.091-4.092 4.103 4.103 0 00-4.091-4.09zm0 6.682a2.59 2.59 0 110-5.182 2.59 2.59 0 110 5.182z"/><path d="M9.547 10.856a4.103 4.103 0 00-4.091 4.09 4.103 4.103 0 004.09 4.092 4.103 4.103 0 004.091-4.092 4.103 4.103 0 00-4.09-4.09zm0 6.682a2.59 2.59 0 01-1.833-4.424 2.59 2.59 0 013.665 0 2.59 2.59 0 01-1.831 4.424h-.001z"/><path d="M59.047 9.696l-.683-3.068.342-1.158-5.386-.887C44.182.151 35.25-.94 27.41.765c0 0-2.25.477-8.523 4.773 0 0-11.66.681-15.41 2.045l-1.567.613-1.57 2.319.137 1.636-.478.614s.341 3 .273 3l4.363.818h.137c-.137-.477-.272-1.022-.272-1.568a5.034 5.034 0 015.044-5.046 5.034 5.034 0 015.046 5.046c0 .546-.068 1.09-.272 1.568h.341l28.976-.068.137-.069a5.683 5.683 0 01-.205-1.5 5.035 5.035 0 015.046-5.044 5.035 5.035 0 015.046 5.044c0 .342 0 .615-.069.887h.205c.954-.204 5.727-.954 5.727-.954L60 10.515s-.408-.342-.953-.819zm-55.296.887l-2.317.886s.477-1.636 1.568-2.25c.613-.34 2.658-.818 2.658-.818l-1.91 2.182zm46.092-4.227c-1.7.178-3.406.292-5.115.341-11.795.34-26.523 1.159-26.658 1.159-3 .137-7.159.409-7.159.409s1.976-.819 8.659-1.159c3.34-2.796 7.568-4.841 7.568-4.841 2.113-.614 5.182-.887 5.318-.887 1.5-.136 3.068-.068 4.704.069l-.477 4.909c.955-.068 1.841-.068 2.66-.068l.476-4.5c3.477.545 6.819 1.636 9 2.932.205.136-2.454 1.023-3.546 1.363 3.751-.205 6.478.068 6.478.068s-.682.069-1.908.205z"/><path d="M48.683 16.855a1.909 1.909 0 100-3.817 1.909 1.909 0 000 3.817z"/></svg>