<svg width="60" height="23" fill="#222" xmlns="http://www.w3.org/2000/svg"><path d="M10.841 13.074a4.89 4.89 0 00-4.91 4.909 4.89 4.89 0 004.91 4.91 4.888 4.888 0 004.91-4.91 4.888 4.888 0 00-4.91-4.91zm0 8.045a3.201 3.201 0 01-2.96-4.43 3.202 3.202 0 014.187-1.735 3.2 3.2 0 011.978 2.96c0 1.842-1.433 3.205-3.205 3.205z"/><path d="M10.841 15.46a2.446 2.446 0 00-2.455 2.455 2.443 2.443 0 002.455 2.455 2.444 2.444 0 002.455-2.455c.068-1.296-1.091-2.455-2.455-2.455z"/><path d="M59.114 11.505l-.069-2.795-2.863-6.478.546-.613L56.59.8C51.409.12 26.727-.563 25.09.732c-3.273 2.591-6.41 5.66-6.41 5.66L3.137 8.437l-2.045 1.637L0 12.391l.614 1.09-.546.41.75 3.818 4.295.613c-.068-.41-.136-.887-.136-1.296 0-3.204 2.658-5.864 5.864-5.864 3.205 0 5.864 2.66 5.864 5.864 0 .614-.136 1.296-.273 1.841h27c0-.068 0-.204-.068-.272a5.334 5.334 0 01-.204-1.5 5.935 5.935 0 015.932-5.932 5.935 5.935 0 015.931 5.931v.682l4.636-1.363L60 12.8l-.886-1.296v.001zm-55.705.887l-1.909.545 1.091-2.318 1.977-.75L6 10.757l-2.59 1.636zm5.046-2.658s2.181-.683 10.5-1.16c3.613-3.41 5.999-5.727 7.159-6.547 2.181-.68 8.795-.408 8.795-.408l-.478 6.273c.887-.068 1.841-.068 2.727-.137l.41-6.204h9.273l1.5 5.864h1.295l-1.5-5.795 4.978.273 2.181 4.09-.34 1.57s-.956.134-2.318.272c-1.927.176-3.86.29-5.795.34 0 0-21.41.681-26.796 1.09-6.069.478-11.591.479-11.591.479z"/><path d="M49.092 13.074a4.89 4.89 0 00-4.91 4.909 4.89 4.89 0 004.91 4.91 4.888 4.888 0 004.91-4.91 4.888 4.888 0 00-4.91-4.91zm0 8.045a3.201 3.201 0 01-2.962-4.43 3.202 3.202 0 014.188-1.735 3.202 3.202 0 011.978 2.96c0 1.842-1.433 3.205-3.204 3.205z"/><path d="M49.092 15.46a2.446 2.446 0 00-2.455 2.455 2.444 2.444 0 002.455 2.455 2.444 2.444 0 002.454-2.455c.069-1.296-1.091-2.455-2.454-2.455z"/></svg>