<svg width="48" height="22" fill="none" xmlns="http://www.w3.org/2000/svg"><path d="M17.244.688h6.098c.08-.016.11.032.095.112v2.96c0 .144 0 .144-.158.144H12.47c-.678 0-1.34.032-2.002.096-.851.096-1.686.24-2.49.496a7.822 7.822 0 00-1.75.784c-.503.304-.913.704-1.291 1.152-.3.352-.568.704-.804 1.104-.284.48-.52.992-.694 1.536a6.617 6.617 0 00-.283 2.288c.031.56.126 1.12.3 1.664.377 1.216 1.07 2.24 1.97 3.12.393.384.85.672 1.339.912.803.4 1.654.64 2.537.8 1.008.176 2.017.256 3.041.272 3.64.016 7.281 0 10.921.016.174 0 .158 0 .174.176v2.864c0 .16 0 .16-.158.16H11.76c-.803 0-1.607-.08-2.41-.208a15.493 15.493 0 01-1.94-.432 11.844 11.844 0 01-2.048-.8c-.693-.352-1.355-.752-1.923-1.28a12.062 12.062 0 01-1.48-1.632 9.306 9.306 0 01-1.214-2.064 9.555 9.555 0 01-.583-1.984 11.315 11.315 0 01-.158-2.192A9.8 9.8 0 01.46 7.888c.173-.56.425-1.104.71-1.616.377-.688.866-1.312 1.37-1.904.583-.672 1.23-1.264 2.002-1.728.63-.384 1.308-.704 2.001-.96.615-.224 1.26-.416 1.891-.56a16.6 16.6 0 011.75-.288C11.758.656 13.35.736 14.926.72c.788-.048 1.544-.032 2.317-.032zM37.21 22c-.725 0-1.434-.064-2.143-.208a10.376 10.376 0 01-3.688-1.52 10.833 10.833 0 01-1.97-1.648 12 12 0 01-1.244-1.568 10.297 10.297 0 01-1.104-2.208 13.51 13.51 0 01-.41-1.36 12.63 12.63 0 01-.267-2.016 14.4 14.4 0 01.047-1.648 10.954 10.954 0 011.26-4.096 11.2 11.2 0 01.962-1.472 10.8 10.8 0 011.214-1.344 11.008 11.008 0 012.206-1.6c.488-.256.977-.48 1.497-.672a11.638 11.638 0 011.623-.448A11.262 11.262 0 0137.383 0c.52 0 1.025.064 1.53.144.74.128 1.465.32 2.158.592.757.288 1.45.672 2.128 1.12.662.448 1.26.96 1.812 1.552a11.191 11.191 0 011.875 2.736c.395.832.694 1.68.883 2.592.11.576.19 1.152.22 1.728.016.432.016.88-.015 1.312a7.982 7.982 0 01-.158 1.232c-.11.608-.268 1.216-.488 1.808l-.142.384c-.032.096-.063.096-.126.032-.426-.448-.867-.88-1.292-1.328l-1.056-1.072c-.048-.048-.063-.08-.048-.144.19-.864.221-1.728.127-2.592a7.73 7.73 0 00-1.923-4.32 8.046 8.046 0 00-2.206-1.728A7.801 7.801 0 0036.8 3.2a7.75 7.75 0 00-2.254.464 7.287 7.287 0 00-1.923 1.056 7.889 7.889 0 00-1.733 1.824 7.665 7.665 0 00-.914 1.792 7.52 7.52 0 00-.426 2.048 7.322 7.322 0 00.063 1.76 8.03 8.03 0 00.757 2.4 7.607 7.607 0 002.049 2.544c.866.72 1.86 1.2 2.947 1.472a7.62 7.62 0 002.694.176c.252-.032.505-.064.757-.128.079-.016.142 0 .189.064.772.8 1.56 1.584 2.332 2.384.08.08.048.096-.031.128a11.11 11.11 0 01-1.876.592c-.74.144-1.481.224-2.222.224z" fill="#009FE2"/><path d="M13.981 12.608h-7.8c-.064 0-.08-.016-.08-.08V9.552c0-.16 0-.16.158-.16h15.397c.268 0 .22-.016.22.224v2.848c0 .144 0 .144-.141.144H13.98zm33.221 6.352c-.016.016-.032.048-.048.064-.693.704-1.386 1.392-2.064 2.096-.079.08-.126.064-.205-.016-.52-.528-1.024-1.056-1.544-1.568-.883-.896-1.765-1.808-2.648-2.704l-1.812-1.84c-.914-.928-1.813-1.856-2.727-2.784-.063-.064-.047-.096 0-.144l1.608-1.632.489-.496c.047-.064.094-.048.141 0l1.75 1.776.945.96 1.576 1.6c.835.864 1.686 1.712 2.522 2.576l1.985 2.016c0 .032.032.048.032.096z" fill="#009FE2"/></svg>