<svg width="26" height="20" fill="none" xmlns="http://www.w3.org/2000/svg"><path d="M13 0C9.38 0 6.18.376 4.226.661 2.611.898 1.308 2.115 1.011 3.726.759 5.096.5 7.103.5 9.616c0 2.512.26 4.518.51 5.889a3.808 3.808 0 003.216 3.065c1.96.285 5.172.66 8.774.66 3.602 0 6.813-.375 8.774-.66a3.807 3.807 0 003.215-3.065c.252-1.375.511-3.384.511-5.89 0-2.505-.255-4.514-.51-5.889-.297-1.611-1.6-2.828-3.216-3.065C19.821.376 16.621 0 13 0zm0 1.923c3.493 0 6.614.357 8.504.631a1.89 1.89 0 011.592 1.533c.233 1.27.48 3.15.48 5.528 0 2.374-.247 4.26-.48 5.53a1.882 1.882 0 01-1.592 1.532c-1.897.274-5.033.63-8.504.63-3.47 0-6.61-.356-8.504-.63a1.886 1.886 0 01-1.592-1.533 30.658 30.658 0 01-.48-5.529c0-2.385.247-4.259.48-5.528.146-.8.777-1.413 1.592-1.533A60.644 60.644 0 0113 1.924zm-2.885 2.194v10.997l1.443-.811 6.73-3.846 1.443-.842-1.443-.841-6.73-3.846-1.443-.811zm1.924 3.305l3.816 2.193-3.816 2.194V7.422z" fill="#fff"/></svg>