<svg width="86" height="8" fill="none" xmlns="http://www.w3.org/2000/svg"><path fill-rule="evenodd" clip-rule="evenodd" d="M0 8h9.301l4.87-7.965H4.905L0 8zM18.712.035h-3.778L10.027 8h3.816L18.712.035zM14.752 8h2.543L22.164.035H19.62L14.752 8zm3.778 0h1.853L25.325.035h-1.926L18.53 8zM28.304.035h-1.562L21.872 8h1.563L28.304.035zM86 1.913V0H69.868v7.965H86v-4.94h-9.628V4.94h6.975v1.043h-10.79v-4.07H86zm-21.764.104v5.948h2.69V0h-3.96l-5.45 3.582L51.883 0h-3.816v7.965h2.69V2.017l5.267 3.687h2.726l5.485-3.687zM46.143 7.965L41.674 0h-10.79l-4.905 7.965h3.051l1.054-1.704h12.171l.945 1.704h2.943zm-6.068-6.052l1.127 2.295H31.174l1.308-2.295h7.593z" fill="#222"/></svg>