<svg width="21" height="20" fill="none" xmlns="http://www.w3.org/2000/svg"><path d="M5.34 0a1.81 1.81 0 00-1.129.408l-.048.024-.024.024L1.738 2.93l.024.024a2.408 2.408 0 00-.648 2.593c.003.006-.003.018 0 .024.65 1.864 2.317 5.463 5.57 8.717 3.267 3.266 6.914 4.866 8.718 5.572h.024c.933.312 1.945.09 2.665-.529l2.426-2.425c.636-.636.636-1.741 0-2.378l-3.122-3.121-.024-.048c-.636-.637-1.765-.637-2.401 0l-1.537 1.537a12.432 12.432 0 01-3.146-2.162c-1.258-1.2-1.9-2.581-2.137-3.122l1.537-1.536c.645-.646.657-1.72-.024-2.354l.024-.024-.072-.072L6.54.456 6.517.432 6.469.408A1.81 1.81 0 005.34 0zm0 1.537c.057 0 .114.027.168.072l3.074 3.146.072.072c-.006-.006.045.075-.048.168L6.685 6.916l-.36.336.168.48s.882 2.363 2.737 4.13l.168.145c1.786 1.63 3.89 2.521 3.89 2.521l.48.217 2.282-2.282c.132-.132.108-.132.24 0l3.146 3.146c.132.132.132.084 0 .216l-2.353 2.354c-.354.303-.73.366-1.177.216-1.74-.685-5.124-2.17-8.14-5.187-3.041-3.041-4.63-6.49-5.212-8.165-.117-.312-.033-.775.24-1.009l.049-.048L5.172 1.61a.269.269 0 01.168-.072z" fill="#fff"/></svg>