<svg width="20" height="18" fill="none" xmlns="http://www.w3.org/2000/svg"><path d="M5.357 0C2.402 0 0 2.43 0 5.357c0 1.021.463 1.906.893 2.545s.87 1.049.87 1.049l7.724 7.745.513.514.513-.514 7.724-7.745S20 7.397 20 5.357C20 2.43 17.598 0 14.643 0 12.19 0 10.61 1.476 10 2.098 9.389 1.476 7.81 0 5.357 0zm0 1.429c2.135 0 4.107 2.075 4.107 2.075l.536.603.536-.603s1.972-2.075 4.107-2.075c2.173 0 3.928 1.782 3.928 3.928 0 1.102-1.339 2.59-1.339 2.59L10 15.178 2.768 7.946s-.346-.332-.692-.848-.647-1.188-.647-1.74c0-2.146 1.755-3.93 3.928-3.93z" fill="#999"/></svg>