<svg width="24" height="24" fill="none" xmlns="http://www.w3.org/2000/svg"><path d="M7.366.75C3.734.75.75 3.73.75 7.366v9.268c0 3.632 2.98 6.616 6.616 6.616h9.268c3.632 0 6.616-2.98 6.616-6.616V7.366c0-3.632-2.98-6.616-6.616-6.616H7.366zm0 2.045h9.268a4.564 4.564 0 014.57 4.57v9.27a4.564 4.564 0 01-4.57 4.57H7.366a4.564 4.564 0 01-4.57-4.57v-9.27a4.564 4.564 0 014.57-4.57zM18.04 5.033a.922.922 0 00-.927.927c0 .515.411.926.927.926a.922.922 0 00.926-.926.922.922 0 00-.926-.927zm-6.04.83c-3.376 0-6.136 2.761-6.136 6.137 0 3.376 2.76 6.136 6.136 6.136 3.376 0 6.136-2.76 6.136-6.136 0-3.376-2.76-6.136-6.136-6.136zm0 2.046A4.073 4.073 0 0116.09 12 4.073 4.073 0 0112 16.09 4.073 4.073 0 017.91 12 4.073 4.073 0 0112 7.91z" fill="#fff"/></svg>