<?xml version="1.0" standalone="no"?>
<!DOCTYPE svg PUBLIC "-//W3C//DTD SVG 20010904//EN"
 "http://www.w3.org/TR/2001/REC-SVG-20010904/DTD/svg10.dtd">
<svg version="1.0" xmlns="http://www.w3.org/2000/svg"
 width="700.000000pt" height="700.000000pt" viewBox="0 0 700.000000 700.000000"
 preserveAspectRatio="xMidYMid meet">
<metadata>
Created by potrace 1.11, written by Peter Selinger 2001-2013
</metadata>
<g transform="translate(0.000000,700.000000) scale(0.100000,-0.100000)"
fill="#000000" stroke="none">
<path d="M3338 6915 c-2 -1 -52 -5 -112 -9 -60 -3 -111 -8 -115 -10 -3 -2 -40
-7 -81 -11 -41 -4 -78 -9 -81 -11 -3 -2 -26 -6 -50 -9 -24 -3 -59 -10 -79 -15
-19 -5 -47 -11 -62 -14 -120 -21 -322 -82 -503 -153 -562 -220 -1027 -563
-1430 -1054 -440 -537 -725 -1310 -739 -2009 -1 -27 -7 -50 -16 -58 -8 -8 -10
-11 -4 -8 14 7 26 -32 13 -40 -6 -4 -6 -10 0 -18 7 -9 7 -17 -2 -26 -10 -10
-9 -11 1 -5 11 6 12 3 3 -14 -8 -13 -8 -21 -2 -21 7 0 7 -9 1 -25 -7 -18 -6
-25 2 -25 7 0 3 -6 -8 -14 -18 -14 -18 -15 -1 -22 15 -5 16 -9 5 -15 -11 -7
-10 -11 2 -19 13 -9 13 -10 0 -10 -13 0 -13 -1 0 -10 13 -9 13 -10 0 -10 -12
0 -13 -2 -1 -9 11 -7 11 -9 0 -14 -12 -5 -12 -6 0 -6 10 -1 11 -4 2 -15 -8
-10 -9 -16 -1 -21 5 -3 10 -11 10 -16 0 -6 -4 -8 -8 -5 -8 5 -8 -25 1 -64 4
-14 9 -52 12 -85 4 -33 8 -62 10 -64 3 -2 0 -13 -6 -24 -8 -14 -8 -18 0 -13 7
5 11 -3 12 -21 0 -15 2 -35 5 -43 10 -37 21 -116 17 -122 -2 -5 1 -8 8 -8 6 0
9 -8 6 -20 -3 -11 -1 -20 3 -20 5 0 7 -9 5 -20 -2 -11 1 -20 7 -20 5 0 8 -6 5
-14 -3 -7 0 -19 6 -25 6 -6 7 -11 3 -11 -5 0 -2 -7 5 -16 11 -14 10 -18 -5
-30 -11 -7 -23 -11 -27 -8 -5 3 -6 -2 -3 -10 3 -9 10 -16 16 -16 5 0 7 4 4 9
-3 5 1 12 10 15 22 8 26 8 19 -4 -3 -5 -1 -17 4 -27 38 -72 43 -94 27 -119 -9
-13 -21 -24 -26 -24 -6 0 -3 -11 6 -25 8 -13 13 -28 11 -32 -3 -5 12 -28 34
-51 39 -43 48 -62 29 -62 -5 0 -10 6 -10 14 0 8 -8 17 -17 21 -14 5 -15 3 -6
-6 6 -6 9 -17 7 -24 -5 -11 9 -13 49 -6 4 0 1 11 -8 24 -8 13 -12 27 -8 32 5
4 2 5 -4 1 -7 -4 -13 -2 -13 3 0 6 5 11 10 11 13 0 41 -61 34 -72 -3 -5 0 -8
5 -8 6 0 11 -5 11 -11 0 -5 9 -29 19 -53 11 -23 21 -48 23 -56 2 -8 9 -21 16
-28 12 -14 8 -32 -7 -32 -5 0 -11 8 -15 18 -3 9 -9 23 -12 31 -4 9 -2 11 5 7
7 -5 9 -1 4 10 -5 15 -7 15 -15 0 -6 -10 -3 -26 7 -46 12 -24 13 -35 5 -45
-16 -20 2 -25 30 -9 l25 15 -25 -7 c-22 -6 -23 -5 -11 10 7 9 16 16 20 16 11
0 58 -104 54 -118 -4 -10 -8 -10 -19 -1 -11 9 -11 15 -3 25 8 10 8 14 0 14 -6
0 -10 3 -10 8 1 4 1 13 0 19 -1 18 -48 -4 -48 -22 0 -8 3 -12 7 -10 4 2 17 -7
30 -20 20 -21 21 -27 9 -42 -10 -13 -6 -12 17 4 l31 22 21 -42 c12 -23 31 -55
41 -72 23 -35 25 -45 11 -45 -5 0 -10 6 -10 14 0 7 -11 21 -25 30 -14 9 -25
14 -25 11 0 -3 -10 0 -23 6 -20 11 -21 11 -8 -4 7 -10 20 -16 29 -15 8 2 17
-3 19 -10 3 -8 -1 -10 -14 -6 -13 5 -12 2 5 -11 16 -12 21 -23 17 -38 -5 -16
-4 -18 3 -8 7 10 11 10 17 1 4 -7 1 -16 -6 -21 -11 -7 -11 -9 -1 -9 7 0 15 7
18 15 4 8 10 15 15 15 5 0 3 -13 -6 -29 -13 -27 -13 -29 3 -26 9 1 21 -3 25
-9 5 -6 6 -3 2 9 -4 11 -8 29 -9 40 0 13 -8 20 -20 20 -11 0 -21 5 -23 11 -2
6 6 10 18 9 20 -1 41 -25 45 -52 1 -6 11 -22 23 -34 12 -13 21 -28 21 -35 0
-14 -25 -36 -32 -29 -2 3 -5 -2 -5 -10 0 -8 4 -12 8 -10 3 3 12 -1 18 -9 7 -8
8 -16 4 -18 -4 -3 -2 -3 6 -1 8 2 11 -2 7 -12 -3 -8 -2 -14 2 -13 4 1 17 -3
29 -10 28 -15 36 -3 16 23 -14 18 -15 18 -9 2 4 -13 2 -17 -6 -14 -7 2 -13 12
-13 23 -1 10 -6 18 -13 17 -16 -4 -15 9 0 27 11 13 11 13 -2 3 -20 -18 -35
-16 -20 2 14 16 35 15 35 -2 0 -5 7 -17 15 -26 29 -32 40 -46 40 -53 0 -4 7
-12 17 -19 13 -9 13 -14 3 -20 -9 -6 -11 -4 -5 6 6 11 5 12 -6 1 -20 -18 -33
-15 -18 6 12 15 12 16 -2 5 -12 -10 -20 -9 -40 3 l-24 16 22 -20 c12 -11 19
-23 15 -27 -4 -5 -2 -5 4 -2 7 4 18 -1 25 -10 12 -15 12 -16 -4 -10 -10 4 -16
3 -13 -2 9 -14 54 -9 61 7 4 12 2 12 -8 4 -8 -7 -17 -9 -20 -5 -13 12 -7 20
12 19 10 0 38 -26 62 -56 62 -79 62 -78 89 -108 14 -14 25 -29 25 -32 0 -3 18
-22 40 -42 22 -21 37 -38 33 -38 -4 0 -16 10 -28 22 -11 12 -20 17 -20 12 0
-6 6 -16 13 -23 10 -11 7 -12 -13 -7 -14 3 -19 3 -12 0 6 -3 12 -10 12 -15 0
-6 -5 -7 -12 -3 -7 5 -8 3 -4 -5 6 -9 12 -8 26 4 15 14 22 14 41 5 26 -15 68
-61 69 -76 0 -18 -27 -37 -35 -25 -12 20 -14 51 -3 51 6 0 9 3 6 6 -4 3 -15 1
-26 -5 -13 -7 -22 -7 -30 1 -18 18 -14 32 3 18 11 -9 19 -10 26 -3 8 8 7 13
-2 18 -8 5 -10 4 -5 -3 4 -7 3 -12 -3 -12 -5 0 -11 6 -14 13 -3 9 -8 8 -19 -3
-13 -13 -12 -18 9 -37 13 -12 23 -18 23 -13 0 6 4 10 10 10 5 0 7 -6 4 -13 -3
-8 2 -20 10 -27 9 -7 13 -17 10 -24 -3 -6 8 4 25 22 17 18 31 27 31 20 0 -7
16 -24 34 -38 33 -24 33 -26 18 -44 -10 -11 -11 -16 -4 -12 6 4 12 2 12 -3 0
-12 -23 -15 -33 -4 -4 3 0 14 9 24 12 13 12 19 3 25 -8 5 -10 3 -4 -6 6 -10 4
-12 -8 -7 -12 4 -14 2 -10 -10 9 -23 -14 -8 -28 19 -9 18 -8 19 10 13 13 -4
21 -2 21 5 0 6 -4 9 -9 6 -5 -4 -11 -1 -13 5 -2 6 -12 0 -23 -12 -11 -12 -14
-19 -7 -15 6 4 12 3 12 -2 0 -5 13 -23 29 -39 24 -26 31 -29 50 -19 17 9 19
14 9 24 -9 9 -9 12 0 12 7 0 15 -7 18 -15 4 -8 11 -15 18 -15 6 0 42 -30 80
-66 38 -36 77 -69 87 -75 21 -11 25 -38 7 -40 -18 -2 -21 -1 -43 7 -17 7 -18
6 -5 -8 8 -9 25 -15 38 -13 13 1 21 -2 19 -9 -3 -6 -10 -10 -16 -8 -7 1 -9 -2
-6 -8 4 -6 9 -9 13 -6 3 3 11 -2 19 -12 8 -9 11 -11 8 -4 -11 21 -13 62 -3 68
5 3 24 -8 43 -24 l34 -31 -27 3 c-17 2 -27 9 -27 19 0 9 -3 18 -6 22 -5 5 -5
-16 0 -48 0 -5 10 -6 21 -2 14 5 18 2 15 -7 -3 -8 3 -22 14 -32 11 -10 18 -24
14 -30 -3 -6 -3 -8 2 -4 4 4 14 0 20 -9 10 -14 16 -15 28 -5 8 7 23 9 33 5 18
-7 18 -6 1 11 -10 10 -16 21 -13 24 3 3 14 -5 25 -16 10 -12 23 -22 30 -22 20
0 11 -20 -14 -32 -14 -6 -25 -15 -25 -20 0 -5 11 -2 24 7 21 14 25 14 36 0 7
-8 10 -24 7 -35 -3 -11 -1 -18 4 -15 5 3 21 -3 37 -15 28 -21 62 -19 62 3 0 7
-4 7 -12 -1 -21 -21 -32 -13 -12 10 19 22 19 22 0 8 -18 -14 -19 -13 -13 2 4
12 2 15 -9 11 -7 -3 -14 0 -14 6 0 17 28 13 48 -6 10 -10 34 -26 55 -35 41
-19 51 -49 16 -45 -12 1 -24 -5 -26 -13 -4 -12 -3 -13 5 -1 5 7 14 11 20 7 14
-8 43 4 36 15 -3 5 0 9 5 9 6 0 11 -4 11 -10 0 -5 7 -10 15 -10 8 0 15 -5 15
-11 0 -5 4 -7 10 -4 5 3 10 -3 10 -14 0 -12 0 -24 1 -28 0 -4 -4 -9 -10 -11
-6 -2 -8 3 -5 11 7 20 -14 31 -31 17 -12 -10 -15 -9 -15 3 0 8 3 17 8 20 4 2
0 2 -8 -1 -8 -3 -24 -4 -35 -4 -15 1 -17 -1 -5 -8 8 -5 17 -7 21 -4 4 2 10 -3
13 -12 5 -13 9 -14 21 -4 9 7 19 10 22 6 4 -4 2 -11 -5 -15 -10 -6 -4 -12 18
-21 24 -10 34 -10 43 -1 9 10 8 15 -5 25 -10 7 -18 19 -18 25 0 6 10 3 22 -8
11 -11 25 -18 29 -15 5 3 24 -3 41 -13 18 -10 35 -19 37 -20 1 -1 0 -7 -4 -13
-4 -7 -14 -2 -26 12 -20 23 -20 23 -10 1 6 -12 16 -25 21 -28 6 -3 10 -12 10
-18 0 -7 -13 2 -29 19 -27 30 -29 31 -27 9 0 -13 4 -21 9 -18 4 2 14 -3 23
-11 9 -9 19 -14 24 -11 5 3 11 -1 13 -7 3 -7 4 2 2 19 -2 23 1 33 10 33 9 0
13 -10 11 -27 -4 -37 4 -60 15 -42 4 7 3 21 -2 30 -13 26 7 34 36 15 14 -9 25
-14 25 -12 0 3 23 -6 50 -20 28 -14 50 -29 50 -35 0 -5 5 -9 11 -9 5 0 7 5 3
12 -5 7 -3 8 7 2 14 -8 19 -10 39 -13 5 0 7 -7 4 -15 -3 -8 -1 -17 5 -21 6 -3
11 -11 11 -17 0 -7 -5 -7 -14 1 -8 6 -19 10 -26 9 -7 -2 -15 3 -17 10 -3 7 1
11 7 10 7 -2 15 4 17 12 3 9 1 11 -4 5 -19 -23 -71 -7 -56 18 3 5 1 7 -4 4 -6
-4 -22 3 -37 14 -14 11 -26 16 -26 10 0 -6 -5 -11 -11 -11 -6 0 -8 7 -5 17 6
16 6 16 -12 0 -10 -9 -22 -14 -25 -10 -4 3 -7 2 -7 -4 0 -6 7 -14 16 -17 8 -3
13 -2 10 2 -3 5 8 9 24 9 25 0 28 -3 19 -18 -6 -11 -5 -20 1 -24 5 -3 10 -3
10 1 0 3 12 -2 28 -11 15 -10 21 -12 15 -4 -28 29 -11 30 18 1 17 -18 34 -30
38 -28 4 3 13 1 21 -4 10 -6 21 -3 32 7 17 15 19 15 36 0 22 -20 39 -23 20 -4
-19 20 -62 42 -54 28 4 -6 3 -11 -3 -11 -15 0 -23 18 -11 25 5 3 23 -1 40 -10
16 -8 32 -15 35 -15 21 1 26 -1 21 -9 -3 -5 6 -9 19 -10 46 -3 55 -4 50 -9 -2
-2 6 -12 18 -22 19 -16 20 -20 7 -36 -8 -11 -10 -16 -6 -12 5 4 16 2 25 -5 14
-11 14 -10 2 6 -15 19 -2 24 17 5 7 -7 12 -8 12 -2 0 5 -9 16 -19 24 -20 14
-19 30 1 30 6 0 9 -3 5 -6 -3 -4 4 -14 16 -24 18 -15 19 -20 9 -33 -11 -13
-10 -15 5 -13 10 2 21 -2 25 -8 5 -8 8 -7 8 2 0 6 5 12 11 12 5 0 7 -6 4 -12
-4 -7 1 -4 9 7 9 11 14 25 11 33 -3 8 0 10 8 5 6 -4 23 -8 36 -9 13 0 30 -10
37 -20 7 -10 21 -28 31 -38 17 -18 17 -19 -2 -12 -11 4 -16 3 -11 -1 11 -12
65 -11 63 0 -1 6 9 13 23 17 24 6 24 6 4 12 -14 4 -25 -1 -33 -14 -7 -11 -15
-17 -18 -14 -3 3 0 14 8 23 13 16 12 17 -3 4 -15 -11 -21 -11 -33 -1 -8 7 -15
20 -15 29 1 14 2 14 14 -2 15 -19 31 -24 20 -5 -4 7 -3 8 5 4 12 -8 51 -16 84
-19 17 -1 17 -3 -3 -19 -12 -10 -25 -16 -29 -13 -4 2 -8 -2 -8 -10 0 -11 4
-12 14 -3 10 8 18 7 32 -6 15 -14 20 -14 30 -2 9 11 8 15 -3 19 -11 4 -13 1
-9 -11 6 -15 5 -15 -11 -3 -17 14 -17 16 1 28 10 8 27 11 38 8 22 -7 63 -13
112 -19 19 -2 41 -13 52 -27 31 -37 24 -48 -7 -13 -22 26 -31 30 -50 23 -14
-5 -20 -13 -16 -21 5 -8 2 -9 -9 -5 -10 3 -17 2 -17 -4 0 -10 57 -6 68 5 3 4
15 -3 27 -14 20 -19 21 -19 50 6 17 14 20 19 8 13 -17 -10 -25 -10 -37 0 -22
18 -20 31 4 31 11 0 20 -5 20 -11 0 -5 -5 -7 -12 -3 -7 4 -8 3 -4 -5 5 -8 13
-7 28 3 14 10 27 12 38 6 10 -5 20 -6 24 -3 3 3 6 1 6 -5 0 -7 -9 -21 -20 -32
-11 -11 -15 -22 -10 -25 6 -4 10 -1 10 5 0 6 5 8 10 5 6 -4 9 -3 8 2 -1 4 2
19 6 31 l8 24 15 -22 c8 -12 12 -24 8 -28 -3 -3 -10 0 -15 8 -7 11 -9 10 -7
-7 1 -17 5 -20 18 -12 22 11 32 12 25 1 -3 -5 2 -9 10 -9 10 0 6 9 -12 28
l-27 28 91 -2 c49 -1 88 -5 85 -10 -2 -4 -8 -5 -12 -3 -4 3 -8 -5 -8 -16 -2
-19 -1 -19 11 -3 7 10 18 15 24 11 7 -4 10 -2 6 7 -6 16 27 17 48 0 20 -16 47
-12 41 6 -3 12 -2 12 7 -2 13 -20 5 -38 -14 -31 -7 3 -16 -2 -19 -10 -4 -9 -2
-16 3 -16 6 0 10 5 10 12 0 8 3 9 11 1 14 -14 53 -5 78 18 26 24 31 24 28 -2
-1 -12 5 -24 13 -26 13 -4 13 -3 0 7 -11 9 -12 13 -2 17 6 2 10 8 8 12 -3 4 1
8 9 8 8 0 13 -9 12 -20 -1 -11 5 -22 13 -24 13 -4 13 -3 0 6 -8 5 -11 13 -7
17 3 4 12 2 19 -3 22 -17 57 -22 51 -7 -2 7 -10 11 -17 8 -6 -2 -20 2 -30 9
-16 12 -12 14 35 15 85 3 146 9 157 16 6 3 13 -2 17 -13 8 -25 31 -34 31 -11
0 11 -5 16 -15 12 -10 -4 -12 -1 -7 7 5 7 17 11 27 8 10 -3 21 -2 24 2 7 13
65 11 65 -2 1 -8 5 -6 13 3 14 17 42 26 32 10 -3 -5 -2 -10 3 -10 6 0 13 7 16
16 4 9 9 14 13 11 3 -4 14 -2 24 4 15 7 19 6 19 -5 0 -8 5 -18 12 -22 8 -5 9
-2 5 9 -3 9 -2 19 2 22 11 6 23 -23 16 -36 -4 -5 1 -6 9 -3 15 6 20 16 17 40
-1 6 5 11 11 12 7 0 26 3 42 7 15 3 34 1 42 -5 15 -13 34 -5 34 14 0 16 32 17
42 2 5 -7 8 -4 8 7 0 9 4 17 10 17 11 0 1 -32 -14 -42 -7 -5 -6 -8 2 -8 8 0
16 9 19 20 3 11 10 20 15 20 5 0 6 4 3 10 -3 5 1 10 10 10 10 0 14 -5 10 -12
-4 -7 0 -5 8 5 20 24 30 22 17 -4 -7 -11 -9 -23 -6 -27 3 -3 6 0 6 5 0 6 12
10 28 8 29 -3 52 10 52 29 0 6 -6 4 -13 -5 -7 -8 -22 -15 -34 -15 -25 0 -27 4
-13 26 6 10 10 11 10 3 0 -7 5 -13 11 -13 5 0 7 5 3 12 -4 7 -3 8 4 4 7 -4 12
-2 12 5 0 7 3 9 7 6 3 -4 13 -1 21 6 13 10 15 9 10 -4 -3 -9 -2 -22 4 -30 8
-11 9 -10 4 4 -6 19 -2 21 23 8 11 -6 22 -6 32 0 12 9 12 10 -1 6 -18 -5 -50
10 -50 24 0 6 8 6 21 -1 11 -7 23 -9 27 -6 3 3 0 6 -7 6 -7 0 -9 5 -6 11 4 6
9 8 12 5 3 -3 19 2 34 10 28 14 30 14 39 -8 6 -17 9 -19 9 -5 1 9 6 16 12 15
6 -2 14 4 16 12 3 9 1 11 -4 5 -11 -13 -33 -17 -33 -6 0 7 37 21 70 26 3 0 11
4 18 8 6 5 12 4 12 -2 0 -5 -5 -13 -10 -16 -13 -8 -3 -25 13 -24 9 0 9 2 1 5
-20 8 8 53 41 65 77 30 95 36 95 32 0 -2 7 3 16 12 15 15 18 15 38 -4 20 -19
24 -20 42 -5 18 15 18 15 -2 5 -17 -8 -25 -7 -34 4 -7 9 -9 19 -5 23 4 4 10 1
12 -5 3 -7 9 -13 14 -13 4 0 6 6 3 14 -3 8 3 19 15 26 14 7 21 7 21 0 0 -5 7
-10 15 -10 8 0 15 5 15 11 0 5 -4 7 -10 4 -6 -3 -10 -2 -10 3 0 5 17 16 38 25
20 8 53 26 71 38 22 15 32 18 28 9 -5 -8 0 -5 9 7 9 13 22 23 28 23 6 0 22 9
36 20 24 18 50 12 50 -12 0 -6 -6 -5 -14 2 -11 9 -19 9 -33 0 -16 -10 -15 -10
4 -5 19 5 22 3 17 -12 -5 -15 -4 -16 5 -3 6 8 11 11 11 6 0 -5 8 -2 18 7 10
10 21 15 24 12 3 -3 5 5 5 17 1 41 3 48 16 48 7 0 20 9 30 20 20 24 39 26 30
5 -3 -9 -7 -14 -10 -11 -2 2 -16 -7 -29 -21 -19 -19 -23 -28 -14 -37 9 -8 11
-7 8 4 -2 8 3 14 9 13 7 -2 12 2 10 8 -1 6 4 14 12 17 9 3 11 0 6 -9 -5 -8 -4
-10 0 -6 9 7 15 28 17 55 1 7 21 25 45 40 23 15 43 30 43 35 0 12 23 8 41 -9
14 -12 18 -13 25 -2 4 7 4 10 -1 6 -9 -9 -35 9 -35 23 0 5 7 9 16 9 8 0 12 5
9 10 -3 6 0 10 8 10 25 0 28 -14 5 -27 -23 -12 -23 -12 4 -11 15 1 25 4 23 7
-3 2 1 11 8 19 8 10 8 13 1 9 -7 -4 -14 0 -18 8 -4 12 2 14 27 11 34 -3 77 11
77 26 0 5 -4 7 -9 4 -5 -4 -11 -3 -14 1 -2 5 -2 2 0 -6 2 -8 -2 -11 -11 -8 -7
3 -19 0 -25 -6 -8 -8 -14 -7 -23 2 -9 10 -9 12 -1 7 6 -3 16 2 22 11 6 10 11
15 11 11 0 -3 16 9 36 29 21 20 42 32 50 29 9 -4 12 -2 8 5 -6 11 52 69 69 69
5 0 5 6 1 13 -5 9 -4 9 5 1 10 -9 9 -18 -3 -42 -20 -40 -33 -47 -54 -31 -14
11 -15 11 -5 0 6 -7 9 -20 6 -27 -3 -8 1 -14 8 -14 7 0 10 2 7 5 -6 6 52 69
64 70 3 0 10 4 15 9 4 5 3 6 -3 3 -7 -4 -14 4 -17 21 -3 17 0 30 9 35 8 4 25
19 39 33 13 13 29 24 35 24 6 0 8 4 5 10 -3 5 1 10 10 10 9 0 14 4 11 8 -3 5
8 9 24 9 24 0 27 -3 18 -14 -20 -24 -4 -20 21 6 14 15 17 22 8 18 -9 -3 -19
-1 -23 5 -4 7 -9 6 -15 -3 -4 -7 -11 -10 -15 -7 -3 4 17 30 45 58 28 27 48 50
45 50 -4 0 -1 7 6 15 10 12 16 13 26 4 8 -6 14 -16 14 -21 0 -6 -7 -5 -15 2
-9 7 -18 10 -22 6 -3 -3 -1 -6 7 -6 9 0 10 -3 1 -14 -9 -10 -8 -15 3 -19 10
-4 13 -1 9 9 -3 8 -2 14 3 12 5 -2 20 5 34 15 13 9 19 17 12 17 -6 0 -12 5
-12 11 0 5 4 7 10 4 6 -4 7 1 3 12 -6 15 -4 16 8 6 12 -10 17 -8 29 10 12 20
12 21 -3 9 -17 -14 -37 -9 -37 10 0 6 9 19 21 29 11 9 21 21 21 26 1 13 82
113 91 113 4 0 5 5 1 12 -4 6 -3 8 3 5 6 -4 13 1 15 11 6 21 35 25 58 8 13 -9
13 -9 3 5 -7 9 -10 19 -6 22 3 4 0 13 -6 21 -10 11 -9 16 4 24 9 5 16 13 16
18 -1 5 4 10 9 10 23 3 24 5 12 12 -9 7 -6 15 12 35 14 15 25 31 25 35 -1 12
45 82 54 82 4 0 5 5 1 12 -5 8 -2 9 11 4 14 -5 15 -4 7 6 -8 10 -6 20 8 38 11
14 20 29 20 33 0 5 7 15 15 24 8 8 13 18 10 23 -3 4 2 11 11 14 9 4 14 13 10
21 -3 9 1 18 9 21 8 4 12 10 9 15 -3 5 3 9 13 9 14 0 15 2 4 9 -7 5 -9 10 -5
13 8 4 17 4 42 -1 4 -1 1 -5 -7 -10 -7 -5 -9 -11 -4 -14 6 -4 15 5 22 19 7 16
7 23 1 19 -6 -4 -18 -1 -27 7 -14 11 -16 11 -8 -1 5 -10 4 -12 -4 -7 -10 6 9
52 47 115 1 2 5 1 8 -2 4 -4 1 -13 -6 -22 -7 -8 -8 -15 -2 -15 16 0 23 30 12
51 -7 13 -7 19 0 19 5 0 9 3 8 7 -2 5 5 27 15 51 15 37 20 42 41 36 14 -3 27
-1 32 7 5 9 2 10 -9 6 -20 -8 -49 2 -42 14 3 4 11 6 18 4 7 -2 26 7 42 21 17
15 24 23 18 20 -7 -4 -13 -3 -13 3 0 5 6 12 13 14 9 4 9 6 -1 6 -8 1 -16 -8
-19 -20 -4 -12 -11 -18 -20 -15 -8 3 -16 6 -18 6 -4 0 21 69 28 76 4 4 7 15 7
25 0 10 5 30 12 46 6 15 12 31 13 36 2 4 4 9 5 12 4 8 7 24 9 41 0 8 6 12 11
9 6 -3 10 -2 10 4 0 5 -6 12 -12 14 -10 4 -10 6 0 6 7 1 10 6 7 11 -3 6 -1 10
5 10 6 0 8 4 5 10 -3 5 1 32 9 59 8 27 11 53 8 57 -4 4 1 4 11 1 9 -4 17 -2
17 3 0 6 -5 10 -11 10 -8 0 -7 6 2 17 12 14 12 15 1 9 -11 -7 -12 -4 -4 10 5
11 7 24 5 31 -2 6 0 14 6 17 5 3 7 15 4 26 -4 14 0 20 11 20 9 0 16 -5 16 -11
0 -5 -4 -7 -10 -4 -5 3 -10 1 -10 -5 0 -7 7 -9 16 -6 9 3 18 6 21 6 3 0 -1 8
-8 17 -12 15 -12 16 3 10 13 -4 15 -2 11 10 -4 9 -2 14 3 10 5 -3 10 3 10 13
0 14 -7 17 -28 14 -15 -1 -28 1 -28 6 0 6 4 10 8 10 4 0 8 18 7 40 -1 22 1 40
5 40 3 0 6 19 8 43 2 42 9 124 11 141 0 5 7 3 14 -3 11 -9 13 -5 12 20 -1 17
-7 34 -12 37 -12 7 -10 55 3 86 5 14 4 17 -4 12 -7 -4 -10 -2 -6 7 9 24 10 97
1 97 -4 0 -4 8 1 18 5 9 7 24 5 32 -4 13 -3 13 7 0 10 -13 11 -12 6 3 -3 10
-6 21 -6 23 0 3 -4 2 -10 -1 -6 -4 -7 1 -3 11 3 9 6 28 7 43 1 19 7 26 21 27
35 2 38 4 29 17 -11 15 -11 38 0 56 7 10 6 12 -5 6 -7 -5 -22 -10 -34 -11 -18
-2 -20 4 -21 42 -1 24 3 41 8 38 5 -3 6 -15 3 -27 -5 -18 -4 -19 5 -5 11 19 4
48 -14 48 -6 0 -4 5 4 10 13 9 13 10 0 10 -11 0 -16 11 -17 38 -1 20 -4 47 -7
60 -2 12 0 22 6 22 6 0 7 -8 3 -17 -5 -15 -4 -16 7 -5 11 11 10 16 -4 26 -10
7 -18 18 -18 25 0 19 16 12 30 -14 7 -13 17 -22 23 -18 5 3 2 10 -7 15 -9 5
-14 13 -12 17 3 5 -5 13 -19 19 -13 6 -24 19 -24 29 1 10 -2 35 -5 55 -4 23
-1 40 6 44 8 5 9 2 5 -10 -6 -15 -5 -15 17 1 14 10 20 21 14 24 -6 4 -8 12 -4
18 5 7 1 9 -9 5 -12 -5 -13 -9 -4 -20 14 -17 -2 -18 -20 -1 -11 10 -13 10 -7
0 4 -7 2 -13 -4 -13 -7 0 -9 7 -6 16 3 9 6 18 6 20 0 2 7 4 15 4 8 0 15 4 15
8 0 5 -7 9 -15 9 -8 0 -15 -4 -15 -9 0 -4 -4 -8 -9 -8 -11 0 -8 46 2 57 11 10
8 23 -4 23 -5 0 -7 -4 -4 -10 3 -5 1 -10 -5 -10 -6 0 -8 10 -4 26 6 22 4 25
-7 19 -11 -7 -11 -5 1 10 9 11 10 16 3 11 -9 -5 -13 0 -15 16 -1 29 -3 40 -11
58 -4 8 -8 27 -11 42 -3 15 -8 33 -12 40 -6 10 -4 11 7 1 18 -18 27 -16 38 6
9 16 7 18 -21 17 -17 0 -33 4 -35 10 -2 7 8 10 29 8 24 -3 29 -1 18 6 -8 5
-10 10 -5 10 6 0 2 5 -8 11 -13 8 -22 7 -33 -1 -7 -7 -14 -9 -15 -4 0 5 -2 18
-4 30 -3 16 0 20 17 19 11 -1 27 -10 34 -20 8 -10 14 -14 14 -8 0 7 -4 14 -10
18 -5 3 -7 13 -4 23 4 10 2 13 -3 7 -14 -17 -43 -17 -43 -1 0 8 -6 19 -14 23
-16 9 -48 92 -40 105 3 5 10 5 16 2 7 -4 6 -9 -2 -14 -7 -5 -2 -7 14 -7 23 0
24 1 10 12 -10 7 -14 17 -10 24 5 7 0 18 -10 26 -23 17 -34 19 -34 4 0 -5 4
-8 9 -5 5 3 15 -2 22 -11 12 -15 12 -16 -4 -10 -11 4 -16 3 -12 -3 3 -6 2 -10
-3 -10 -12 0 -22 24 -22 51 0 10 -4 19 -10 19 -5 0 -9 3 -8 8 1 4 -3 16 -9 27
-6 11 -7 29 -4 39 7 18 8 18 24 -5 9 -13 17 -18 17 -12 0 6 -8 19 -17 28 -15
16 -18 16 -29 1 -10 -15 -12 -15 -17 4 -3 11 -2 18 2 16 4 -3 7 5 8 17 0 12
-1 16 -4 10 -3 -7 -9 -13 -14 -13 -4 0 -5 7 -2 17 5 12 3 14 -8 8 -12 -7 -12
-6 -1 7 10 13 10 18 1 24 -8 4 -9 3 -5 -4 4 -7 5 -12 2 -12 -3 0 -17 22 -30
49 -19 37 -22 51 -13 60 9 9 9 11 -3 6 -10 -3 -19 5 -28 25 -7 16 -12 31 -10
32 2 2 -7 14 -19 28 -13 13 -23 30 -23 37 0 8 -5 19 -10 26 -31 36 -59 90 -54
99 4 7 2 8 -4 4 -7 -4 -12 -1 -12 8 0 9 -3 16 -8 16 -4 0 -13 9 -20 21 -11 17
-11 20 0 14 7 -5 3 2 -10 14 -12 12 -19 28 -16 34 4 7 4 9 -1 5 -4 -4 -23 14
-41 40 -75 105 -184 246 -196 250 -4 2 -8 7 -8 12 0 9 -8 19 -155 170 -208
214 -393 365 -650 530 -125 80 -444 242 -462 235 -8 -2 -11 0 -8 5 6 9 -10 14
-42 13 -7 -1 -10 4 -6 10 4 6 0 8 -10 4 -10 -3 -17 -2 -17 4 0 6 -4 7 -10 4
-5 -3 -10 -2 -10 4 0 6 -7 8 -15 5 -8 -4 -15 -1 -15 5 0 7 -6 11 -12 10 -7 -2
-77 18 -155 44 -142 46 -409 110 -513 122 -30 4 -57 8 -60 10 -3 2 -41 6 -85
10 -44 4 -100 9 -125 11 -47 5 -418 13 -422 9z m26 -434 c-4 -9 -6 -24 -6 -33
0 -10 -4 -18 -9 -18 -6 0 -7 5 -4 10 3 6 2 10 -4 10 -5 0 -9 -9 -8 -19 0 -11
4 -19 7 -18 13 5 10 -65 -6 -148 -2 -11 -13 -83 -24 -160 -10 -77 -22 -156
-25 -175 -3 -19 -7 -48 -9 -65 -5 -32 -51 -354 -61 -420 -3 -22 -12 -80 -20
-130 -8 -49 -16 -108 -19 -130 -6 -45 -35 -246 -41 -285 -12 -83 -16 -109 -21
-145 -3 -22 -18 -128 -34 -235 -16 -107 -32 -215 -35 -240 -3 -25 -8 -56 -10
-70 -2 -14 -11 -76 -20 -138 -9 -62 -18 -121 -20 -130 -2 -10 -6 -44 -10 -75
l-7 -58 -222 -177 c-121 -97 -230 -184 -241 -194 -11 -9 -342 -274 -735 -589
-393 -315 -721 -579 -728 -586 -8 -7 -22 -18 -33 -24 -11 -5 -17 -14 -14 -20
4 -5 1 -8 -7 -7 -7 2 -12 -3 -10 -10 1 -8 -2 -11 -8 -7 -13 8 -42 -14 -34 -26
3 -5 2 -9 -3 -8 -21 4 -34 -2 -27 -12 5 -8 1 -8 -13 0 -11 6 -24 7 -28 3 -5
-4 -6 0 -3 8 3 9 0 24 -8 35 -8 10 -14 14 -14 9 0 -6 5 -15 12 -22 9 -9 9 -12
1 -12 -13 0 -26 18 -29 38 -2 8 -6 17 -10 20 -4 4 -4 -1 -1 -10 4 -10 2 -18
-2 -18 -5 0 5 -15 22 -33 20 -20 35 -28 40 -22 5 6 7 4 5 -4 -7 -25 -36 -37
-50 -22 -11 12 -10 13 5 8 15 -6 16 -3 7 13 -5 10 -16 22 -23 26 -8 5 -7 2 2
-9 7 -9 9 -17 4 -17 -13 0 -42 69 -32 76 5 3 7 16 5 30 -3 13 0 24 5 24 5 0 9
5 9 11 0 5 -5 7 -10 4 -6 -3 -10 -2 -10 4 0 5 5 12 10 14 6 3 5 4 -2 3 -7 -2
-13 -15 -12 -29 1 -18 -4 -27 -13 -27 -10 0 -13 6 -9 17 4 10 4 14 0 10 -4 -4
-13 5 -21 20 -12 22 -11 29 3 51 16 24 17 25 30 7 8 -10 14 -15 14 -11 0 4 -9
21 -21 37 -11 16 -17 29 -14 29 4 0 0 11 -9 25 -9 14 -15 29 -12 33 2 4 -4 9
-15 9 -10 1 -19 -3 -19 -9 0 -6 3 -8 7 -5 8 9 33 -26 38 -54 3 -13 0 -19 -8
-16 -7 2 -11 11 -9 19 1 9 -5 21 -13 28 -10 9 -15 9 -15 1 0 -6 5 -11 10 -11
6 0 10 -5 10 -11 0 -5 -5 -7 -12 -3 -6 4 -3 -4 8 -18 14 -19 22 -23 32 -16 21
17 14 -7 -8 -27 -18 -17 -20 -17 -20 -1 0 9 -7 27 -15 39 -8 13 -16 32 -18 42
-2 11 -9 33 -15 48 -7 16 -12 35 -12 43 0 8 -5 14 -11 14 -5 0 -7 5 -4 10 4 6
1 17 -5 25 -7 8 -9 15 -5 15 4 0 2 7 -5 15 -17 20 -6 32 30 30 16 -1 27 1 24
4 -3 3 -19 6 -36 6 -28 0 -32 5 -43 43 -7 23 -10 42 -7 42 3 0 1 5 -6 12 -16
16 -15 28 3 28 8 0 14 -4 12 -9 -1 -5 7 -17 18 -26 20 -16 20 -16 -4 -9 -16 4
-21 3 -17 -5 4 -6 14 -11 22 -11 16 0 19 -16 4 -25 -6 -3 -10 -11 -10 -18 0
-6 7 -2 16 9 13 16 15 16 10 2 -3 -10 -1 -18 3 -18 5 0 9 15 8 34 -1 24 -7 38
-22 46 -11 6 -21 20 -22 31 -1 11 2 17 7 14 6 -4 7 2 3 11 -4 12 -3 15 5 10 8
-5 10 -1 5 10 -5 14 -8 12 -20 -10 -17 -33 -39 -28 -36 8 1 14 -2 24 -7 21
-13 -8 -3 36 11 49 8 8 10 5 5 -11 -4 -12 -2 -24 4 -28 8 -5 8 -11 -1 -21 -7
-8 -7 -14 -1 -14 14 0 22 24 12 40 -5 8 -3 26 6 44 12 25 12 27 1 14 -8 -10
-17 -15 -21 -11 -3 3 2 15 11 26 10 11 12 17 4 12 -10 -6 -12 -2 -7 16 l7 24
-15 -25 c-8 -14 -12 -28 -10 -32 3 -5 -1 -8 -8 -8 -11 0 -11 -2 0 -9 10 -6 10
-10 -1 -19 -12 -10 -14 -6 -12 20 2 18 3 36 4 41 0 4 10 16 21 27 13 13 15 20
7 20 -7 0 -13 9 -14 20 -1 11 2 18 6 16 4 -3 8 1 8 7 0 15 -34 20 -42 6 -4 -5
2 -6 12 -2 16 6 16 5 -1 -16 -14 -15 -15 -20 -5 -16 10 4 15 -1 16 -15 1 -11
-2 -18 -7 -15 -6 3 -7 0 -4 -8 3 -8 1 -18 -5 -21 -5 -4 -10 2 -9 11 0 18 -5
49 -17 108 -4 17 -8 55 -10 85 -2 30 -4 55 -5 55 -1 0 -4 26 -6 58 -3 39 -1
57 6 52 5 -3 10 -1 10 4 0 6 5 11 11 11 5 0 8 -4 5 -9 -3 -5 1 -12 9 -15 13
-4 13 -2 5 14 -13 25 -13 33 2 24 7 -5 8 -3 4 5 -6 9 -12 9 -25 -3 -10 -9 -23
-16 -31 -16 -7 0 0 10 16 23 16 12 33 21 39 19 5 -1 2 4 -7 11 -23 18 -23 31
-2 23 14 -6 15 -4 4 9 -11 13 -15 13 -21 3 -5 -7 -6 -21 -3 -30 3 -12 1 -17
-8 -15 -7 2 -10 2 -5 0 8 -5 -1 -23 -12 -23 -4 0 -7 80 -7 178 l1 177 25 11
c21 9 22 11 7 17 -11 4 -16 3 -12 -3 3 -6 2 -10 -4 -10 -11 0 -8 65 4 94 7 15
5 17 -6 11 -11 -6 -12 -5 -1 6 22 24 37 -4 17 -34 -15 -23 -15 -25 1 -23 9 0
19 -6 21 -14 4 -12 3 -12 -5 -1 -7 9 -12 10 -16 2 -4 -6 -2 -11 3 -11 6 0 14
0 19 0 4 0 7 8 8 19 1 11 4 27 7 36 4 10 3 14 -4 9 -8 -4 -9 1 -4 15 5 16 3
22 -7 20 -30 -4 -38 2 -36 26 1 14 5 25 8 25 3 0 7 17 8 38 1 20 3 53 6 72 2
19 4 41 5 48 1 9 9 11 24 8 12 -3 16 -3 10 0 -17 8 -17 27 0 21 38 -14 56 36
23 63 -16 14 -17 17 -2 29 13 11 19 11 33 0 16 -13 16 -13 0 11 -19 27 -22 44
-7 35 6 -4 7 1 3 11 -4 10 -2 15 3 11 6 -3 16 -1 24 5 12 8 12 9 -2 4 -10 -3
-18 -3 -18 1 0 3 8 12 18 20 16 14 16 14 -1 9 -12 -4 -17 -2 -14 6 2 7 11 12
20 12 13 -1 14 3 5 22 -14 31 -38 14 -34 -24 3 -31 -17 -78 -36 -85 -8 -3 -5
-6 6 -6 18 -1 18 -2 1 -21 -20 -22 -44 -28 -26 -6 6 8 11 18 10 22 -4 24 2 55
10 50 5 -3 12 1 15 10 3 8 2 12 -4 9 -6 -3 -10 1 -10 10 0 10 5 13 12 9 8 -5
9 -2 5 10 -4 10 -4 23 0 29 4 7 8 14 8 17 9 74 29 97 55 65 15 -18 -1 -20 -19
-2 -11 9 -12 9 -7 0 4 -7 16 -18 28 -24 15 -8 19 -8 14 0 -4 6 -1 11 6 11 7 0
2 7 -10 16 -12 8 -20 20 -17 25 9 13 26 11 22 -2 -1 -6 5 -14 13 -16 9 -3 11
-1 5 4 -5 4 -11 16 -13 25 -2 13 2 16 15 12 12 -5 11 -1 -5 11 -14 10 -21 23
-18 32 3 8 1 23 -4 33 -6 11 -6 21 -1 25 5 3 12 -4 16 -15 4 -11 11 -18 16
-15 13 8 11 -9 -2 -22 -13 -13 -4 -33 14 -33 8 0 7 3 -2 9 -11 7 -10 13 8 32
19 21 19 24 5 40 -17 19 -7 52 18 62 9 4 7 6 -3 6 -22 1 -43 27 -29 36 6 3 8
11 5 16 -4 5 -1 9 5 9 7 0 9 -8 5 -20 -4 -14 -1 -22 12 -27 10 -4 21 -11 24
-16 3 -5 9 -2 12 7 4 9 3 15 -1 15 -4 -1 -14 -1 -23 0 -21 1 -21 57 0 65 9 3
23 9 31 12 9 3 7 -2 -5 -13 -21 -19 -30 -53 -14 -53 5 0 9 8 9 19 0 22 23 44
36 33 4 -4 3 0 -2 8 -14 19 -14 52 0 47 6 -2 10 -13 8 -23 -2 -18 -2 -18 9 0
9 14 8 20 -2 27 -18 11 -35 5 -31 -11 2 -7 -3 -10 -11 -7 -9 3 -14 -1 -13 -10
0 -9 -4 -18 -10 -20 -15 -5 -10 37 5 46 7 5 12 10 10 12 -5 9 13 49 22 49 13
0 7 -23 -11 -38 -13 -11 -12 -12 5 -3 12 6 26 6 37 0 15 -8 17 -7 9 13 -4 13
-6 30 -4 38 4 12 3 13 -5 1 -5 -7 -15 -11 -21 -7 -12 8 16 76 31 76 5 0 7 4 3
9 -3 5 1 16 9 24 8 8 12 17 9 21 -4 3 1 6 10 6 10 0 16 -5 15 -12 -2 -7 9 -13
24 -13 15 -1 25 1 23 4 -3 2 4 15 16 27 13 14 17 24 10 29 -6 3 -11 11 -11 17
0 7 6 6 15 -2 10 -9 15 -9 15 -1 0 6 -4 11 -10 11 -5 0 -10 5 -10 11 0 6 6 9
14 6 19 -7 52 28 36 38 -6 4 -9 13 -6 21 3 9 0 11 -11 7 -10 -4 -14 -2 -9 5 3
6 2 13 -4 17 -6 4 -5 12 5 21 12 12 18 12 35 2 11 -7 20 -16 20 -21 0 -4 -4
-6 -9 -3 -5 3 -8 -6 -9 -19 0 -22 6 -18 34 27 20 31 32 59 28 68 -4 8 -6 23
-6 32 0 10 -3 20 -8 23 -4 3 -8 -14 -8 -38 1 -87 -3 -91 -43 -57 -23 19 -23
21 -6 34 9 7 17 18 17 25 0 6 5 11 10 11 6 0 9 3 8 8 -2 4 7 20 19 36 l22 28
29 -21 c28 -20 30 -20 46 -2 9 9 16 23 16 29 0 6 10 14 22 18 19 6 19 7 5 16
-10 5 -17 14 -17 19 0 6 4 7 10 4 5 -3 10 -1 10 4 0 6 -4 11 -8 11 -4 0 -8 14
-7 30 0 38 23 40 24 3 1 -69 1 -70 12 -51 5 10 10 21 10 25 1 12 31 43 38 39
3 -1 22 16 41 38 33 39 22 35 -25 -9 -32 -30 -64 -55 -71 -55 -3 0 -3 9 1 19
3 11 1 22 -5 26 -7 4 -2 15 12 30 17 17 26 21 35 13 7 -6 13 -15 13 -20 0 -6
-7 -5 -15 2 -9 7 -15 8 -15 2 0 -16 28 -22 39 -8 7 8 4 15 -10 24 -23 15 -25
32 -2 32 9 0 14 3 10 6 -8 8 44 64 60 64 8 0 12 4 9 9 -6 9 87 101 103 101 5
0 13 9 16 21 5 16 9 18 21 8 12 -10 19 -8 36 11 14 15 23 19 26 12 6 -19 40
-34 47 -22 4 6 3 10 -2 9 -19 -3 -34 2 -29 10 4 5 18 8 32 6 l25 -2 -22 23
c-12 13 -18 24 -12 24 6 0 16 -6 23 -14 13 -16 44 -10 33 7 -4 6 0 8 10 4 10
-4 16 -2 14 6 -1 7 6 11 16 11 15 -2 16 1 5 13 -11 14 -10 15 9 9 12 -4 24 -3
26 2 3 4 -4 8 -17 7 -12 0 -36 -14 -53 -32 -27 -27 -33 -30 -43 -18 -16 19
-22 19 -46 0 -18 -15 -18 -15 0 -13 10 2 21 -2 23 -8 2 -7 -6 -11 -19 -10 -13
1 -31 -2 -40 -6 -29 -14 -20 3 19 38 29 26 41 31 55 23 12 -6 25 -6 38 1 26
14 25 18 -6 18 -19 0 -23 -3 -13 -10 12 -8 11 -9 0 -6 -23 7 -23 22 0 36 12 8
18 9 15 4 -4 -6 5 -8 21 -6 16 3 44 6 63 8 54 5 56 6 38 17 -11 6 -25 6 -35 1
-10 -4 -28 -7 -40 -7 -12 1 -20 -2 -17 -6 3 -5 0 -9 -5 -9 -16 0 -13 14 7 30
44 38 95 72 88 62 -4 -7 -2 -12 3 -12 6 0 11 7 11 16 0 8 5 12 10 9 6 -4 8
-11 5 -16 -4 -5 -1 -9 5 -9 7 0 9 8 5 19 -3 10 1 24 10 31 8 7 15 9 15 4 0 -4
6 1 14 12 14 18 15 18 26 -6 l10 -25 -5 27 c-4 23 0 30 27 45 18 9 39 16 46
15 7 -2 11 1 10 5 -2 4 2 9 7 11 6 2 18 11 28 19 9 9 17 13 17 10 0 -4 19 6
42 22 38 26 76 32 62 10 -3 -5 1 -6 9 -3 8 3 20 -3 28 -12 12 -15 12 -16 -10
-9 -21 6 -22 5 -10 -8 12 -13 17 -12 42 5 15 11 27 17 27 13 0 -3 5 -3 10 0 8
5 7 11 -1 21 -13 16 2 19 18 3 7 -7 10 -4 10 13 1 41 3 49 12 44 5 -4 8 -17 7
-30 -2 -15 2 -23 10 -22 22 3 28 15 10 22 -9 3 -14 10 -11 14 3 4 -1 13 -8 19
-10 7 -18 5 -30 -9 -9 -11 -12 -20 -7 -20 6 0 10 -4 10 -8 0 -18 -45 -5 -48
14 -2 14 -1 16 6 6 7 -11 10 -9 15 7 3 12 9 21 14 20 4 -1 24 5 44 14 20 9 42
17 50 19 8 2 17 7 20 11 3 5 12 9 20 11 8 1 24 7 36 14 12 7 28 12 35 12 7 0
26 7 42 15 16 9 31 13 34 10 3 -3 16 2 30 11 13 8 30 13 38 10 8 -3 14 0 14 6
0 6 3 8 6 5 4 -3 15 -2 25 4 27 14 57 -4 54 -34 -2 -15 2 -24 11 -24 9 0 11 4
4 12 -5 7 -7 15 -3 18 3 4 -1 15 -11 26 -16 18 -16 19 11 24 15 3 33 1 40 -5
7 -5 16 -7 21 -4 6 3 15 -1 21 -8 8 -10 9 -16 1 -21 -5 -3 -10 -1 -10 4 0 6
-5 11 -11 11 -5 0 -7 -4 -4 -10 3 -5 2 -10 -4 -10 -5 0 -11 3 -14 8 -2 4 -2 1
0 -7 2 -8 -2 -11 -12 -7 -8 3 -15 1 -15 -4 0 -13 16 -13 41 0 14 8 19 7 19 -2
0 -7 7 -2 16 10 8 12 20 22 26 22 7 0 6 -6 -2 -15 -9 -10 -9 -15 -1 -15 6 0
11 5 11 11 0 5 5 7 11 4 6 -4 5 2 -2 13 -11 17 -16 19 -28 9 -12 -10 -14 -9
-8 5 3 10 1 20 -5 24 -6 4 -8 3 -5 -3 4 -6 -4 -10 -19 -10 -34 0 -15 19 23 23
15 1 42 6 58 10 17 4 40 8 53 8 12 1 22 4 22 8 0 4 8 7 18 6 9 0 32 3 50 5 26
5 32 3 28 -8 -2 -7 2 -19 10 -26 8 -7 12 -19 9 -27 -4 -12 -2 -12 8 -4 8 7 18
8 22 4 5 -4 4 -1 0 7 -6 11 -4 13 10 7 18 -6 18 -6 2 12 -19 21 -13 32 15 32
10 0 18 4 18 10 0 5 -7 6 -17 3 -11 -4 -14 -3 -9 5 4 6 21 10 39 8 18 -2 40 0
51 6 14 8 17 7 13 -4 -2 -7 -10 -12 -16 -10 -8 1 -9 -2 -5 -10 5 -7 9 -19 11
-27 1 -7 7 -19 14 -25 9 -8 10 -8 5 1 -3 6 -2 14 4 18 5 3 10 0 10 -7 0 -8 5
-6 11 5 5 9 15 17 21 17 7 0 7 -4 0 -13 -8 -10 -6 -13 7 -13 12 0 17 5 13 15
-4 10 -2 12 9 5 8 -5 24 -9 36 -9 17 -1 20 2 12 16 -12 24 -11 29 4 23 7 -2
21 3 32 11 19 15 19 16 -4 5 -18 -9 -25 -9 -31 0 -5 8 -9 7 -14 -5 -5 -15 -9
-15 -22 -4 -15 12 -15 14 5 19 12 3 38 5 57 6 28 1 34 -2 28 -15z m296 4 c15
-18 -1 -20 -19 -2 -11 10 -13 10 -7 0 8 -14 -10 -18 -18 -4 -14 22 26 28 44 6z
m44 4 c-2 -4 16 -5 41 -3 35 4 45 1 45 -11 0 -8 0 -18 1 -22 0 -4 -4 -9 -9
-11 -6 -2 -9 5 -8 14 1 19 -39 30 -49 13 -5 -7 -11 -7 -20 1 -14 11 -25 -5
-31 -45 -1 -11 0 -14 3 -7 4 10 8 10 19 1 10 -8 14 -8 14 0 0 6 -1 13 -2 14
-2 2 3 11 10 20 15 17 55 19 49 2 -2 -5 -13 -9 -23 -8 -10 1 -13 0 -6 -3 6 -3
12 -10 12 -15 0 -6 -4 -8 -9 -4 -5 3 -12 2 -15 -3 -2 -4 6 -8 19 -8 15 0 21 5
18 13 -4 9 0 11 11 7 9 -3 13 -11 10 -16 -4 -7 0 -7 12 0 26 13 87 8 92 -8 3
-8 0 -10 -8 -5 -9 6 -11 4 -6 -4 6 -9 12 -9 25 3 10 9 20 13 23 10 4 -3 9 4
13 16 4 12 4 24 1 27 -3 4 -6 -1 -6 -10 0 -9 -5 -17 -11 -17 -6 0 -8 7 -5 16
3 9 2 12 -5 9 -6 -4 -8 -14 -5 -22 4 -9 1 -13 -6 -10 -7 2 -12 12 -12 21 1 9
-2 16 -7 16 -5 0 -9 -6 -9 -14 0 -21 -39 -15 -46 6 -3 10 -10 16 -15 13 -5 -4
-9 -2 -9 4 0 5 5 13 10 16 6 3 10 2 10 -2 0 -5 12 -9 28 -10 64 -1 98 -8 110
-23 12 -13 13 -13 9 1 -4 12 1 15 21 11 15 -3 33 -9 40 -15 11 -9 11 -13 -3
-23 -10 -8 -12 -14 -6 -19 6 -3 11 -11 11 -18 0 -8 -3 -8 -12 1 -15 15 -28 16
-28 2 0 -5 3 -9 8 -9 4 1 9 0 12 -1 18 -6 45 -8 54 -2 21 13 38 11 32 -4 -3
-9 -1 -12 5 -9 5 4 18 1 27 -7 15 -11 15 -11 5 3 -10 12 -9 20 3 37 8 12 11
22 5 22 -5 0 -13 -9 -16 -20 -4 -11 -11 -17 -17 -14 -6 4 -6 10 1 17 6 6 11
16 11 21 0 6 -7 1 -15 -11 -8 -12 -22 -20 -30 -19 -19 3 -32 16 -15 16 7 0 10
3 7 6 -4 4 -13 1 -22 -6 -9 -8 -15 -8 -15 -2 0 6 5 14 10 17 6 4 8 11 5 16 -4
5 1 9 10 9 9 0 14 -4 10 -9 -3 -5 7 -8 22 -7 15 2 52 -3 83 -11 30 -7 64 -15
75 -17 11 -2 32 -8 46 -14 15 -6 30 -8 35 -4 4 4 4 2 1 -4 -4 -7 5 -11 24 -11
16 0 35 -6 42 -13 10 -10 8 -12 -8 -6 -16 6 -18 5 -7 -5 9 -10 15 -10 24 -1
20 20 32 13 13 -8 -14 -15 -22 -17 -37 -9 -14 8 -25 6 -44 -6 -28 -18 -32 -30
-6 -17 9 4 28 7 42 6 14 -1 31 3 38 8 8 7 12 7 12 0 0 -6 -6 -15 -14 -19 -12
-7 -11 -10 2 -23 14 -13 15 -12 9 3 -8 21 6 22 27 1 17 -17 19 -14 10 10 -3 9
-10 14 -14 11 -4 -3 -10 4 -13 14 -7 29 17 33 69 11 25 -11 50 -20 55 -20 6 0
29 -9 52 -21 23 -11 50 -22 61 -24 30 -7 76 -29 76 -38 0 -5 4 -6 8 -3 5 3 23
-4 40 -15 18 -10 39 -19 46 -19 8 0 14 -11 14 -25 0 -13 -5 -23 -11 -22 -6 1
-12 -7 -14 -18 -2 -15 -1 -16 5 -5 4 8 16 17 27 18 18 4 18 2 -5 -25 -14 -15
-21 -25 -16 -20 5 4 18 0 28 -10 10 -9 18 -13 18 -9 0 4 7 0 16 -9 12 -12 19
-13 30 -4 7 6 19 7 25 3 8 -4 9 -3 5 4 -4 7 -5 12 -2 12 2 0 13 3 23 7 15 6
16 4 5 -9 -10 -13 -10 -17 3 -22 9 -3 13 -10 10 -16 -3 -5 -1 -10 4 -10 14 0
14 17 1 25 -5 3 -10 11 -10 17 0 6 9 3 20 -7 11 -10 17 -22 14 -26 -3 -5 0 -9
5 -9 22 0 11 23 -26 54 -22 18 -23 18 -57 -2 -20 -12 -38 -17 -41 -12 -3 5 4
11 15 15 11 3 20 11 20 17 0 7 -5 6 -14 -1 -20 -17 -58 -23 -53 -8 2 7 12 12
22 12 10 0 19 8 21 18 1 9 -2 15 -7 11 -5 -3 -6 -10 -3 -16 5 -7 2 -9 -8 -5
-9 3 -21 0 -27 -6 -6 -6 -13 -8 -17 -5 -3 4 3 12 14 19 20 12 20 13 0 29 -20
15 -20 16 1 17 12 1 19 -2 16 -8 -4 -5 3 -9 15 -9 11 0 23 -6 26 -14 3 -8 12
-12 20 -9 10 4 12 0 7 -13 -5 -15 -4 -17 8 -8 11 9 24 5 56 -16 23 -15 39 -31
35 -35 -4 -5 1 -5 10 -2 10 3 20 2 23 -4 4 -5 24 -18 46 -30 40 -20 50 -47 20
-57 -8 -3 -11 0 -7 6 3 5 -1 13 -10 16 -8 3 -12 11 -8 17 4 8 3 9 -4 5 -7 -4
-12 -3 -12 2 0 5 -11 14 -25 20 -40 18 -44 14 -7 -8 38 -24 40 -27 7 -27 -13
0 -23 5 -22 11 1 6 -15 11 -40 11 -34 1 -40 -2 -31 -13 6 -7 14 -9 17 -4 7 10
51 14 50 4 -4 -26 2 -34 16 -22 17 14 21 0 5 -16 -8 -8 -5 -15 7 -25 16 -12
17 -12 6 2 -11 13 -10 19 5 33 18 15 32 13 32 -6 0 -5 -4 -7 -9 -3 -17 10 -20
-10 -5 -35 7 -14 13 -20 14 -14 0 13 50 16 50 3 0 -9 -16 -13 -35 -9 -5 1 -6
-2 -2 -6 14 -14 35 -12 41 3 9 23 -2 33 -35 29 -18 -2 -28 1 -26 7 2 6 14 11
26 12 28 2 84 -42 77 -61 -6 -17 23 -34 50 -29 10 2 22 4 27 4 4 1 7 5 7 10 0
10 -26 9 -36 -2 -14 -14 -26 -7 -14 8 9 10 9 15 1 15 -6 0 -11 -4 -11 -10 0
-5 -4 -10 -10 -10 -6 0 -5 10 2 25 6 14 15 25 20 25 5 0 6 -5 2 -12 -5 -7 -2
-9 8 -6 8 3 28 -6 45 -21 16 -14 45 -37 63 -51 105 -79 221 -190 213 -203 -3
-5 -1 -7 4 -4 11 7 142 -125 218 -217 35 -43 36 -48 21 -59 -11 -8 -15 -19
-10 -30 6 -17 24 -14 24 4 0 6 -4 7 -10 4 -5 -3 -10 -2 -10 3 0 6 7 12 15 15
19 8 78 -62 69 -83 -4 -8 -6 -22 -5 -30 1 -8 2 -24 2 -35 1 -11 3 -14 6 -7 6
16 24 16 21 0 -2 -7 7 -13 19 -14 12 -1 20 2 17 7 -2 4 -11 6 -19 3 -10 -4
-13 0 -10 16 3 15 0 20 -9 17 -9 -4 -13 3 -13 19 0 13 3 21 7 19 13 -8 82
-116 77 -121 -2 -2 -10 2 -17 11 -7 8 -17 15 -23 15 -6 0 -2 -7 9 -15 18 -14
18 -15 -5 -12 -13 1 -25 -4 -27 -11 -1 -7 0 -8 3 -2 9 19 21 10 21 -15 0 -19
-4 -23 -13 -15 -9 8 -14 6 -19 -6 -6 -16 8 -33 26 -34 7 0 39 -54 38 -65 -1
-24 2 -27 12 -11 8 15 8 21 0 24 -18 6 -14 18 6 19 9 1 28 3 42 5 19 2 29 -5
47 -37 24 -42 31 -71 10 -44 -17 22 -57 43 -57 29 0 -5 5 -10 10 -10 6 0 20
-9 32 -20 12 -10 24 -17 29 -15 11 7 81 -134 75 -151 -3 -7 -1 -13 5 -11 13 3
99 -196 102 -234 1 -15 5 -25 10 -22 4 2 8 -3 8 -11 2 -19 4 -26 12 -46 19
-43 52 -178 43 -173 -6 4 -5 -1 2 -10 16 -19 37 -112 57 -247 4 -25 8 -56 10
-70 10 -69 27 -249 29 -312 0 -21 4 -38 9 -38 4 0 7 -5 7 -11 0 -5 -5 -7 -11
-3 -8 5 -8 1 0 -14 10 -20 8 -323 -3 -382 -2 -14 -7 -52 -11 -85 -20 -178 -89
-458 -161 -652 -62 -167 -153 -360 -174 -368 -8 -3 -11 -3 -8 0 6 6 -184 159
-492 399 -36 28 -70 55 -76 61 -6 5 -94 76 -195 156 -101 80 -341 271 -534
423 -192 153 -365 290 -384 305 -141 111 -441 352 -441 354 0 1 -11 76 -24
167 -14 91 -27 183 -30 205 -3 22 -15 101 -26 175 -52 356 -123 839 -140 960
-10 74 -44 306 -75 515 -85 576 -93 645 -81 646 6 1 18 2 26 3 8 0 14 8 13 16
-2 10 5 16 16 16 11 0 18 -3 15 -7z m-494 -14 c0 -8 4 -15 10 -15 5 0 7 6 4
13 -3 8 2 14 11 14 9 0 14 -6 11 -14 -3 -8 -1 -11 4 -8 6 3 19 0 31 -8 14 -11
17 -17 9 -22 -7 -4 -15 -3 -19 3 -5 8 -56 10 -56 3 0 -2 -9 -4 -21 -6 -13 -3
-21 1 -21 10 0 17 8 19 25 5 9 -7 9 -7 2 2 -5 7 -10 18 -10 25 0 7 5 13 10 13
6 0 10 -7 10 -15z m-150 -17 c0 -7 -33 -28 -46 -28 -3 0 -1 6 5 13 6 8 8 17 5
20 -4 3 3 5 15 4 11 -1 21 -5 21 -9z m647 -13 c0 -8 -4 -15 -8 -15 -11 0 -20
16 -12 24 11 11 20 7 20 -9z m108 -5 c-3 -5 -11 -10 -16 -10 -6 0 -7 5 -4 10
3 6 11 10 16 10 6 0 7 -4 4 -10z m-765 -20 c0 -5 -4 -10 -10 -10 -5 0 -10 5
-10 10 0 6 5 10 10 10 6 0 10 -4 10 -10z m1005 -30 c3 -5 1 -10 -4 -10 -6 0
-11 5 -11 10 0 6 2 10 4 10 3 0 8 -4 11 -10z m-1878 -196 c-3 -3 4 -16 17 -28
12 -11 20 -20 17 -19 -2 2 -10 -2 -17 -8 -9 -8 -21 -4 -43 12 -37 27 -34 38 3
13 15 -9 30 -14 33 -10 4 4 -3 9 -15 13 -29 7 -28 33 1 33 6 0 8 -3 4 -6z
m3071 -250 c2 -1 0 -10 -5 -19 -9 -15 -13 -13 -35 14 -14 16 -29 27 -32 23 -4
-3 -4 1 0 11 6 17 13 14 72 -29z m-3718 -194 c0 -5 -4 -10 -10 -10 -5 0 -10 5
-10 10 0 6 5 10 10 10 6 0 10 -4 10 -10z m-335 -352 c-2 -18 2 -39 8 -47 9
-11 9 -13 0 -8 -8 5 -15 -1 -19 -17 -9 -36 -30 -52 -42 -31 -5 9 -13 16 -18
15 -21 -4 -11 20 27 68 24 29 43 52 45 52 1 0 0 -15 -1 -32z m4852 -304 c27
-47 28 -51 8 -51 -9 0 -14 6 -11 13 2 6 -2 20 -10 31 -15 17 -15 17 -6 -1 5
-10 7 -27 5 -37 -6 -23 -41 -21 -49 3 -3 10 -12 18 -19 18 -8 0 -17 5 -21 12
-5 7 -2 9 9 5 8 -3 21 1 27 8 7 8 16 12 21 9 5 -3 9 0 9 6 0 7 -8 9 -22 4 -20
-6 -21 -5 -10 9 20 24 45 14 69 -29z m-5062 26 c-3 -5 3 -17 14 -27 15 -12 17
-20 10 -29 -6 -7 -16 -11 -23 -8 -6 2 -20 -3 -31 -12 -11 -8 -13 -12 -5 -8 12
7 12 4 -2 -16 -9 -14 -23 -24 -32 -24 -13 2 -14 -1 -5 -12 10 -12 14 -11 26 6
8 11 19 18 24 14 6 -3 -2 -17 -16 -30 -26 -24 -46 -31 -44 -16 3 20 -2 32 -12
26 -15 -9 4 25 28 51 11 11 20 23 21 27 9 28 15 37 24 32 5 -3 1 -12 -9 -21
-17 -13 -17 -14 2 -5 11 5 26 7 34 4 7 -2 4 5 -8 17 -21 21 -21 41 0 41 6 0 7
-4 4 -10z m-145 -310 c0 -5 -2 -10 -4 -10 -3 0 -8 5 -11 10 -3 6 -1 10 4 10 6
0 11 -4 11 -10z m-106 -203 c-3 -9 -11 -17 -17 -17 -6 0 0 -11 13 -25 13 -14
19 -25 14 -25 -18 0 -33 16 -39 43 -6 22 -4 27 11 28 11 0 14 3 6 6 -6 2 -9 9
-6 15 10 15 26 -6 18 -25z m-49 -96 c-3 -11 -1 -22 5 -26 8 -5 6 -13 -6 -26
-29 -33 -38 -23 -21 24 4 9 9 24 12 32 2 8 7 15 10 15 4 0 4 -9 0 -19z m6125
-21 c0 -5 -4 -10 -10 -10 -5 0 -10 5 -10 10 0 6 5 10 10 10 6 0 10 -4 10 -10z
m20 -50 c0 -5 -4 -10 -10 -10 -5 0 -10 5 -10 10 0 6 5 10 10 10 6 0 10 -4 10
-10z m-6170 -114 c0 -3 -4 -8 -10 -11 -5 -3 -10 -1 -10 4 0 6 5 11 10 11 6 0
10 -2 10 -4z m-53 -196 c12 -25 0 -46 -19 -33 -5 2 -16 -1 -25 -9 -15 -12 -15
-11 -4 10 6 12 8 22 4 22 -4 0 2 7 13 16 10 8 13 13 7 9 -7 -3 -13 -1 -13 5 0
19 24 5 37 -20z m-47 -336 c0 -8 -5 -12 -10 -9 -6 4 -8 11 -5 16 9 14 15 11
15 -7z m6398 -124 c3 -7 0 -10 -7 -6 -17 11 -13 -5 5 -19 14 -10 12 -12 -15
-12 -20 0 -27 3 -19 9 10 6 10 8 -2 9 -10 0 -11 2 -2 6 6 2 12 11 12 20 0 17
22 13 28 -7z m-28 -431 c0 -5 -4 -9 -10 -9 -5 0 -10 7 -10 16 0 8 5 12 10 9 6
-3 10 -10 10 -16z m-6833 -84 c0 -8 -4 -12 -9 -9 -5 3 -6 10 -3 15 9 13 12 11
12 -6z m3998 -481 c319 -129 615 -249 657 -266 43 -17 75 -34 73 -38 -3 -5 5
-6 17 -2 11 3 19 1 16 -4 -4 -5 5 -10 19 -11 14 0 29 -6 33 -13 4 -6 9 -11 11
-9 7 4 139 -43 139 -50 0 -4 10 -8 22 -8 13 -1 24 -7 26 -13 2 -5 8 -8 13 -4
5 3 9 -3 9 -13 0 -13 2 -15 9 -5 6 11 15 9 45 -7 20 -11 36 -17 36 -13 0 4 7
-2 15 -12 8 -11 15 -14 15 -7 0 7 5 9 10 6 6 -4 8 -9 6 -13 -2 -4 10 -8 27 -8
17 -1 36 -9 44 -20 10 -13 13 -14 13 -3 1 11 4 10 14 -3 7 -10 16 -15 19 -11
4 3 7 2 7 -3 0 -5 11 -10 25 -10 13 -1 31 -9 40 -17 9 -9 22 -14 29 -11 8 3
17 0 21 -5 3 -6 10 -9 15 -6 5 3 12 0 16 -6 5 -8 3 -9 -6 -4 -8 5 -11 4 -6 -3
4 -6 14 -8 23 -5 10 4 14 2 10 -4 -5 -7 0 -9 12 -6 11 3 21 -2 25 -12 3 -9 11
-13 17 -9 6 3 15 0 20 -7 7 -12 9 -12 9 0 0 11 4 10 14 -4 15 -20 50 -31 40
-12 -4 7 3 2 15 -10 12 -13 32 -24 44 -25 12 0 28 -2 35 -2 8 -1 20 -10 28
-20 9 -13 14 -15 14 -6 0 9 4 8 14 -5 8 -12 20 -16 34 -13 13 4 20 2 19 -6 -1
-6 8 -10 20 -10 13 1 20 -3 17 -7 -3 -5 4 -9 15 -9 10 0 21 -5 23 -10 2 -6 13
-12 26 -13 12 0 22 -4 22 -7 0 -10 -95 -146 -153 -220 -160 -203 -370 -410
-572 -561 -78 -59 -260 -179 -270 -179 -5 0 -16 -6 -24 -14 -29 -24 -193 -106
-331 -165 -213 -91 -458 -165 -647 -195 -16 -2 -48 -8 -73 -11 -25 -4 -54 -9
-64 -11 -141 -26 -605 -26 -796 1 -28 4 -58 9 -180 31 -286 51 -654 189 -916
344 -100 59 -278 179 -309 208 -11 10 -27 23 -36 28 -39 22 -128 108 -122 117
3 6 1 7 -6 3 -7 -5 -33 14 -66 47 -30 30 -55 53 -55 50 0 -2 -11 8 -24 24 -13
15 -49 54 -80 87 -31 32 -53 63 -50 68 3 4 0 7 -8 6 -7 -2 -12 3 -10 10 1 8
-2 11 -7 7 -6 -3 -18 7 -28 22 -10 15 -22 31 -28 35 -5 4 -6 8 -1 8 4 0 -2 9
-15 20 -13 10 -20 19 -15 20 5 0 -3 10 -18 21 -15 12 -25 28 -22 35 3 8 0 13
-7 11 -7 -1 -11 4 -9 11 1 6 -2 12 -7 12 -14 0 -93 119 -86 130 3 5 0 10 -7
11 -7 0 -4 4 7 9 14 5 24 3 34 -9 13 -15 13 -15 7 2 -4 14 4 22 42 38 60 26
1254 508 1737 701 83 33 169 69 192 79 24 10 45 19 48 19 4 0 25 8 48 18 23
11 122 50 219 88 l178 69 1 40 c4 103 11 115 18 31 l6 -68 580 -234z m2815
248 c0 -14 -23 -32 -39 -31 -11 0 -12 2 -3 6 6 2 9 10 6 15 -4 7 -2 8 4 4 7
-4 12 -2 12 3 0 6 5 11 10 11 6 0 10 -4 10 -8z m-6667 -524 c-12 -15 -13 -49
-2 -42 5 2 6 11 2 19 -3 8 0 15 7 15 6 0 8 -4 5 -10 -3 -5 -1 -10 6 -10 8 0 7
-5 -2 -17 -8 -9 -9 -14 -3 -10 6 3 16 -4 22 -17 9 -20 8 -25 -5 -30 -17 -7
-56 22 -47 35 3 5 0 18 -6 30 -9 17 -8 24 6 40 19 21 33 18 17 -3z m6487 -98
c0 -5 -4 -10 -9 -10 -6 0 -13 5 -16 10 -3 6 1 10 9 10 9 0 16 -4 16 -10z
m-5930 -70 c0 -5 -2 -10 -4 -10 -3 0 -8 5 -11 10 -3 6 -1 10 4 10 6 0 11 -4
11 -10z m-383 -281 c2 -17 -1 -18 -13 -9 -17 15 -18 30 -1 30 7 0 13 -9 14
-21z m103 -185 c0 -8 -5 -12 -10 -9 -6 4 -8 11 -5 16 9 14 15 11 15 -7z m5790
-244 c-8 -5 -17 -7 -19 -4 -3 3 1 9 9 14 8 5 17 7 19 4 3 -3 -1 -9 -9 -14z
m-200 -261 c-6 -11 -8 -24 -5 -29 3 -6 2 -10 -4 -10 -5 0 -12 4 -16 9 -7 13
16 62 26 55 5 -3 4 -14 -1 -25z m-4629 -516 c0 -5 2 -18 5 -30 2 -13 2 -23 -1
-23 -9 0 -55 43 -55 52 0 10 50 11 51 1z m27 -60 c-6 -7 -15 -13 -20 -13 -6 0
-6 6 1 14 6 8 11 18 10 22 -4 21 3 27 10 9 5 -11 4 -25 -1 -32z m132 -53 c7 0
10 -7 6 -16 -4 -10 1 -25 10 -35 10 -11 13 -19 7 -19 -14 0 -47 39 -40 47 4 3
-2 13 -13 20 -11 8 -17 19 -14 25 5 7 11 5 19 -5 7 -10 18 -17 25 -17z m3676
-52 c-1 -26 -27 -31 -34 -8 -5 13 -3 13 13 0 11 -9 16 -10 11 -2 -4 6 -4 17
-1 22 9 15 12 12 11 -12z m-3416 -138 c0 -5 -7 -10 -16 -10 -8 0 -12 5 -9 10
3 6 10 10 16 10 5 0 9 -4 9 -10z m275 -128 c-12 -12 -33 -10 -28 3 2 8 11 11
19 8 8 -3 12 -8 9 -11z m315 -82 c0 -5 -2 -10 -4 -10 -3 0 -8 5 -11 10 -3 6
-1 10 4 10 6 0 11 -4 11 -10z m97 -23 c11 0 27 -26 21 -33 -9 -9 -58 -11 -52
-3 3 6 -2 20 -13 31 -18 20 -18 21 7 13 14 -5 30 -8 37 -8z m1703 -57 c0 -5
-4 -10 -10 -10 -5 0 -10 5 -10 10 0 6 5 10 10 10 6 0 10 -4 10 -10z m-125 -30
c3 -5 1 -10 -4 -10 -6 0 -11 5 -11 10 0 6 2 10 4 10 3 0 8 -4 11 -10z m-1155
-40 c-8 -5 -18 -6 -24 -3 -5 4 -1 10 10 13 24 9 34 2 14 -10z m460 0 c0 -5 -5
-10 -11 -10 -5 0 -7 5 -4 10 3 6 8 10 11 10 2 0 4 -4 4 -10z m85 -21 c-3 -4
-20 -12 -37 -18 -33 -11 -33 -11 -11 7 20 18 57 26 48 11z"/>
<path d="M2970 6436 c0 -16 -2 -17 -17 -5 -14 12 -16 12 -8 0 5 -9 2 -19 -11
-29 -16 -12 -16 -14 -2 -9 10 4 21 0 26 -10 8 -14 10 -14 15 1 4 9 11 16 17
16 6 0 8 -6 4 -12 -5 -10 -4 -10 6 -1 19 18 3 30 -19 16 -11 -7 -22 -9 -25 -5
-4 3 2 11 13 17 15 7 18 14 11 25 -8 13 -10 12 -10 -4z"/>
<path d="M3103 6437 c-3 -5 -12 -6 -21 -2 -14 5 -14 3 1 -13 9 -10 14 -23 10
-27 -5 -5 -1 -4 8 3 9 6 20 8 24 4 5 -4 5 -2 2 5 -4 6 0 18 8 27 14 13 13 15
-6 13 -11 -1 -23 -5 -26 -10z m9 -19 c-7 -7 -12 -8 -12 -2 0 14 12 26 19 19 2
-3 -1 -11 -7 -17z"/>
<path d="M2851 6411 c-11 -11 -23 -16 -27 -13 -3 4 -2 -3 5 -15 6 -12 17 -25
24 -29 9 -5 9 -4 0 7 -21 22 -15 34 7 14 20 -18 21 -18 14 1 -7 18 -7 18 13 1
16 -14 23 -15 29 -6 5 8 3 10 -6 4 -9 -5 -10 -2 -6 11 12 39 -23 55 -53 25z
m49 -11 c0 -4 -11 -7 -25 -7 -26 0 -34 12 -12 20 15 5 37 -2 37 -13z"/>
<path d="M2915 6420 c3 -5 8 -10 11 -10 2 0 4 5 4 10 0 6 -5 10 -11 10 -5 0
-7 -4 -4 -10z"/>
<path d="M3140 6420 c0 -5 5 -10 11 -10 5 0 7 5 4 10 -3 6 -8 10 -11 10 -2 0
-4 -4 -4 -10z"/>
<path d="M2701 6381 c-8 -5 -9 -11 -3 -15 5 -3 12 1 16 9 6 17 6 18 -13 6z"/>
<path d="M2601 6351 c-8 -5 -9 -11 -3 -15 5 -3 12 1 16 9 6 17 6 18 -13 6z"/>
<path d="M2623 6333 c-15 -14 -21 -24 -12 -20 9 3 22 0 28 -6 6 -6 12 -9 12
-6 3 9 5 59 2 59 -1 0 -15 -12 -30 -27z m27 -14 c0 -6 -4 -7 -10 -4 -5 3 -10
11 -10 16 0 6 5 7 10 4 6 -3 10 -11 10 -16z"/>
<path d="M2526 6319 c-34 -40 -33 -47 9 -46 23 1 31 5 25 11 -18 18 -10 29 9
12 14 -13 21 -14 27 -5 5 8 3 10 -6 4 -9 -5 -10 -2 -6 11 6 21 -2 38 -21 41
-6 2 -23 -11 -37 -28z m54 -1 c0 -6 -6 -8 -14 -5 -8 3 -20 0 -26 -8 -8 -10 -8
-14 2 -18 7 -3 3 -4 -9 -4 -22 1 -21 9 4 39 15 17 43 14 43 -4z"/>
<path d="M2485 6310 c-3 -11 -11 -20 -16 -20 -14 0 -11 -26 5 -39 10 -8 16 -9
21 -1 4 6 1 9 -6 8 -6 -2 -14 3 -17 11 -3 9 0 11 9 6 8 -5 11 -4 6 0 -4 5 0
19 8 32 9 13 11 23 6 23 -5 0 -13 -9 -16 -20z"/>
<path d="M2416 6292 c17 -12 23 -39 11 -51 -14 -14 -47 -14 -47 0 0 6 7 9 15
6 21 -9 30 13 11 29 -9 8 -11 9 -6 2 15 -18 12 -32 -4 -19 -10 9 -15 8 -20 -4
-15 -40 17 -51 55 -18 10 8 19 11 21 6 3 -4 3 -1 1 7 -3 8 -5 20 -6 25 -2 12
-18 25 -32 25 -6 0 -6 -3 1 -8z"/>
<path d="M2355 6270 c-3 -5 -1 -10 4 -10 6 0 11 5 11 10 0 6 -2 10 -4 10 -3 0
-8 -4 -11 -10z"/>
<path d="M2326 6235 c-22 -16 -40 -20 -32 -7 3 5 -1 9 -9 9 -10 0 -10 -5 3
-23 20 -28 34 -31 26 -6 -5 16 -5 16 9 0 8 -10 18 -18 22 -18 4 0 1 7 -6 16
-11 14 -10 18 6 30 10 8 15 14 9 14 -5 0 -18 -7 -28 -15z"/>
<path d="M2350 6221 c0 -5 5 -13 10 -16 6 -3 10 -2 10 4 0 5 -4 13 -10 16 -5
3 -10 2 -10 -4z"/>
<path d="M2080 6140 c-8 -5 -10 -10 -5 -10 6 0 17 5 25 10 8 5 11 10 5 10 -5
0 -17 -5 -25 -10z"/>
<path d="M2042 6109 c-9 -13 -19 -18 -30 -14 -14 5 -14 4 -5 -6 16 -16 83 -22
83 -8 0 6 -5 7 -11 3 -7 -4 -10 -1 -7 7 3 8 13 14 23 14 10 0 20 6 22 13 3 6
0 12 -7 12 -6 0 -8 -5 -4 -12 5 -8 2 -9 -9 -5 -9 3 -19 2 -22 -3 -10 -16 -25
-11 -19 5 9 22 1 18 -14 -6z m13 -19 c3 -5 -1 -10 -10 -10 -9 0 -13 5 -10 10
3 6 8 10 10 10 2 0 7 -4 10 -10z"/>
<path d="M1970 6086 c0 -2 11 -11 25 -20 14 -9 25 -13 25 -8 0 5 -11 14 -25
20 -14 6 -25 10 -25 8z"/>
<path d="M2108 6083 c7 -3 16 -2 19 1 4 3 -2 6 -13 5 -11 0 -14 -3 -6 -6z"/>
<path d="M1919 6048 c-10 -6 -7 -7 9 -3 16 5 22 2 22 -9 0 -9 6 -16 13 -16 8
0 7 -4 -3 -10 -22 -15 -30 -12 -23 7 4 10 -7 2 -24 -17 l-32 -35 -9 24 c-6 17
-10 20 -14 10 -2 -8 4 -22 14 -31 10 -10 18 -13 18 -7 0 6 7 9 14 6 11 -4 13
-1 9 11 -3 9 -3 14 2 10 4 -4 22 0 39 9 17 10 34 17 38 18 3 0 10 4 15 9 5 5
3 6 -5 2 -9 -6 -12 -3 -10 10 2 14 -4 18 -28 20 -18 1 -38 -3 -45 -8z m65 -13
c-4 -8 -10 -12 -15 -9 -11 6 -2 24 11 24 5 0 7 -7 4 -15z"/>
<path d="M2026 6044 c-5 -14 -4 -15 9 -4 17 14 19 20 6 20 -5 0 -12 -7 -15
-16z"/>
<path d="M1897 6025 c3 -8 9 -12 14 -9 12 7 11 11 -5 17 -10 4 -13 1 -9 -8z"/>
<path d="M1833 5972 c0 -12 5 -18 11 -15 5 4 7 0 4 -9 -4 -9 0 -15 8 -15 19 0
18 10 -5 36 -19 22 -20 22 -18 3z"/>
<path d="M1739 5929 c-8 -5 -9 -9 -4 -10 6 0 1 -4 -10 -9 -16 -7 -17 -9 -3 -9
9 -1 21 6 26 15 8 15 12 14 31 -5 12 -12 26 -19 32 -16 15 10 0 25 -19 18 -14
-6 -15 -4 -5 8 9 11 7 14 -12 15 -12 1 -29 -2 -36 -7z"/>
<path d="M1810 5936 c0 -2 7 -9 15 -16 13 -11 14 -10 9 4 -5 14 -24 23 -24 12z"/>
<path d="M1546 5734 c-10 -27 7 -43 25 -24 15 16 15 18 -2 28 -13 9 -19 8 -23
-4z m24 -8 c0 -3 -4 -8 -10 -11 -5 -3 -10 -1 -10 4 0 6 5 11 10 11 6 0 10 -2
10 -4z"/>
<path d="M1510 5710 c0 -5 5 -10 11 -10 5 0 7 5 4 10 -3 6 -8 10 -11 10 -2 0
-4 -4 -4 -10z"/>
<path d="M1480 5700 c-13 -8 -13 -10 -1 -10 8 0 23 -8 34 -17 11 -10 17 -13
14 -6 -4 6 -4 13 0 16 5 2 2 2 -4 1 -7 -2 -16 3 -20 11 -6 10 -13 11 -23 5z"/>
<path d="M1433 5673 c-17 -14 -17 -14 1 -5 25 12 59 3 52 -14 -3 -8 0 -11 10
-7 10 4 12 9 4 18 -17 20 -48 24 -67 8z"/>
<path d="M1436 5645 c-17 -17 -30 -20 -21 -5 3 6 1 10 -5 10 -7 0 -10 -6 -7
-12 2 -7 11 -13 21 -13 9 0 21 -7 26 -15 6 -9 10 -10 10 -3 0 6 -5 15 -12 19
-7 5 -5 11 7 21 11 7 14 13 8 13 -7 0 -18 -7 -27 -15z"/>
<path d="M1467 5625 c3 -8 9 -12 14 -9 12 7 11 11 -5 17 -10 4 -13 1 -9 -8z"/>
<path d="M1384 5618 c4 -13 -4 -22 -29 -32 -32 -14 -52 -32 -22 -20 18 6 19
-32 1 -46 -7 -7 -21 -10 -29 -6 -9 3 -13 2 -10 -4 9 -15 26 -12 47 7 17 15 21
15 30 3 8 -12 9 -12 4 3 -3 9 -1 17 5 17 6 0 7 5 3 11 -4 8 -9 7 -15 -2 -5 -8
-9 -12 -10 -9 0 3 -2 13 -4 23 -2 12 1 17 10 13 7 -2 16 2 19 10 7 17 33 19
38 2 3 -8 6 -7 10 3 4 10 -1 15 -15 16 -11 1 -24 8 -30 15 -6 9 -7 8 -3 -4z"/>
<path d="M1395 5580 c-4 -6 -3 -16 3 -22 13 -13 23 4 13 21 -7 10 -10 10 -16
1z"/>
<path d="M1313 5535 c0 -8 4 -12 9 -9 4 3 8 9 8 15 0 5 -4 9 -8 9 -5 0 -9 -7
-9 -15z"/>
<path d="M1247 5455 c3 -8 9 -12 14 -9 12 7 11 11 -5 17 -10 4 -13 1 -9 -8z"/>
<path d="M1085 5280 c-3 -6 1 -7 10 -4 10 4 14 1 12 -7 -2 -8 -2 -11 0 -6 8
13 25 7 20 -7 -4 -11 -1 -13 10 -9 14 5 13 9 -7 25 -25 20 -36 22 -45 8z"/>
<path d="M1101 5233 c-1 -17 16 -25 25 -12 4 7 3 9 -4 5 -5 -3 -13 0 -15 6 -4
9 -6 10 -6 1z"/>
<path d="M1042 5210 c-14 -23 -16 -33 -3 -26 5 4 11 0 13 -6 3 -7 5 2 5 20 0
17 -1 32 -1 32 -1 0 -7 -9 -14 -20z"/>
<path d="M1005 5140 c3 -5 8 -10 11 -10 2 0 4 5 4 10 0 6 -5 10 -11 10 -5 0
-7 -4 -4 -10z"/>
<path d="M865 4930 c-3 -6 1 -7 9 -4 9 3 16 1 16 -4 0 -6 -9 -14 -20 -17 -22
-7 -48 -45 -30 -45 5 0 10 6 10 13 0 8 12 19 26 26 23 10 25 9 19 -8 -3 -11
-1 -22 4 -26 7 -3 8 0 5 9 -4 9 -1 16 6 16 10 0 10 3 0 15 -7 8 -9 15 -4 15
10 0 -17 20 -28 20 -4 0 -10 -4 -13 -10z"/>
<path d="M920 4919 c0 -5 5 -7 10 -4 6 3 10 8 10 11 0 2 -4 4 -10 4 -5 0 -10
-5 -10 -11z"/>
<path d="M869 4878 c-6 -15 -5 -69 2 -74 5 -3 6 1 3 9 -3 8 -1 18 5 22 6 3 11
11 11 16 0 6 -5 7 -12 3 -8 -5 -9 -2 -5 9 3 10 4 17 2 17 -3 0 -5 -1 -6 -2z"/>
<path d="M756 4594 c-10 -25 1 -29 14 -5 6 12 7 21 1 21 -5 0 -12 -7 -15 -16z"/>
<path d="M644 4391 c4 -6 2 -20 -5 -29 -11 -14 -11 -15 1 -4 19 16 30 15 30
-3 0 -8 4 -15 8 -15 18 0 8 26 -16 45 -14 10 -22 13 -18 6z"/>
<path d="M615 4160 c3 -5 11 -10 16 -10 6 0 7 5 4 10 -3 6 -11 10 -16 10 -6 0
-7 -4 -4 -10z"/>
<path d="M605 4060 c3 -5 8 -10 11 -10 2 0 4 5 4 10 0 6 -5 10 -11 10 -5 0 -7
-4 -4 -10z"/>
<path d="M584 4041 c4 -5 0 -11 -6 -14 -7 -3 -3 -4 8 -4 21 1 23 27 2 27 -5 0
-7 -4 -4 -9z"/>
<path d="M554 4011 c4 -6 16 -16 28 -22 12 -7 18 -7 14 -1 -3 6 -1 13 4 15 6
3 5 4 -2 3 -7 -2 -21 1 -32 6 -13 7 -16 7 -12 -1z"/>
<path d="M565 3975 c11 -9 19 -19 17 -23 -2 -3 1 -7 8 -8 6 -2 7 -1 0 3 -5 2
-8 9 -5 13 3 5 -5 14 -17 20 -22 11 -22 11 -3 -5z"/>
<path d="M550 3930 c0 -5 5 -10 10 -10 6 0 10 5 10 10 0 6 -4 10 -10 10 -5 0
-10 -4 -10 -10z"/>
<path d="M581 3914 c0 -11 3 -14 6 -6 3 7 2 16 -1 19 -3 4 -6 -2 -5 -13z"/>
<path d="M542 3885 c-7 -15 -8 -25 -2 -25 6 0 10 7 10 15 0 8 5 15 10 15 6 0
9 -5 8 -11 -2 -6 4 -14 12 -16 12 -4 12 -3 2 5 -8 5 -13 12 -13 16 5 34 -12
35 -27 1z"/>
<path d="M558 3716 c-22 -16 -23 -23 -3 -23 8 0 13 3 10 5 -3 3 0 11 6 19 14
16 9 16 -13 -1z"/>
<path d="M524 3680 c1 -8 11 -16 23 -16 13 -1 20 2 17 7 -2 4 -11 6 -18 3 -8
-3 -16 0 -19 8 -3 9 -4 8 -3 -2z"/>
<path d="M517 3643 c-8 -12 20 -26 34 -17 12 7 11 24 -2 24 -5 0 -7 -4 -4 -10
3 -5 2 -10 -4 -10 -5 0 -11 5 -13 12 -3 8 -6 9 -11 1z"/>
<path d="M522 3599 c10 -7 10 -9 -1 -9 -8 0 -12 -3 -9 -6 4 -3 19 1 35 9 l28
16 -33 -1 c-22 -1 -29 -4 -20 -9z"/>
<path d="M525 3553 c-15 -22 -15 -30 -5 -46 7 -12 8 -22 2 -26 -5 -3 0 -13 12
-22 22 -17 22 -16 20 20 -2 50 -3 51 -15 51 -8 0 -7 -6 2 -17 12 -14 12 -16
-1 -11 -22 7 -19 43 3 42 15 -2 16 1 5 14 -11 13 -10 15 5 9 11 -4 16 -3 12 3
-10 16 -22 12 -40 -17z m25 -73 c0 -5 -5 -10 -11 -10 -5 0 -7 5 -4 10 3 6 8
10 11 10 2 0 4 -4 4 -10z"/>
<path d="M514 3431 c0 -11 4 -17 8 -15 4 3 8 12 8 20 0 8 -4 14 -8 14 -4 0 -8
-9 -8 -19z"/>
<path d="M523 3285 c-3 -9 -3 -19 1 -22 3 -4 6 1 6 10 0 20 11 22 30 5 12 -11
12 -10 1 5 -17 21 -30 22 -38 2z"/>
<path d="M540 3265 c0 -6 5 -16 12 -23 14 -14 -3 -16 -20 -2 -9 7 -9 7 -2 -2
14 -16 13 -31 -2 -22 -7 4 -8 3 -4 -4 8 -14 42 4 51 26 2 7 1 10 -4 7 -6 -3
-14 3 -20 12 -6 10 -11 13 -11 8z"/>
<path d="M540 3184 c-7 -8 -8 -14 -3 -14 13 0 13 -32 -1 -49 -7 -9 -1 -8 17 3
15 10 27 23 27 30 0 6 -5 4 -10 -4 -5 -8 -10 -13 -11 -10 0 3 -2 16 -5 29 -4
20 -2 22 11 11 9 -7 15 -8 15 -2 0 17 -28 22 -40 6z"/>
<path d="M552 3108 c-13 -13 -16 -38 -4 -38 11 1 47 30 36 30 -6 0 -15 -5 -22
-12 -7 -7 -12 -8 -12 -2 0 6 5 15 12 22 7 7 10 12 7 12 -3 0 -10 -5 -17 -12z"/>
<path d="M575 3070 c-3 -5 -1 -10 4 -10 6 0 11 5 11 10 0 6 -2 10 -4 10 -3 0
-8 -4 -11 -10z"/>
<path d="M626 2857 c3 -10 9 -15 12 -12 3 3 0 11 -7 18 -10 9 -11 8 -5 -6z"/>
<path d="M645 2760 c3 -5 8 -10 11 -10 2 0 4 5 4 10 0 6 -5 10 -11 10 -5 0 -7
-4 -4 -10z"/>
<path d="M657 2602 c10 -7 17 -21 15 -30 -2 -13 -1 -14 6 -3 7 9 12 10 16 2 4
-6 0 -14 -9 -17 -14 -6 -13 -10 7 -32 17 -19 19 -24 6 -19 -12 4 -15 2 -11 -9
4 -10 9 -12 16 -5 5 5 16 7 23 4 8 -3 14 0 14 7 0 6 -4 9 -9 6 -13 -9 -44 31
-35 46 22 36 8 62 -34 63 -22 1 -23 0 -5 -13z m38 -2 c3 -5 2 -10 -4 -10 -5 0
-13 5 -16 10 -3 6 -2 10 4 10 5 0 13 -4 16 -10z"/>
<path d="M710 2541 c0 -6 4 -13 10 -16 6 -3 7 1 4 9 -7 18 -14 21 -14 7z"/>
<path d="M766 2341 c-4 -6 -2 -11 3 -11 6 0 11 -5 11 -11 0 -6 -7 -8 -16 -5
-14 6 -15 4 -4 -9 12 -15 14 -15 22 -1 11 19 -5 55 -16 37z"/>
<path d="M827 2256 c-4 -10 -3 -15 3 -11 6 3 10 -2 11 -12 0 -10 3 -13 5 -6 3
7 1 20 -4 29 -8 15 -9 15 -15 0z"/>
<path d="M3643 6435 c0 -8 4 -12 9 -9 4 3 8 9 8 15 0 5 -4 9 -8 9 -5 0 -9 -7
-9 -15z"/>
<path d="M3987 6431 c2 -9 -2 -11 -14 -7 -9 4 -20 1 -25 -6 -14 -23 -8 -32 8
-12 13 16 15 16 10 2 -3 -10 0 -20 6 -24 6 -4 8 -3 4 4 -3 6 5 19 19 30 14 11
25 23 25 27 0 4 -6 2 -14 -4 -8 -7 -16 -8 -18 -4 -3 4 -3 2 -1 -6z"/>
<path d="M4149 6394 c-7 -9 -7 -18 0 -31 7 -13 10 -14 11 -4 0 11 4 9 14 -4
14 -19 15 -19 33 -2 27 24 40 22 18 -3 -10 -11 -13 -20 -7 -20 6 0 13 6 15 13
4 9 8 8 16 -3 6 -9 11 -10 11 -3 0 6 -11 25 -25 41 -26 32 -67 39 -86 16z m67
-6 c8 -9 -14 -38 -29 -38 -5 0 -2 10 9 22 10 13 12 18 4 12 -24 -18 -64 -11
-45 7 7 8 52 5 61 -3z"/>
<path d="M4258 6375 c11 -14 18 -35 16 -48 -2 -13 -1 -16 3 -7 3 8 13 20 21
26 18 13 6 38 -14 30 -8 -3 -14 -1 -14 3 0 5 -7 12 -16 15 -12 5 -11 0 4 -19z
m42 -15 c0 -5 -4 -10 -10 -10 -5 0 -10 5 -10 10 0 6 5 10 10 10 6 0 10 -4 10
-10z"/>
<path d="M4323 6347 c-18 -12 -33 -26 -33 -30 0 -4 16 4 35 19 19 14 35 28 35
30 0 6 -2 5 -37 -19z"/>
<path d="M4456 6318 c10 -13 24 -26 29 -30 6 -5 6 -8 -1 -8 -7 0 -14 -6 -17
-13 -3 -8 1 -14 8 -14 8 0 13 5 12 10 -1 5 4 12 11 14 8 3 10 -2 6 -14 -5 -15
-4 -15 5 -3 5 8 13 11 17 7 4 -3 2 -13 -4 -20 -9 -10 -8 -14 2 -14 9 0 13 9
11 24 -1 13 5 28 14 33 9 5 11 10 4 10 -6 0 -15 -4 -18 -10 -3 -5 -11 -10 -17
-10 -6 0 -5 7 3 18 13 15 12 16 -4 3 -16 -13 -21 -12 -43 12 -30 33 -45 36
-18 5z"/>
<path d="M4565 6282 c-13 -9 -16 -64 -3 -56 5 3 7 12 4 20 -3 7 2 20 10 29 16
15 7 21 -11 7z"/>
<path d="M4606 6266 c6 -16 -10 -23 -19 -8 -2 4 -2 1 0 -7 2 -7 -2 -20 -8 -27
-6 -8 -7 -14 -3 -14 5 0 15 9 22 20 7 11 17 20 23 20 8 0 7 -5 -1 -15 -8 -9
-8 -15 -2 -15 6 0 12 6 15 13 2 6 8 9 12 5 12 -11 -14 -38 -31 -31 -8 3 -14 3
-14 0 0 -3 6 -7 14 -10 8 -3 26 8 42 25 16 18 20 29 11 25 -9 -3 -27 3 -41 14
-20 16 -24 17 -20 5z"/>
<path d="M4690 6241 c0 -9 30 -24 36 -18 2 1 -6 8 -16 15 -11 7 -20 8 -20 3z"/>
<path d="M4656 6201 c-11 -14 -16 -23 -11 -19 4 4 15 2 24 -5 14 -10 14 -10 4
4 -7 9 -10 19 -6 22 9 9 23 9 22 0 -5 -30 2 -35 21 -18 25 22 26 9 3 -19 -18
-21 -18 -21 3 -3 23 19 45 24 26 5 -7 -7 -12 -16 -12 -22 0 -5 7 -1 16 10 15
18 15 18 9 -3 -4 -13 -2 -23 3 -23 5 0 9 8 8 18 -1 23 -34 68 -42 59 -4 -4
-17 -1 -28 7 -19 12 -23 11 -40 -13z"/>
<path d="M4769 6187 c12 -13 20 -30 18 -38 -2 -8 -2 -10 1 -5 2 4 8 3 11 -3 5
-7 12 -3 19 13 10 22 9 24 -9 21 -15 -3 -19 0 -15 10 3 9 0 12 -10 8 -7 -3
-14 0 -14 6 0 6 -5 11 -12 11 -6 0 -2 -11 11 -23z"/>
<path d="M4795 6110 c3 -5 8 -10 11 -10 2 0 4 5 4 10 0 6 -5 10 -11 10 -5 0
-7 -4 -4 -10z"/>
<path d="M4935 6040 c3 -5 8 -10 11 -10 2 0 4 5 4 10 0 6 -5 10 -11 10 -5 0
-7 -4 -4 -10z"/>
<path d="M4960 6040 c0 -5 5 -10 10 -10 6 0 10 5 10 10 0 6 -4 10 -10 10 -5 0
-10 -4 -10 -10z"/>
<path d="M5020 5986 c0 -2 7 -9 15 -16 9 -7 15 -8 15 -2 0 5 -7 12 -15 16 -8
3 -15 4 -15 2z"/>
<path d="M5189 5889 c-6 -12 -7 -19 -1 -15 5 3 18 -5 28 -19 10 -13 22 -21 26
-19 5 3 -3 14 -16 25 -15 12 -23 26 -19 34 8 23 -5 18 -18 -6z"/>
<path d="M5300 5850 c-7 -4 -20 -6 -29 -2 -9 3 -12 1 -8 -3 4 -5 25 -10 46
-11 47 -2 92 -29 84 -51 -4 -11 -2 -14 5 -9 21 13 13 31 -23 50 -19 10 -33 22
-30 25 6 10 -29 11 -45 1z"/>
<path d="M5255 5820 c3 -5 11 -10 16 -10 6 0 7 5 4 10 -3 6 -11 10 -16 10 -6
0 -7 -4 -4 -10z"/>
<path d="M5315 5798 c14 -11 30 -16 37 -12 8 5 9 2 4 -12 -4 -10 -4 -15 0 -11
4 4 13 2 21 -5 16 -13 66 8 57 24 -3 5 -12 1 -19 -8 -15 -21 -50 -11 -41 12 3
8 2 13 -3 9 -5 -3 -11 0 -13 7 -3 7 -19 13 -36 14 l-32 2 25 -20z m35 2 c0 -5
-4 -10 -10 -10 -5 0 -10 5 -10 10 0 6 5 10 10 10 6 0 10 -4 10 -10z"/>
<path d="M5280 5797 c0 -2 14 -13 30 -25 17 -13 30 -19 30 -14 0 4 -13 16 -30
25 -16 10 -30 16 -30 14z"/>
<path d="M5432 5754 c-26 -18 -48 -54 -32 -54 5 0 10 7 10 15 0 17 16 20 25 5
4 -6 14 -9 22 -8 9 2 18 -2 20 -8 4 -12 -25 -12 -44 -1 -6 4 -13 0 -16 -8 -4
-10 -1 -12 10 -8 12 5 14 3 8 -8 -8 -12 -6 -12 8 0 10 8 21 11 24 7 4 -4 3
-10 -2 -14 -15 -11 -17 -32 -2 -29 6 1 11 -4 9 -11 -1 -8 2 -11 7 -8 5 4 11 0
13 -6 3 -7 5 2 5 20 0 20 -3 28 -8 20 -11 -17 -21 -5 -13 16 3 9 11 13 18 9 6
-4 3 5 -6 20 -21 31 -23 41 -6 31 7 -4 8 -3 4 4 -4 6 -13 9 -21 6 -8 -4 -12
-11 -9 -16 4 -6 1 -9 -6 -6 -20 6 -24 28 -6 28 9 0 16 5 16 10 0 13 -2 13 -28
-6z"/>
<path d="M5350 5739 c0 -5 5 -7 10 -4 6 3 10 -2 10 -12 0 -15 2 -16 10 -3 6 9
5 17 -3 22 -17 11 -27 10 -27 -3z"/>
<path d="M5500 5723 c0 -15 18 -35 23 -27 3 5 -1 15 -9 22 -8 7 -14 9 -14 5z"/>
<path d="M5533 5660 c0 -16 5 -30 10 -30 6 0 7 3 4 7 -4 3 -2 12 4 20 9 10 8
13 0 13 -7 0 -9 5 -6 10 3 6 2 10 -3 10 -5 0 -9 -13 -9 -30z"/>
<path d="M5513 5654 c0 -17 2 -22 7 -13 5 6 6 18 3 26 -8 19 -10 16 -10 -13z"/>
<path d="M5560 5640 c0 -5 5 -10 10 -10 6 0 10 5 10 10 0 6 -4 10 -10 10 -5 0
-10 -4 -10 -10z"/>
<path d="M5510 5608 c0 -5 4 -7 9 -4 5 3 12 -1 15 -10 9 -25 7 -27 -11 -13
-11 7 -9 3 3 -10 18 -19 25 -21 40 -12 17 11 16 11 -6 5 -20 -5 -23 -4 -13 7
17 17 54 19 60 2 3 -7 9 -11 13 -8 5 3 -2 17 -16 30 -26 27 -44 34 -25 11 9
-11 6 -13 -14 -13 -18 0 -23 3 -16 11 6 8 2 11 -15 12 -13 1 -24 -2 -24 -8z"/>
<path d="M5610 5611 c0 -10 19 -25 25 -20 1 2 -3 10 -11 17 -8 7 -14 8 -14 3z"/>
<path d="M5640 5565 c-11 -13 -11 -18 0 -28 10 -10 12 -9 7 4 -3 9 0 22 6 28
6 6 8 11 5 11 -3 0 -11 -7 -18 -15z"/>
<path d="M5575 5548 c-11 -12 -14 -18 -7 -14 7 4 15 1 18 -8 3 -9 10 -16 16
-16 5 0 6 5 3 10 -3 6 -2 10 3 10 16 0 22 -13 12 -25 -8 -9 -6 -14 5 -19 10
-3 13 -11 9 -18 -4 -7 -4 -10 0 -6 4 3 24 -5 44 -18 20 -14 43 -22 51 -18 9 3
21 7 28 8 29 5 20 13 -14 13 -68 1 -70 2 -70 26 0 15 6 23 18 24 18 2 22 -16
6 -28 -4 -3 7 -6 25 -6 18 0 27 2 20 5 -6 2 -10 8 -7 13 4 5 -2 6 -12 2 -16
-6 -16 -5 -4 11 12 15 12 17 0 14 -8 -2 -13 3 -11 10 1 6 -4 11 -10 10 -7 -2
-12 2 -11 9 1 6 -4 14 -12 17 -9 3 -12 0 -8 -9 8 -22 -27 -32 -42 -12 -9 13
-14 14 -24 4 -11 -10 -12 -8 -6 11 8 27 6 27 -20 0z m115 -39 c0 -5 -3 -8 -7
-8 -27 4 -35 -1 -23 -16 7 -8 8 -15 2 -15 -10 0 -38 29 -31 33 46 26 59 28 59
6z"/>
<path d="M5666 5419 c3 -5 12 -9 20 -9 8 0 13 -4 10 -9 -3 -4 6 -13 19 -19 15
-7 25 -8 25 -2 0 6 -6 10 -14 10 -8 0 -16 6 -19 14 -3 7 -15 16 -26 19 -12 3
-19 1 -15 -4z"/>
<path d="M5735 5410 c-3 -5 0 -7 9 -4 12 4 14 0 10 -21 -3 -15 -1 -24 4 -21
15 9 11 56 -4 56 -7 0 -16 -4 -19 -10z"/>
<path d="M5785 5393 c4 -16 0 -26 -14 -35 -12 -7 -21 -17 -21 -22 0 -4 7 -3
15 4 18 15 20 0 3 -20 -11 -13 -11 -13 2 -2 19 17 35 15 21 -2 -10 -11 -9 -21
2 -42 12 -22 15 -24 20 -10 4 9 3 15 -2 12 -10 -7 -25 24 -16 33 3 3 11 -1 16
-9 9 -12 9 -11 4 5 -10 28 -8 59 5 63 5 2 10 8 10 14 0 6 -7 5 -16 -3 -15 -12
-16 -11 -11 11 4 14 4 19 1 11 -5 -11 -8 -11 -16 0 -7 10 -7 7 -3 -8z m15 -39
c0 -8 -5 -12 -10 -9 -6 4 -8 11 -5 16 9 14 15 11 15 -7z"/>
<path d="M5848 5308 c-22 -22 -23 -29 -3 -22 8 4 15 1 15 -5 0 -6 -6 -11 -14
-11 -20 0 -27 -13 -14 -30 8 -12 9 -11 4 4 -5 13 -2 17 8 13 17 -7 28 16 19
41 -5 16 -5 16 12 0 15 -14 16 -20 5 -33 -10 -12 -10 -19 -2 -27 7 -7 12 -15
12 -19 0 -13 -38 -17 -51 -5 -11 9 -11 8 0 -6 7 -10 19 -14 29 -11 15 6 16 5
2 -13 -14 -18 -14 -18 4 -4 18 14 19 13 13 -2 -3 -10 0 -23 7 -30 7 -7 11 -20
8 -28 -3 -8 7 -2 21 15 19 21 23 31 14 37 -17 11 -27 10 -27 -3 0 -5 5 -7 10
-4 6 3 10 2 10 -4 0 -16 -17 -22 -27 -8 -5 6 -8 26 -8 42 1 17 -2 35 -6 40 -4
6 -4 17 1 25 13 20 13 24 -7 47 -17 18 -19 18 -35 1z"/>
<path d="M5850 5230 c0 -5 5 -10 11 -10 5 0 7 5 4 10 -3 6 -8 10 -11 10 -2 0
-4 -4 -4 -10z"/>
<path d="M6040 5010 c-8 -5 -12 -10 -7 -10 4 0 0 -14 -9 -31 -8 -17 -11 -28
-6 -25 12 7 25 -22 15 -36 -3 -6 -1 -8 4 -5 6 4 11 27 10 52 -1 54 4 60 35 45
22 -11 22 -10 4 4 -23 19 -26 19 -46 6z"/>
<path d="M6060 4939 c0 -5 4 -8 9 -4 11 6 51 -46 51 -66 0 -7 3 -9 7 -6 3 4 0
19 -8 35 -21 40 -59 67 -59 41z"/>
<path d="M6068 4912 c8 -5 13 -13 12 -18 -1 -5 4 -10 12 -12 11 -3 11 -2 0 6
-8 5 -13 13 -12 18 1 5 -4 10 -12 12 -11 3 -11 2 0 -6z"/>
<path d="M6130 4911 c0 -6 4 -13 10 -16 6 -3 7 1 4 9 -7 18 -14 21 -14 7z"/>
<path d="M6050 4891 c0 -6 4 -13 10 -16 6 -3 7 1 4 9 -7 18 -14 21 -14 7z"/>
<path d="M6150 4875 c0 -5 5 -17 10 -25 5 -8 10 -10 10 -5 0 6 -5 17 -10 25
-5 8 -10 11 -10 5z"/>
<path d="M6100 4855 c8 -9 9 -15 2 -15 -6 0 -14 5 -17 10 -3 6 -11 10 -18 10
-6 0 -2 -7 9 -15 21 -14 60 -13 73 1 3 4 -2 4 -12 1 -11 -4 -20 -1 -23 8 -4 8
-11 15 -16 15 -6 0 -5 -6 2 -15z"/>
<path d="M6139 4828 c-4 -15 -6 -50 -3 -41 3 7 5 15 4 19 -1 4 4 11 12 15 10
7 10 9 1 9 -7 0 -13 -1 -14 -2z"/>
<path d="M6110 4785 c0 -5 5 -17 10 -25 5 -8 10 -10 10 -5 0 6 -5 17 -10 25
-5 8 -10 11 -10 5z"/>
<path d="M6150 4780 c0 -5 7 -7 15 -4 8 4 15 8 15 10 0 2 -7 4 -15 4 -8 0 -15
-4 -15 -10z"/>
<path d="M6180 4760 c8 -5 20 -10 25 -10 6 0 3 5 -5 10 -8 5 -19 10 -25 10 -5
0 -3 -5 5 -10z"/>
<path d="M6152 4741 c-11 -7 -11 -9 0 -14 9 -3 15 1 15 9 0 8 -1 14 -1 14 -1
0 -7 -4 -14 -9z"/>
<path d="M6233 4687 c0 -8 6 -14 14 -14 9 0 10 4 2 14 -6 7 -12 13 -14 13 -1
0 -2 -6 -2 -13z"/>
<path d="M6190 4660 c14 -9 7 -14 -13 -11 -5 1 -5 -3 -2 -9 5 -8 13 -6 26 6
23 21 24 19 -3 21 -18 2 -20 0 -8 -7z"/>
<path d="M6230 4578 c0 -4 4 -8 9 -8 6 0 12 4 15 8 3 5 -1 9 -9 9 -8 0 -15 -4
-15 -9z"/>
<path d="M6273 4552 c2 -12 6 -24 10 -28 3 -4 4 4 2 16 -6 30 -16 40 -12 12z"/>
<path d="M6290 4419 c0 -5 5 -7 10 -4 6 3 10 8 10 11 0 2 -4 4 -10 4 -5 0 -10
-5 -10 -11z"/>
<path d="M6335 4420 c3 -5 8 -10 11 -10 2 0 4 5 4 10 0 6 -5 10 -11 10 -5 0
-7 -4 -4 -10z"/>
<path d="M6274 4382 c4 -3 14 -7 22 -8 9 -1 13 0 10 4 -4 3 -14 7 -22 8 -9 1
-13 0 -10 -4z"/>
<path d="M5216 5947 c3 -10 9 -15 12 -12 3 3 0 11 -7 18 -10 9 -11 8 -5 -6z"/>
<path d="M1164 5373 c-4 -10 -6 -25 -5 -32 2 -12 0 -13 -12 -3 -12 10 -16 10
-20 -2 -4 -10 -1 -13 9 -9 8 3 14 -1 14 -11 0 -22 15 -20 17 2 1 9 4 29 7 45
7 31 2 36 -10 10z"/>
<path d="M5984 5078 c-4 -6 -3 -8 4 -4 6 3 15 -2 21 -11 12 -20 14 -13 5 11
-7 19 -20 21 -30 4z"/>
<path d="M917 5023 c-4 -3 -7 -11 -7 -17 0 -6 5 -5 12 2 6 6 9 14 7 17 -3 3
-9 2 -12 -2z"/>
<path d="M585 4120 c-3 -5 -1 -10 4 -10 6 0 11 5 11 10 0 6 -2 10 -4 10 -3 0
-8 -4 -11 -10z"/>
<path d="M1040 1872 c0 -7 -5 -11 -12 -9 -6 1 -14 -6 -16 -15 -2 -10 1 -18 7
-18 6 0 7 7 4 17 -4 10 -2 14 5 9 12 -7 28 12 18 21 -3 4 -6 1 -6 -5z"/>
<path d="M1050 1846 c0 -2 7 -7 16 -10 8 -3 12 -2 9 4 -6 10 -25 14 -25 6z"/>
<path d="M1048 1823 c6 -2 9 -10 6 -15 -4 -7 -2 -8 5 -4 13 9 5 26 -12 25 -9
0 -8 -2 1 -6z"/>
<path d="M1092 1801 c-11 -7 -11 -9 0 -14 9 -3 15 1 15 9 0 8 -1 14 -1 14 -1
0 -7 -4 -14 -9z"/>
<path d="M1106 1760 c6 -8 10 -27 9 -41 -1 -15 3 -26 11 -26 9 0 10 5 5 11 -5
6 -7 19 -6 28 2 9 -4 23 -13 30 -15 11 -15 11 -6 -2z"/>
<path d="M1164 1682 c23 -26 23 -26 23 -7 0 8 -3 13 -5 10 -3 -3 -12 1 -21 7
-10 8 -9 4 3 -10z"/>
<path d="M1233 1593 c0 -9 4 -10 14 -2 7 6 13 12 13 14 0 1 -6 2 -13 2 -8 0
-14 -6 -14 -14z"/>
<path d="M1290 1499 c0 -5 5 -7 10 -4 6 3 10 8 10 11 0 2 -4 4 -10 4 -5 0 -10
-5 -10 -11z"/>
<path d="M1333 1455 c0 -8 4 -12 9 -9 5 3 6 10 3 15 -9 13 -12 11 -12 -6z"/>
<path d="M240 2320 c20 -13 33 -13 25 0 -3 6 -14 10 -23 10 -15 0 -15 -2 -2
-10z"/>
<path d="M1455 730 c3 -5 8 -10 11 -10 2 0 4 5 4 10 0 6 -5 10 -11 10 -5 0 -7
-4 -4 -10z"/>
<path d="M2570 190 c0 -5 5 -10 11 -10 5 0 7 5 4 10 -3 6 -8 10 -11 10 -2 0
-4 -4 -4 -10z"/>
<path d="M6513 5205 c0 -8 4 -12 9 -9 5 3 6 10 3 15 -9 13 -12 11 -12 -6z"/>
<path d="M6510 5156 c0 -2 8 -10 18 -17 15 -13 16 -12 3 4 -13 16 -21 21 -21
13z"/>
<path d="M6579 5073 c-12 -16 -12 -17 2 -6 9 7 20 9 24 5 5 -4 5 -1 1 6 -9 16
-11 15 -27 -5z"/>
<path d="M6602 5044 c10 -10 20 -16 22 -13 3 3 -5 11 -17 18 -21 13 -21 12 -5
-5z"/>
<path d="M6592 5011 c-11 -6 -10 -10 0 -19 11 -8 14 -7 14 9 0 10 0 19 -1 19
0 0 -6 -4 -13 -9z"/>
<path d="M6640 4970 c0 -5 -8 -7 -17 -3 -10 3 -15 3 -12 -1 4 -4 16 -8 27 -11
15 -2 19 0 15 11 -6 16 -13 19 -13 4z"/>
<path d="M6652 4931 c-11 -6 -10 -10 4 -15 9 -3 19 -4 22 -1 3 3 0 5 -7 5 -7
0 -9 5 -6 10 7 12 4 12 -13 1z"/>
<path d="M6660 4886 c0 -2 9 -6 20 -9 11 -3 18 -1 14 4 -5 9 -34 13 -34 5z"/>
<path d="M6670 4821 c0 -6 4 -13 10 -16 6 -3 7 1 4 9 -7 18 -14 21 -14 7z"/>
<path d="M6708 4803 c7 -3 16 -2 19 1 4 3 -2 6 -13 5 -11 0 -14 -3 -6 -6z"/>
<path d="M6690 4779 c0 -5 5 -7 10 -4 6 3 10 8 10 11 0 2 -4 4 -10 4 -5 0 -10
-5 -10 -11z"/>
<path d="M6719 4773 c-7 -10 -9 -15 -5 -11 5 4 15 0 23 -10 13 -15 13 -15 4 4
-6 12 -7 24 -4 28 3 3 4 6 1 6 -3 0 -12 -8 -19 -17z"/>
<path d="M6755 4700 c-3 -5 -1 -10 4 -10 6 0 11 5 11 10 0 6 -2 10 -4 10 -3 0
-8 -4 -11 -10z"/>
<path d="M6733 4656 c1 -1 17 -14 35 -30 33 -30 45 -31 15 -1 -12 13 -13 19
-4 24 7 4 -1 8 -19 8 -16 0 -29 -1 -27 -1z"/>
<path d="M6740 4627 c0 -3 11 -17 24 -30 16 -16 29 -21 38 -16 11 7 10 9 -1 9
-8 0 -25 10 -38 22 -13 12 -23 19 -23 15z"/>
<path d="M6775 4520 c-3 -6 1 -7 9 -4 18 7 21 14 7 14 -6 0 -13 -4 -16 -10z"/>
<path d="M6850 4420 c0 -5 -6 -10 -14 -10 -20 0 -29 -17 -15 -26 8 -4 9 -3 5
4 -4 7 -1 12 9 12 9 0 13 -4 10 -10 -4 -6 1 -7 11 -3 10 4 13 8 7 10 -7 3 -9
11 -6 19 3 8 2 14 -1 14 -3 0 -6 -4 -6 -10z"/>
<path d="M6829 4356 c6 -7 9 -22 5 -32 -3 -11 3 -5 14 11 10 17 17 32 15 35
-2 2 -8 -2 -13 -10 -7 -10 -10 -11 -10 -2 0 6 -5 12 -11 12 -8 0 -8 -4 0 -14z"/>
<path d="M6863 4332 c-9 -15 -7 -21 8 -30 12 -8 19 -8 19 -2 0 5 -5 10 -11 10
-6 0 -8 9 -4 20 8 25 3 26 -12 2z"/>
<path d="M6850 4291 c8 -6 15 -18 15 -28 0 -10 6 -17 14 -15 8 2 11 -3 8 -12
-4 -10 -1 -13 9 -9 12 4 10 11 -9 36 -13 17 -30 33 -38 35 -11 3 -11 1 1 -7z"/>
<path d="M6894 4205 c-4 -8 -10 -12 -15 -9 -5 3 -9 0 -9 -5 0 -21 33 -6 38 17
3 17 -7 15 -14 -3z"/>
<path d="M6914 4085 c-7 -16 2 -35 17 -35 5 0 9 5 9 11 0 5 -5 7 -12 3 -8 -5
-9 0 -6 14 7 25 0 30 -8 7z"/>
<path d="M6886 4061 c-4 -6 -2 -11 4 -11 6 0 8 -5 5 -10 -3 -6 1 -13 9 -16 9
-3 16 -10 16 -15 0 -4 -7 -6 -15 -3 -8 4 -15 2 -15 -3 0 -5 6 -10 13 -10 6 0
21 -4 32 -8 14 -5 16 -4 7 3 -8 5 -12 18 -10 28 2 14 -2 18 -16 16 -10 -2 -16
1 -13 5 3 5 2 15 -2 22 -6 9 -11 10 -15 2z"/>
<path d="M6924 3898 c-14 -22 -11 -67 5 -73 8 -3 22 2 30 12 15 16 15 16 -2 4
-21 -16 -24 -14 -31 22 -3 19 -1 27 7 24 7 -2 11 -11 9 -21 -3 -19 4 -21 11
-3 3 7 -1 21 -8 31 -10 13 -15 14 -21 4z"/>
<path d="M6951 3811 c-10 -7 -11 -13 -2 -30 14 -25 18 -26 18 -6 0 8 -5 15
-10 15 -5 0 -4 7 3 15 14 17 11 19 -9 6z"/>
<path d="M6943 3735 c-8 -22 5 -31 20 -15 9 10 9 11 0 6 -7 -4 -13 -3 -13 3 0
5 6 12 13 14 9 4 9 6 -1 6 -7 1 -15 -6 -19 -14z"/>
<path d="M6936 3599 c6 -11 44 -12 44 -1 0 4 -11 8 -25 8 -14 1 -22 -2 -19 -7z"/>
<path d="M6930 3572 c0 -8 37 -52 44 -52 1 0 2 13 2 29 0 17 -3 28 -7 25 -5
-2 -5 -12 -2 -22 6 -15 5 -15 -10 -3 -9 7 -14 17 -11 22 3 5 0 9 -5 9 -6 0
-11 -4 -11 -8z"/>
<path d="M6945 3502 c-14 -10 -17 -32 -5 -32 6 0 10 7 10 15 0 8 5 15 11 15 6
0 9 -7 5 -15 -3 -8 -1 -15 5 -15 13 0 8 32 -6 37 -5 1 -14 -1 -20 -5z"/>
<path d="M6939 3458 c-1 -2 -2 -15 -3 -30 -1 -17 2 -24 7 -19 5 5 16 7 23 4 8
-3 14 0 14 6 0 6 -3 10 -7 10 -19 -3 -33 2 -33 12 0 6 9 8 23 4 17 -5 19 -4 7
4 -14 10 -28 14 -31 9z"/>
<path d="M6943 3393 c-7 -2 -13 -9 -13 -15 0 -6 6 -5 15 2 9 7 19 9 23 5 4 -4
1 -10 -5 -12 -7 -3 -13 -10 -13 -16 0 -6 7 -4 16 5 24 24 9 44 -23 31z"/>
<path d="M6927 3336 c-4 -11 -1 -13 11 -9 15 6 15 5 3 -10 -7 -9 -9 -17 -3
-17 16 0 22 28 8 40 -10 8 -15 7 -19 -4z"/>
<path d="M6941 3269 c11 -11 20 -19 22 -19 1 0 3 8 4 19 1 13 -5 19 -21 19
-23 0 -23 -1 -5 -19z"/>
<path d="M6959 3238 c-5 -10 -7 -59 -3 -55 6 6 13 57 8 57 -2 0 -5 -1 -5 -2z"/>
<path d="M6923 3182 c-7 -5 -3 -11 13 -19 17 -8 26 -8 31 -1 3 7 1 8 -5 4 -6
-3 -14 0 -19 8 -5 8 -14 12 -20 8z"/>
<path d="M6910 3156 c0 -2 7 -9 15 -16 9 -7 15 -8 15 -2 0 5 -7 12 -15 16 -8
3 -15 4 -15 2z"/>
<path d="M6907 3116 c-4 -9 -3 -15 2 -12 11 7 8 -67 -4 -76 -5 -4 -7 -9 -5
-12 3 -2 16 4 30 15 14 11 18 17 10 14 -11 -4 -15 3 -17 22 -1 26 0 27 13 8 8
-10 14 -14 14 -8 0 7 -5 15 -11 18 -6 4 -8 14 -5 22 3 8 2 12 -3 8 -5 -3 -11
0 -13 7 -3 7 -7 5 -11 -6z"/>
<path d="M46 3102 c-3 -5 1 -9 9 -9 8 0 12 4 9 9 -3 4 -7 8 -9 8 -2 0 -6 -4
-9 -8z"/>
<path d="M56 3062 c-3 -5 1 -9 9 -9 8 0 12 4 9 9 -3 4 -7 8 -9 8 -2 0 -6 -4
-9 -8z"/>
<path d="M6929 3013 c-1 -5 -1 -12 0 -17 1 -5 -5 -6 -14 -2 -9 3 -13 2 -10 -4
3 -6 1 -10 -4 -10 -17 0 -13 -20 5 -27 8 -3 20 -1 26 5 8 8 4 9 -13 6 l-24 -6
25 21 c14 11 21 21 15 21 -5 0 -3 5 5 10 10 6 11 10 3 10 -7 0 -14 -3 -14 -7z"/>
<path d="M6870 2825 c-11 -13 -10 -14 4 -9 9 3 16 10 16 15 0 13 -6 11 -20 -6z"/>
<path d="M70 2826 c0 -2 7 -7 16 -10 8 -3 12 -2 9 4 -6 10 -25 14 -25 6z"/>
<path d="M6896 2813 c-4 -9 -3 -20 1 -24 4 -4 9 3 9 17 2 28 -1 31 -10 7z"/>
<path d="M6873 2745 c0 -31 4 -50 8 -44 4 7 5 19 1 27 -4 11 -1 13 9 7 11 -6
12 -5 2 6 -7 7 -13 17 -13 22 0 4 6 5 13 1 7 -5 7 -1 -3 12 -8 10 -15 20 -16
22 0 1 -1 -23 -1 -53z"/>
<path d="M93 2767 c0 -8 6 -14 14 -14 9 0 10 4 2 14 -6 7 -12 13 -14 13 -1 0
-2 -6 -2 -13z"/>
<path d="M110 2710 c-9 -6 -10 -10 -3 -10 6 0 15 5 18 10 8 12 4 12 -15 0z"/>
<path d="M6845 2710 c-8 -12 12 -40 28 -40 6 0 3 6 -8 13 -10 8 -15 19 -11 25
4 7 5 12 2 12 -3 0 -8 -5 -11 -10z"/>
<path d="M6829 2658 c-1 -7 0 -17 1 -23 3 -12 2 -19 -4 -62 -3 -18 -1 -35 4
-38 6 -4 7 1 3 11 -4 10 -2 15 4 11 5 -3 10 0 10 8 0 8 -4 12 -9 9 -15 -9 -8
14 9 32 10 9 18 24 18 33 0 26 -34 43 -36 19z m24 -38 c-7 -8 -22 24 -16 34 4
5 10 1 13 -10 4 -10 6 -21 3 -24z"/>
<path d="M136 2591 c-3 -4 6 -6 19 -3 14 2 25 6 25 8 0 8 -39 4 -44 -5z"/>
<path d="M6795 2541 c-3 -6 -1 -11 6 -11 7 0 4 -7 -7 -16 -18 -15 -18 -15 2
-5 12 6 25 7 30 3 5 -4 2 2 -6 13 -8 11 -15 21 -16 23 -1 2 -5 -1 -9 -7z"/>
<path d="M170 2520 c0 -5 5 -10 10 -10 6 0 10 5 10 10 0 6 -4 10 -10 10 -5 0
-10 -4 -10 -10z"/>
<path d="M156 2497 c3 -10 9 -15 12 -12 3 3 0 11 -7 18 -10 9 -11 8 -5 -6z"/>
<path d="M191 2490 c0 -8 3 -21 8 -28 7 -11 9 -10 14 3 4 9 3 13 -2 10 -5 -3
-12 3 -14 12 -3 13 -5 14 -6 3z"/>
<path d="M6790 2480 c-13 -11 -18 -20 -12 -20 6 0 14 5 18 11 4 8 9 7 16 -2 8
-11 9 -10 5 3 -3 9 -1 19 6 22 8 3 8 5 1 5 -6 1 -21 -8 -34 -19z"/>
<path d="M164 2459 c-4 -7 -3 -9 4 -5 5 3 13 0 15 -6 4 -9 6 -10 6 -1 1 17
-16 25 -25 12z"/>
<path d="M210 2440 c-9 -6 -10 -10 -3 -10 6 0 15 5 18 10 8 12 4 12 -15 0z"/>
<path d="M6765 2410 c3 -36 -6 -53 -18 -32 -2 4 -2 2 -1 -5 2 -7 -1 -15 -6
-18 -6 -4 -10 -11 -10 -16 0 -5 13 4 29 20 16 16 33 27 37 23 5 -4 1 2 -9 14
-10 12 -15 28 -11 38 3 9 2 16 -4 16 -6 0 -9 -18 -7 -40z"/>
<path d="M6793 2428 c-2 -18 0 -20 7 -8 12 18 13 30 2 30 -4 0 -9 -10 -9 -22z"/>
<path d="M180 2420 c0 -6 7 -10 15 -10 8 0 15 2 15 4 0 2 -7 6 -15 10 -8 3
-15 1 -15 -4z"/>
<path d="M6712 2226 c2 -10 -3 -21 -10 -23 -8 -3 -10 2 -6 14 5 15 4 15 -7 -2
-14 -22 -21 -43 -19 -62 0 -7 1 -21 2 -30 0 -10 -2 -27 -6 -38 -4 -11 0 -8 9
8 11 19 13 32 6 46 -13 24 9 58 30 46 8 -5 11 -5 7 0 -4 4 -4 13 2 19 5 7 5
17 -1 26 -8 12 -9 11 -7 -4z"/>
<path d="M290 2200 c-12 -7 -10 -9 7 -7 12 0 19 5 17 9 -6 10 -6 10 -24 -2z"/>
<path d="M301 2163 c12 -15 12 -16 -3 -10 -12 4 -15 2 -12 -8 5 -11 10 -12 24
-3 15 10 16 14 5 25 -19 19 -30 16 -14 -4z"/>
<path d="M6690 2155 c0 -8 2 -15 4 -15 2 0 6 7 10 15 3 8 1 15 -4 15 -6 0 -10
-7 -10 -15z"/>
<path d="M330 2126 c0 -8 -5 -18 -12 -22 -8 -5 -9 -1 -4 12 5 14 4 16 -5 7
-11 -11 -5 -33 10 -33 4 0 13 11 19 25 7 15 8 25 2 25 -6 0 -10 -6 -10 -14z"/>
<path d="M6616 2064 c-9 -8 -14 -19 -11 -24 8 -13 44 -8 50 7 3 10 0 11 -15 3
-31 -16 -37 -11 -11 10 13 11 19 20 13 20 -6 0 -18 -7 -26 -16z"/>
<path d="M332 2039 c6 -16 12 -28 14 -26 5 5 -13 57 -20 57 -3 0 0 -14 6 -31z"/>
<path d="M6577 1963 c-10 -10 -8 -23 4 -23 5 0 7 5 3 12 -5 8 -2 9 10 5 10 -4
15 -3 11 3 -7 12 -19 13 -28 3z"/>
<path d="M6590 1930 c-8 -5 -12 -12 -9 -15 4 -3 12 1 19 10 14 17 11 19 -10 5z"/>
<path d="M391 1913 c7 -12 15 -20 18 -17 3 2 -3 12 -13 22 -17 16 -18 16 -5
-5z"/>
<path d="M6550 1900 c-7 -17 -20 -35 -29 -40 -14 -8 -14 -9 2 -10 9 0 17 -5
17 -11 0 -6 -8 -8 -19 -4 -11 3 -23 0 -27 -6 -4 -8 -3 -9 5 -5 6 4 18 3 25 -3
16 -14 29 9 20 34 -4 10 -1 14 7 12 8 -2 11 -2 7 0 -5 3 -8 9 -8 14 0 6 4 8 9
4 5 -3 13 0 17 6 5 8 3 9 -6 4 -9 -5 -10 -2 -5 14 10 32 -1 25 -15 -9z"/>
<path d="M441 1871 c-18 -14 -21 -20 -11 -26 8 -5 11 -4 7 2 -4 6 0 13 8 17
10 4 14 -1 12 -17 -1 -14 3 -22 14 -22 9 0 25 -7 35 -15 19 -14 19 -14 1 7
-11 12 -25 19 -33 16 -8 -3 -14 0 -14 6 0 6 5 11 11 11 8 0 9 4 0 13 -6 8 -8
17 -4 20 13 13 -3 6 -26 -12z"/>
<path d="M6481 1804 c-1 -5 6 -19 15 -30 8 -10 13 -14 10 -7 -4 6 -2 14 4 18
13 8 13 25 -1 25 -5 0 -7 -4 -4 -10 3 -5 2 -10 -4 -10 -5 0 -12 6 -14 13 -3 6
-6 7 -6 1z"/>
<path d="M6470 1752 c0 -5 7 -9 15 -9 8 0 12 4 9 9 -3 4 -9 8 -15 8 -5 0 -9
-4 -9 -8z"/>
<path d="M6442 1735 c-7 -8 -10 -15 -5 -15 4 0 -2 -7 -13 -15 -10 -8 -14 -15
-8 -15 5 0 15 5 22 12 8 8 12 8 12 1 0 -15 -27 -36 -38 -29 -6 3 -9 -2 -8 -12
0 -9 -4 -16 -11 -15 -6 1 -14 -4 -17 -13 -4 -11 -2 -12 13 -5 10 6 23 17 30
25 8 9 18 13 24 9 6 -3 7 -1 3 6 -4 6 0 14 9 17 11 5 13 10 5 19 -6 7 -8 20
-4 29 8 20 3 20 -14 1z"/>
<path d="M6470 1719 c0 -5 5 -7 10 -4 6 3 10 8 10 11 0 2 -4 4 -10 4 -5 0 -10
-5 -10 -11z"/>
<path d="M590 1651 c0 -10 19 -25 25 -20 1 2 -3 10 -11 17 -8 7 -14 8 -14 3z"/>
<path d="M555 1635 c11 -9 19 -20 18 -25 -1 -4 7 -6 18 -3 23 6 24 6 -21 27
-31 15 -33 15 -15 1z"/>
<path d="M6410 1627 c-45 -41 -63 -66 -65 -92 -2 -14 1 -23 5 -20 5 3 7 12 3
20 -3 8 1 15 8 15 7 0 10 3 6 6 -8 9 16 33 27 26 5 -3 6 0 2 6 -3 6 -1 14 6
19 14 8 43 43 37 43 -2 0 -15 -11 -29 -23z"/>
<path d="M6286 1479 c2 -4 -6 -15 -18 -23 -17 -12 -19 -19 -11 -27 15 -15 47
7 36 24 -3 5 2 16 12 23 16 12 16 13 -3 11 -11 0 -19 -4 -16 -8z m-1 -39 c-3
-5 -11 -10 -16 -10 -6 0 -7 5 -4 10 3 6 11 10 16 10 6 0 7 -4 4 -10z"/>
<path d="M756 1425 c5 -11 1 -14 -12 -9 -14 4 -16 3 -5 -4 9 -7 10 -12 2 -16
-17 -11 -13 -22 8 -23 24 -2 34 22 21 48 -13 23 -22 25 -14 4z m6 -37 c-7 -7
-12 -8 -12 -2 0 14 12 26 19 19 2 -3 -1 -11 -7 -17z"/>
<path d="M6214 1406 c-19 -14 -18 -15 3 -13 12 0 19 5 17 9 -3 4 0 8 5 8 6 0
11 -8 11 -17 0 -15 2 -16 10 -3 6 9 5 17 -3 22 -17 11 -20 10 -43 -6z"/>
<path d="M785 1370 c-4 -11 -11 -17 -17 -14 -7 5 -8 2 -3 -7 21 -37 27 -40 46
-23 23 20 15 51 -9 32 -13 -11 -14 -10 -8 10 4 12 5 22 2 22 -2 0 -8 -9 -11
-20z m25 -35 c-7 -8 -16 -12 -21 -9 -16 9 -10 20 12 21 17 2 18 -1 9 -12z"/>
<path d="M6178 1360 c-10 -11 -13 -22 -8 -25 6 -4 10 -11 10 -16 0 -6 -4 -8
-9 -5 -4 3 -17 -1 -27 -9 -10 -8 -14 -15 -7 -15 6 0 15 5 18 10 5 8 12 7 23
-2 9 -7 13 -8 10 -3 -8 13 1 29 26 42 16 9 17 11 2 16 -10 4 -15 3 -12 -2 3
-5 -1 -11 -9 -15 -18 -6 -19 -1 -5 25 14 24 9 24 -12 -1z"/>
<path d="M6210 1376 c0 -2 7 -7 16 -10 8 -3 12 -2 9 4 -6 10 -25 14 -25 6z"/>
<path d="M830 1315 c0 -8 2 -15 4 -15 2 0 6 7 10 15 3 8 1 15 -4 15 -6 0 -10
-7 -10 -15z"/>
<path d="M805 1300 c-3 -5 -1 -10 4 -10 6 0 11 5 11 10 0 6 -2 10 -4 10 -3 0
-8 -4 -11 -10z"/>
<path d="M850 1303 c0 -6 6 -13 13 -16 6 -2 9 -8 5 -12 -4 -4 -15 -2 -25 6 -9
8 -14 9 -10 2 4 -6 1 -14 -5 -16 -7 -3 2 -4 20 -2 25 2 32 -1 28 -11 -9 -22 2
-16 15 9 6 12 8 19 4 15 -4 -4 -16 3 -26 15 -10 12 -18 17 -19 10z"/>
<path d="M845 1240 c3 -5 8 -10 11 -10 2 0 4 5 4 10 0 6 -5 10 -11 10 -5 0 -7
-4 -4 -10z"/>
<path d="M888 1236 c-10 -7 -18 -17 -18 -21 0 -4 8 -1 17 6 15 12 16 12 10 -3
-4 -12 -2 -15 9 -11 10 4 12 9 4 18 -5 6 -7 15 -3 18 11 12 -1 7 -19 -7z"/>
<path d="M6037 1163 c-10 -10 -8 -23 4 -23 5 0 8 4 5 9 -4 5 0 12 6 14 7 3 8
6 2 6 -6 1 -14 -2 -17 -6z"/>
<path d="M6005 1140 c-4 -6 -12 -7 -18 -4 -7 4 -9 3 -4 -1 13 -15 46 -13 40 2
-6 16 -10 16 -18 3z"/>
<path d="M1023 1109 c-2 -23 3 -25 10 -4 4 8 3 16 -1 19 -4 3 -9 -4 -9 -15z"/>
<path d="M5940 1070 c-9 -6 -10 -10 -3 -10 6 0 15 5 18 10 8 12 4 12 -15 0z"/>
<path d="M5904 1036 c5 -14 2 -17 -9 -12 -12 4 -13 2 -6 -13 6 -10 7 -22 3
-26 -4 -5 -1 -5 6 -1 7 5 11 11 8 14 -3 3 -2 10 4 16 5 7 5 17 -2 26 -8 12 -9
11 -4 -4z"/>
<path d="M5929 1037 c7 -7 14 -8 21 -1 6 6 2 10 -12 11 -16 2 -18 -1 -9 -10z"/>
<path d="M5838 991 c-10 -13 -10 -14 1 -4 7 6 20 9 27 6 8 -3 14 -1 14 4 0 15
-29 11 -42 -6z"/>
<path d="M1132 963 c-16 -12 -16 -13 1 -7 14 5 16 2 10 -12 -4 -14 0 -12 14 6
12 14 25 21 29 17 5 -4 2 -12 -6 -17 -8 -6 -10 -10 -5 -10 6 0 16 4 23 9 11 6
11 10 0 18 -18 14 -45 12 -66 -4z"/>
<path d="M5846 972 c-2 -4 4 -8 14 -8 10 0 16 4 14 8 -3 4 -9 8 -14 8 -5 0
-11 -4 -14 -8z"/>
<path d="M5775 930 c-10 -11 -14 -20 -9 -20 5 0 15 9 22 20 7 11 11 20 9 20
-2 0 -12 -9 -22 -20z"/>
<path d="M1202 933 c-13 -5 -7 -23 9 -23 6 0 7 5 4 10 -3 6 -2 10 4 10 5 0 11
-3 13 -8 2 -4 16 -17 31 -29 16 -12 23 -24 17 -28 -5 -3 -10 -3 -10 2 0 10
-20 -19 -20 -29 0 -5 11 2 25 14 l25 21 -38 33 c-39 35 -40 35 -60 27z"/>
<path d="M1179 906 c14 -15 29 -22 39 -19 11 5 13 3 7 -7 -6 -9 -4 -11 5 -5
10 6 12 4 7 -9 -4 -10 -3 -15 3 -11 6 3 10 12 10 20 0 15 -27 28 -41 20 -4 -3
-14 3 -21 15 -7 11 -17 20 -22 20 -5 0 1 -11 13 -24z"/>
<path d="M5704 869 c-3 -6 -2 -15 4 -21 12 -12 32 -2 31 15 0 9 -2 9 -6 0 -2
-7 -9 -13 -15 -13 -6 0 -8 7 -4 15 6 17 0 20 -10 4z"/>
<path d="M1286 845 c-16 -12 -17 -15 -4 -15 9 0 18 7 22 15 7 18 6 18 -18 0z"/>
<path d="M1314 839 c-4 -7 -3 -9 4 -5 5 3 12 0 15 -6 2 -7 7 -10 11 -7 4 3 0
12 -8 18 -11 9 -16 9 -22 0z"/>
<path d="M5686 835 c10 -8 23 -15 28 -15 6 0 1 7 -10 15 -10 8 -23 15 -28 15
-6 0 -1 -7 10 -15z"/>
<path d="M1405 720 c10 -11 20 -20 22 -20 2 0 -2 9 -9 20 -7 11 -17 20 -22 20
-5 0 -1 -9 9 -20z"/>
<path d="M5521 703 c7 -12 15 -20 18 -17 3 2 -3 12 -13 22 -17 16 -18 16 -5
-5z"/>
<path d="M5468 676 c-14 -14 -27 -24 -29 -23 -2 1 -3 0 -2 -2 1 -2 -2 -12 -8
-22 -7 -15 -6 -17 6 -13 8 3 13 10 10 14 -6 10 33 45 42 37 9 -9 34 13 27 24
-8 14 -17 11 -46 -15z m42 10 c0 -3 -4 -8 -10 -11 -5 -3 -10 -1 -10 4 0 6 5
11 10 11 6 0 10 -2 10 -4z"/>
<path d="M1504 648 c-3 -4 3 -5 12 -1 12 5 15 3 9 -6 -6 -11 -3 -11 16 -1 13
7 25 14 27 15 1 1 -12 2 -28 2 -17 0 -33 -4 -36 -9z"/>
<path d="M1578 613 c6 -2 9 -10 6 -15 -4 -7 -2 -8 5 -4 13 9 5 26 -12 25 -9 0
-8 -2 1 -6z"/>
<path d="M1708 539 c-10 -10 -16 -19 -14 -19 2 0 11 -3 19 -6 10 -4 15 2 15
20 0 14 -1 26 -2 25 0 0 -9 -9 -18 -20z"/>
<path d="M1740 540 c0 -5 5 -10 11 -10 5 0 7 5 4 10 -3 6 -8 10 -11 10 -2 0
-4 -4 -4 -10z"/>
<path d="M5211 513 c-6 -10 -11 -15 -11 -10 0 4 -9 -2 -20 -13 -21 -21 -46
-28 -34 -8 4 7 3 8 -4 4 -16 -10 -15 -14 9 -27 15 -8 19 -8 15 0 -7 10 6 16
27 12 5 -1 6 3 2 9 -3 5 -4 10 -1 10 2 0 12 3 22 7 13 5 15 3 9 -8 -8 -12 -6
-12 8 0 9 7 17 19 17 25 0 6 -5 4 -10 -4 -9 -13 -14 -7 -11 13 2 13 -8 7 -18
-10z"/>
<path d="M5096 444 c-9 -8 -21 -12 -27 -8 -8 4 -9 3 -5 -5 4 -6 2 -20 -6 -29
-12 -16 -11 -16 7 -2 11 8 28 24 37 35 14 16 19 17 27 6 5 -8 11 -9 15 -3 3 5
-1 13 -10 16 -21 8 -20 8 -38 -10z"/>
<path d="M1912 419 c-8 -12 -9 -18 -4 -15 6 3 12 0 15 -6 2 -7 4 -1 4 15 0 15
0 27 -1 27 -1 0 -7 -9 -14 -21z"/>
<path d="M4995 400 c3 -5 8 -10 11 -10 2 0 4 5 4 10 0 6 -5 10 -11 10 -5 0 -7
-4 -4 -10z"/>
<path d="M2067 374 c3 -7 9 -14 14 -14 14 0 10 17 -5 23 -10 4 -13 1 -9 -9z"/>
<path d="M4919 368 c-7 -16 -4 -46 3 -42 5 3 7 12 4 20 -6 16 10 19 17 4 3 -6
4 -5 3 2 -2 11 -24 24 -27 16z"/>
<path d="M4864 338 c-3 -5 -9 -6 -14 -3 -15 10 -64 -24 -67 -47 -2 -16 -1 -19
6 -9 5 7 13 11 19 7 6 -3 14 -2 17 4 4 6 3 10 -2 9 -4 -1 -15 -1 -23 1 -11 1
-9 4 5 10 14 5 24 3 33 -8 6 -9 12 -11 12 -6 0 6 -5 15 -12 22 -9 9 -9 12 -1
12 7 0 15 -4 18 -10 3 -5 12 -10 18 -9 9 0 8 2 -1 6 -6 2 -10 9 -7 13 3 5 12
7 20 3 8 -3 15 -1 15 4 0 12 -29 13 -36 1z"/>
<path d="M4711 263 c-10 -22 -10 -25 2 -15 8 7 16 9 20 6 3 -3 3 3 0 15 -7 27
-7 26 -22 -6z"/>
<path d="M2304 238 c-5 -7 -3 -8 6 -3 7 4 15 2 19 -4 11 -18 49 -21 55 -5 4
11 2 12 -13 4 -14 -7 -22 -6 -31 5 -15 18 -26 19 -36 3z"/>
<path d="M4613 235 c-7 -8 -9 -16 -4 -19 5 -3 12 1 15 10 8 22 4 25 -11 9z"/>
<path d="M2433 214 c0 -28 14 -41 29 -26 7 7 4 16 -10 30 -19 19 -19 19 -19
-4z m22 -14 c3 -5 1 -10 -4 -10 -6 0 -11 5 -11 10 0 6 2 10 4 10 3 0 8 -4 11
-10z"/>
<path d="M4636 223 c-6 -14 -5 -15 5 -6 7 7 10 15 7 18 -3 3 -9 -2 -12 -12z"/>
<path d="M2410 219 c0 -5 -4 -7 -10 -4 -5 3 -10 2 -10 -3 0 -19 26 -20 27 -1
1 10 0 19 -3 19 -2 0 -4 -5 -4 -11z"/>
<path d="M2626 155 c-9 -14 -13 -25 -9 -25 10 0 36 40 30 46 -2 3 -12 -7 -21
-21z"/>
<path d="M2663 175 c4 -5 0 -16 -9 -26 -12 -13 -12 -19 -3 -25 8 -5 10 -3 5 5
-6 8 -2 11 10 9 11 -2 22 -10 26 -18 6 -11 7 -10 5 5 -2 11 -9 19 -16 17 -8
-2 -11 3 -8 12 4 9 1 18 -6 22 -7 4 -9 3 -4 -1z"/>
<path d="M4304 133 c-13 -20 -13 -25 -2 -16 8 7 17 11 19 8 3 -2 5 5 6 15 2
26 -1 25 -23 -7z"/>
<path d="M4385 149 c-4 -6 -4 -13 -1 -16 3 -4 6 -1 6 6 0 7 5 9 10 6 6 -3 10
-1 10 4 0 14 -17 14 -25 0z"/>
<path d="M4220 121 c4 -8 17 -15 28 -16 17 -1 19 2 11 16 -5 10 -18 17 -28 16
-14 -1 -17 -5 -11 -16z m30 5 c0 -3 -4 -8 -10 -11 -5 -3 -10 -1 -10 4 0 6 5
11 10 11 6 0 10 -2 10 -4z"/>
<path d="M4192 125 c4 -4 3 -14 -4 -22 -8 -11 -7 -12 6 -7 19 7 21 20 4 30 -7
4 -10 4 -6 -1z"/>
<path d="M2896 111 c-4 -6 -3 -11 3 -11 5 0 17 -7 25 -16 18 -17 21 -7 6 16
-5 8 -10 11 -10 5 0 -5 -4 -4 -9 4 -6 9 -11 10 -15 2z"/>
<path d="M2947 105 c3 -8 9 -12 14 -9 12 7 11 11 -5 17 -10 4 -13 1 -9 -8z"/>
<path d="M4063 86 c-1 -12 1 -15 4 -8 6 15 33 16 33 0 0 -6 3 -9 6 -5 9 9 -9
32 -26 33 -10 1 -16 -8 -17 -20z"/>
<path d="M3125 87 c4 -9 -3 -21 -17 -31 -12 -9 -19 -16 -14 -16 4 0 19 8 32
19 21 16 22 20 9 31 -13 11 -14 10 -10 -3z"/>
<path d="M2876 82 c-2 -4 4 -9 15 -9 11 -1 17 2 14 8 -7 11 -22 12 -29 1z"/>
<path d="M3942 70 c15 -24 32 -21 35 6 3 18 2 18 -6 -1 -8 -18 -9 -19 -16 -2
-4 9 -11 17 -16 17 -5 0 -4 -9 3 -20z"/>
<path d="M4003 75 c-9 -10 -6 -12 17 -11 15 0 26 4 23 9 -2 4 -8 5 -13 2 -4
-3 -10 -1 -12 4 -1 5 -8 3 -15 -4z"/>
<path d="M3248 54 c15 -20 58 -31 46 -12 -3 4 -1 8 5 8 5 0 12 -6 14 -12 4
-10 6 -10 6 -1 1 19 -18 26 -34 13 -17 -14 -20 0 -5 18 7 9 7 9 -2 2 -15 -12
-31 -13 -24 -2 3 5 -1 9 -9 9 -10 0 -10 -5 3 -23z"/>
<path d="M3310 73 c8 -3 19 -11 23 -17 6 -7 7 -6 4 4 -2 8 -12 16 -23 17 -13
2 -15 1 -4 -4z"/>
<path d="M3415 70 c-3 -5 -1 -10 4 -10 6 0 11 5 11 10 0 6 -2 10 -4 10 -3 0
-8 -4 -11 -10z"/>
<path d="M3781 53 c7 -12 15 -20 18 -17 3 2 -3 12 -13 22 -17 16 -18 16 -5 -5z"/>
<path d="M3812 50 c8 -12 15 -15 19 -8 4 6 12 8 18 4 7 -5 9 -1 5 9 -5 12 -9
13 -20 4 -10 -8 -14 -8 -14 0 0 6 -5 11 -10 11 -6 0 -5 -8 2 -20z"/>
<path d="M3910 62 c0 -5 7 -9 15 -9 8 0 12 4 9 9 -7 10 -24 10 -24 0z"/>
<path d="M3710 51 c0 -6 4 -12 8 -15 5 -3 9 1 9 9 0 8 -4 15 -9 15 -4 0 -8 -4
-8 -9z"/>
<path d="M3744 49 c1 -7 10 -13 19 -15 9 -1 15 2 11 7 -3 5 -9 7 -14 4 -4 -3
-11 0 -13 5 -3 6 -4 5 -3 -1z"/>
<path d="M3362 35 c-7 -8 -9 -15 -4 -15 5 0 15 7 22 15 16 19 -1 19 -18 0z"/>
<path d="M3396 34 c-3 -8 2 -11 16 -9 33 7 43 23 14 23 -13 0 -27 -6 -30 -14z"/>
<path d="M3550 26 c0 -2 7 -7 16 -10 8 -3 12 -2 9 4 -6 10 -25 14 -25 6z"/>
</g>
</svg>
