<?xml version="1.0" encoding="utf-8"?><svg xmlns="http://www.w3.org/2000/svg" xmlns:xlink="http://www.w3.org/1999/xlink"><symbol viewBox="0 0 10 16" id="icon-arrow-next" xmlns="http://www.w3.org/2000/svg"><path fill-rule="evenodd" clip-rule="evenodd" d="M.38 16h2.45l6.922-7.976L2.782 0H.333l6.122 8.024L.38 16z"/></symbol><symbol viewBox="0 0 10 16" id="icon-arrow-prev" xmlns="http://www.w3.org/2000/svg"><path fill-rule="evenodd" clip-rule="evenodd" d="M9.953 0h-2.45L.581 7.976 7.551 16H10L3.878 7.976 9.953 0z"/></symbol><symbol viewBox="0 0 17 20" id="icon-book" xmlns="http://www.w3.org/2000/svg"><path d="M2.5 0C1.13 0 0 1.13 0 2.5v15C0 18.87 1.13 20 2.5 20h14.167V0H2.5zm0 1.667H15V15H2.5c-.293 0-.57.062-.833.156V2.5c0-.472.361-.833.833-.833zm1.667 2.5v1.666h9.166V4.167H4.167zM2.5 16.667H15v1.666H2.5a.819.819 0 01-.833-.833c0-.472.361-.833.833-.833z"/></symbol><symbol viewBox="0 0 20 20" id="icon-checkmark" xmlns="http://www.w3.org/2000/svg"><path d="M10 0A9.98 9.98 0 000 10a9.98 9.98 0 0010 10 9.98 9.98 0 0010-10c0-1.076-.144-2.148-.529-3.149l-1.25 1.226c.153.616.24 1.232.24 1.923A8.436 8.436 0 0110 18.462 8.436 8.436 0 011.538 10 8.436 8.436 0 0110 1.538c2.308 0 4.381.92 5.841 2.38l1.082-1.081C15.153 1.067 12.693 0 10 0zm8.678 3.293L10 11.971 6.707 8.678 5.6 9.784l3.846 3.846.553.529.553-.53 9.23-9.23-1.105-1.106z"/></symbol><symbol viewBox="0 0 13 24" id="icon-facebook" xmlns="http://www.w3.org/2000/svg"><path d="M12.457.755L9.539.75C6.26.75 4.142 2.923 4.142 6.287V8.84H1.21a.459.459 0 00-.459.46v3.698c0 .254.206.46.459.46h2.933v9.333a.46.46 0 00.46.459H8.43a.459.459 0 00.459-.459v-9.334h3.43a.459.459 0 00.459-.459V9.3a.46.46 0 00-.458-.459H8.888V6.676c0-1.04.248-1.568 1.603-1.568h1.965a.459.459 0 00.459-.46V1.213a.459.459 0 00-.458-.458z"/></symbol><symbol viewBox="0 0 20 18" id="icon-heart" xmlns="http://www.w3.org/2000/svg"><path d="M5.357 0C2.402 0 0 2.43 0 5.357c0 1.021.463 1.906.893 2.545s.87 1.049.87 1.049l7.724 7.745.513.514.513-.514 7.724-7.745S20 7.397 20 5.357C20 2.43 17.598 0 14.643 0 12.19 0 10.61 1.476 10 2.098 9.389 1.476 7.81 0 5.357 0zm0 1.429c2.135 0 4.107 2.075 4.107 2.075l.536.603.536-.603s1.972-2.075 4.107-2.075c2.173 0 3.928 1.782 3.928 3.928 0 1.102-1.339 2.59-1.339 2.59L10 15.178 2.768 7.946s-.346-.332-.692-.848-.647-1.188-.647-1.74c0-2.146 1.755-3.93 3.928-3.93z"/></symbol><symbol viewBox="0 0 24 24" id="icon-instagram" xmlns="http://www.w3.org/2000/svg"><path d="M7.366.75C3.734.75.75 3.73.75 7.366v9.268c0 3.632 2.98 6.616 6.616 6.616h9.268c3.632 0 6.616-2.98 6.616-6.616V7.366c0-3.632-2.98-6.616-6.616-6.616H7.366zm0 2.045h9.268a4.564 4.564 0 014.57 4.57v9.27a4.564 4.564 0 01-4.57 4.57H7.366a4.564 4.564 0 01-4.57-4.57v-9.27a4.564 4.564 0 014.57-4.57zM18.04 5.033a.922.922 0 00-.927.927c0 .515.411.926.927.926a.922.922 0 00.926-.926.922.922 0 00-.926-.927zm-6.04.83c-3.376 0-6.136 2.761-6.136 6.137 0 3.376 2.76 6.136 6.136 6.136 3.376 0 6.136-2.76 6.136-6.136 0-3.376-2.76-6.136-6.136-6.136zm0 2.046A4.073 4.073 0 0116.09 12 4.073 4.073 0 0112 16.09 4.073 4.073 0 017.91 12 4.073 4.073 0 0112 7.91z"/></symbol><symbol viewBox="0 0 21 20" id="icon-phone" xmlns="http://www.w3.org/2000/svg"><path d="M5.34 0a1.81 1.81 0 00-1.129.408l-.048.024-.024.024L1.738 2.93l.024.024a2.408 2.408 0 00-.648 2.593c.003.006-.003.018 0 .024.65 1.864 2.317 5.463 5.57 8.717 3.267 3.266 6.914 4.866 8.718 5.572h.024c.933.312 1.945.09 2.665-.529l2.426-2.425c.636-.636.636-1.741 0-2.378l-3.122-3.121-.024-.048c-.636-.637-1.765-.637-2.401 0l-1.537 1.537a12.432 12.432 0 01-3.146-2.162c-1.258-1.2-1.9-2.581-2.137-3.122l1.537-1.536c.645-.646.657-1.72-.024-2.354l.024-.024-.072-.072L6.54.456 6.517.432 6.469.408A1.81 1.81 0 005.34 0zm0 1.537c.057 0 .114.027.168.072l3.074 3.146.072.072c-.006-.006.045.075-.048.168L6.685 6.916l-.36.336.168.48s.882 2.363 2.737 4.13l.168.145c1.786 1.63 3.89 2.521 3.89 2.521l.48.217 2.282-2.282c.132-.132.108-.132.24 0l3.146 3.146c.132.132.132.084 0 .216l-2.353 2.354c-.354.303-.73.366-1.177.216-1.74-.685-5.124-2.17-8.14-5.187-3.041-3.041-4.63-6.49-5.212-8.165-.117-.312-.033-.775.24-1.009l.049-.048L5.172 1.61a.269.269 0 01.168-.072z"/></symbol><symbol viewBox="0 0 21 20" id="icon-sale" xmlns="http://www.w3.org/2000/svg"><path d="M11.195 0l-.268.24-9.746 9.854-.587.587.587.614L9.3 19.413l.614.587.587-.587 9.853-9.747.24-.267V0h-9.398zm.72 1.709h6.97v6.97l-8.972 8.918-6.916-6.916 8.918-8.972zm4.406 1.709a.856.856 0 00-.854.854c0 .471.384.855.854.855a.857.857 0 00.855-.855.856.856 0 00-.855-.854z"/></symbol><symbol viewBox="0 0 20 20" id="icon-search" xmlns="http://www.w3.org/2000/svg"><path d="M7.776 0c4.287 0 7.777 3.49 7.777 7.776 0 1.863-.653 3.57-1.75 4.91L20 18.881 18.882 20l-6.197-6.197a7.716 7.716 0 01-4.909 1.75C3.49 15.553 0 12.063 0 7.776 0 3.49 3.49 0 7.776 0zm0 1.555a6.21 6.21 0 00-6.22 6.221 6.21 6.21 0 006.22 6.222 6.21 6.21 0 006.222-6.222 6.21 6.21 0 00-6.222-6.22z"/></symbol><symbol viewBox="0 0 21 20" id="icon-test-drive" xmlns="http://www.w3.org/2000/svg"><path d="M10.992 0c-2.999 0-5.45 2.452-5.45 5.45a5.45 5.45 0 001.93 4.173c-3.57 1.147-5.124 3.74-5.195 3.861l-.795 1.277a3.199 3.199 0 00-.398 2.47 3.253 3.253 0 001.477 2.044l.851.483a4.98 4.98 0 01.738-1.647l-.653-.397a1.45 1.45 0 01-.652-.909 1.39 1.39 0 01.17-1.078l.823-1.306c.085-.142 2.126-3.52 7.154-3.52 5.028 0 7.086 3.385 7.182 3.548l.795 1.278c.205.33.262.702.17 1.078a1.45 1.45 0 01-.653.909l-.653.397a4.91 4.91 0 01.738 1.647l.852-.483a3.254 3.254 0 001.476-2.044 3.2 3.2 0 00-.398-2.47l-.766-1.249c-.082-.142-1.654-2.742-5.223-3.889a5.456 5.456 0 001.93-4.173c0-2.998-2.452-5.45-5.45-5.45zm0 1.817a3.618 3.618 0 013.633 3.633 3.618 3.618 0 01-3.633 3.634A3.618 3.618 0 017.358 5.45a3.618 3.618 0 013.634-3.633zm0 13.626c-1.668 0-3.208.443-4.372 1.22-1.164.777-1.987 1.948-1.987 3.322H6.45c0-.635.383-1.278 1.192-1.817.809-.54 2.008-.908 3.35-.908 1.341 0 2.54.369 3.35.908.808.54 1.192 1.182 1.192 1.817h1.816c0-1.373-.823-2.544-1.987-3.322-1.163-.777-2.704-1.22-4.371-1.22z"/></symbol><symbol viewBox="0 0 16 16" id="icon-times" xmlns="http://www.w3.org/2000/svg"><path d="M1.518.281L.28 1.518 6.545 7.78.28 14.045l1.237 1.236L7.78 9.018l6.264 6.263 1.236-1.236L9.018 7.78l6.263-6.263L14.045.28 7.78 6.545 1.518.28z"/></symbol><symbol viewBox="0 0 19 20" id="icon-user" xmlns="http://www.w3.org/2000/svg"><path d="M9.09 0C5.587 0 2.728 2.859 2.728 6.364a6.386 6.386 0 002.813 5.284C2.298 13.04 0 16.258 0 20h1.818a7.26 7.26 0 017.273-7.273A7.26 7.26 0 0116.364 20h1.818c0-3.743-2.298-6.96-5.54-8.352a6.386 6.386 0 002.813-5.284C15.454 2.859 12.595 0 9.09 0zm0 1.818a4.532 4.532 0 014.546 4.546 4.532 4.532 0 01-4.545 4.545 4.532 4.532 0 01-4.546-4.545 4.532 4.532 0 014.546-4.546z"/></symbol><symbol viewBox="0 0 26 20" id="icon-youtube" xmlns="http://www.w3.org/2000/svg"><path d="M13 0C9.38 0 6.18.376 4.226.661 2.611.898 1.308 2.115 1.011 3.726.759 5.096.5 7.103.5 9.616c0 2.512.26 4.518.51 5.889a3.808 3.808 0 003.216 3.065c1.96.285 5.172.66 8.774.66 3.602 0 6.813-.375 8.774-.66a3.807 3.807 0 003.215-3.065c.252-1.375.511-3.384.511-5.89 0-2.505-.255-4.514-.51-5.889-.297-1.611-1.6-2.828-3.216-3.065C19.821.376 16.621 0 13 0zm0 1.923c3.493 0 6.614.357 8.504.631a1.89 1.89 0 011.592 1.533c.233 1.27.48 3.15.48 5.528 0 2.374-.247 4.26-.48 5.53a1.882 1.882 0 01-1.592 1.532c-1.897.274-5.033.63-8.504.63-3.47 0-6.61-.356-8.504-.63a1.886 1.886 0 01-1.592-1.533 30.658 30.658 0 01-.48-5.529c0-2.385.247-4.259.48-5.528.146-.8.777-1.413 1.592-1.533A60.644 60.644 0 0113 1.924zm-2.885 2.194v10.997l1.443-.811 6.73-3.846 1.443-.842-1.443-.841-6.73-3.846-1.443-.811zm1.924 3.305l3.816 2.193-3.816 2.194V7.422z"/></symbol></svg>