<?xml version="1.0" encoding="utf-8"?><svg xmlns="http://www.w3.org/2000/svg" xmlns:xlink="http://www.w3.org/1999/xlink"><symbol viewBox="0 0 86 8" id="icon-amg" xmlns="http://www.w3.org/2000/svg"><path fill-rule="evenodd" clip-rule="evenodd" d="M0 8h9.301l4.87-7.965H4.905L0 8zM18.712.035h-3.778L10.027 8h3.816L18.712.035zM14.752 8h2.543L22.164.035H19.62L14.752 8zm3.778 0h1.853L25.325.035h-1.926L18.53 8zM28.304.035h-1.562L21.872 8h1.563L28.304.035zM86 1.913V0H69.868v7.965H86v-4.94h-9.628V4.94h6.975v1.043h-10.79v-4.07H86zm-21.764.104v5.948h2.69V0h-3.96l-5.45 3.582L51.883 0h-3.816v7.965h2.69V2.017l5.267 3.687h2.726l5.485-3.687zM46.143 7.965L41.674 0h-10.79l-4.905 7.965h3.051l1.054-1.704h12.171l.945 1.704h2.943zm-6.068-6.052l1.127 2.295H31.174l1.308-2.295h7.593z"/></symbol><symbol viewBox="0 0 10 16" id="icon-arrow-next" xmlns="http://www.w3.org/2000/svg"><path fill-rule="evenodd" clip-rule="evenodd" d="M.38 16h2.45l6.922-7.976L2.782 0H.333l6.122 8.024L.38 16z"/></symbol><symbol viewBox="0 0 10 16" id="icon-arrow-prev" xmlns="http://www.w3.org/2000/svg"><path fill-rule="evenodd" clip-rule="evenodd" d="M9.953 0h-2.45L.581 7.976 7.551 16H10L3.878 7.976 9.953 0z"/></symbol><symbol viewBox="0 0 17 20" id="icon-book" xmlns="http://www.w3.org/2000/svg"><path d="M2.5 0C1.13 0 0 1.13 0 2.5v15C0 18.87 1.13 20 2.5 20h14.167V0H2.5zm0 1.667H15V15H2.5c-.293 0-.57.062-.833.156V2.5c0-.472.361-.833.833-.833zm1.667 2.5v1.666h9.166V4.167H4.167zM2.5 16.667H15v1.666H2.5a.819.819 0 01-.833-.833c0-.472.361-.833.833-.833z"/></symbol><symbol viewBox="0 0 20 15" id="icon-burger" xmlns="http://www.w3.org/2000/svg"><path d="M0 0v1.667h20V0H0zm0 6.667v1.666h20V6.667H0zm0 6.666V15h20v-1.667H0z"/></symbol><symbol viewBox="0 0 20 20" id="icon-checkmark" xmlns="http://www.w3.org/2000/svg"><path d="M10 0A9.98 9.98 0 000 10a9.98 9.98 0 0010 10 9.98 9.98 0 0010-10c0-1.076-.144-2.148-.529-3.149l-1.25 1.226c.153.616.24 1.232.24 1.923A8.436 8.436 0 0110 18.462 8.436 8.436 0 011.538 10 8.436 8.436 0 0110 1.538c2.308 0 4.381.92 5.841 2.38l1.082-1.081C15.153 1.067 12.693 0 10 0zm8.678 3.293L10 11.971 6.707 8.678 5.6 9.784l3.846 3.846.553.529.553-.53 9.23-9.23-1.105-1.106z"/></symbol><symbol viewBox="0 0 48 22" id="icon-eq" xmlns="http://www.w3.org/2000/svg"><path d="M17.244.688h6.098c.08-.016.11.032.095.112v2.96c0 .144 0 .144-.158.144H12.47c-.678 0-1.34.032-2.002.096-.851.096-1.686.24-2.49.496a7.822 7.822 0 00-1.75.784c-.503.304-.913.704-1.291 1.152-.3.352-.568.704-.804 1.104-.284.48-.52.992-.694 1.536a6.617 6.617 0 00-.283 2.288c.031.56.126 1.12.3 1.664.377 1.216 1.07 2.24 1.97 3.12.393.384.85.672 1.339.912.803.4 1.654.64 2.537.8 1.008.176 2.017.256 3.041.272 3.64.016 7.281 0 10.921.016.174 0 .158 0 .174.176v2.864c0 .16 0 .16-.158.16H11.76c-.803 0-1.607-.08-2.41-.208a15.493 15.493 0 01-1.94-.432 11.844 11.844 0 01-2.048-.8c-.693-.352-1.355-.752-1.923-1.28a12.062 12.062 0 01-1.48-1.632 9.306 9.306 0 01-1.214-2.064 9.555 9.555 0 01-.583-1.984 11.315 11.315 0 01-.158-2.192A9.8 9.8 0 01.46 7.888c.173-.56.425-1.104.71-1.616.377-.688.866-1.312 1.37-1.904.583-.672 1.23-1.264 2.002-1.728.63-.384 1.308-.704 2.001-.96.615-.224 1.26-.416 1.891-.56a16.6 16.6 0 011.75-.288C11.758.656 13.35.736 14.926.72c.788-.048 1.544-.032 2.317-.032zM37.21 22c-.725 0-1.434-.064-2.143-.208a10.376 10.376 0 01-3.688-1.52 10.833 10.833 0 01-1.97-1.648 12 12 0 01-1.244-1.568 10.297 10.297 0 01-1.104-2.208 13.51 13.51 0 01-.41-1.36 12.63 12.63 0 01-.267-2.016 14.4 14.4 0 01.047-1.648 10.954 10.954 0 011.26-4.096 11.2 11.2 0 01.962-1.472 10.8 10.8 0 011.214-1.344 11.008 11.008 0 012.206-1.6c.488-.256.977-.48 1.497-.672a11.638 11.638 0 011.623-.448A11.262 11.262 0 0137.383 0c.52 0 1.025.064 1.53.144.74.128 1.465.32 2.158.592.757.288 1.45.672 2.128 1.12.662.448 1.26.96 1.812 1.552a11.191 11.191 0 011.875 2.736c.395.832.694 1.68.883 2.592.11.576.19 1.152.22 1.728.016.432.016.88-.015 1.312a7.982 7.982 0 01-.158 1.232c-.11.608-.268 1.216-.488 1.808l-.142.384c-.032.096-.063.096-.126.032-.426-.448-.867-.88-1.292-1.328l-1.056-1.072c-.048-.048-.063-.08-.048-.144.19-.864.221-1.728.127-2.592a7.73 7.73 0 00-1.923-4.32 8.046 8.046 0 00-2.206-1.728A7.801 7.801 0 0036.8 3.2a7.75 7.75 0 00-2.254.464 7.287 7.287 0 00-1.923 1.056 7.889 7.889 0 00-1.733 1.824 7.665 7.665 0 00-.914 1.792 7.52 7.52 0 00-.426 2.048 7.322 7.322 0 00.063 1.76 8.03 8.03 0 00.757 2.4 7.607 7.607 0 002.049 2.544c.866.72 1.86 1.2 2.947 1.472a7.62 7.62 0 002.694.176c.252-.032.505-.064.757-.128.079-.016.142 0 .189.064.772.8 1.56 1.584 2.332 2.384.08.08.048.096-.031.128a11.11 11.11 0 01-1.876.592c-.74.144-1.481.224-2.222.224z"/><path d="M13.981 12.608h-7.8c-.064 0-.08-.016-.08-.08V9.552c0-.16 0-.16.158-.16h15.397c.268 0 .22-.016.22.224v2.848c0 .144 0 .144-.141.144H13.98zm33.221 6.352c-.016.016-.032.048-.048.064-.693.704-1.386 1.392-2.064 2.096-.079.08-.126.064-.205-.016-.52-.528-1.024-1.056-1.544-1.568-.883-.896-1.765-1.808-2.648-2.704l-1.812-1.84c-.914-.928-1.813-1.856-2.727-2.784-.063-.064-.047-.096 0-.144l1.608-1.632.489-.496c.047-.064.094-.048.141 0l1.75 1.776.945.96 1.576 1.6c.835.864 1.686 1.712 2.522 2.576l1.985 2.016c0 .032.032.048.032.096z"/></symbol><symbol viewBox="0 0 13 24" id="icon-facebook" xmlns="http://www.w3.org/2000/svg"><path d="M12.457.755L9.539.75C6.26.75 4.142 2.923 4.142 6.287V8.84H1.21a.459.459 0 00-.459.46v3.698c0 .254.206.46.459.46h2.933v9.333a.46.46 0 00.46.459H8.43a.459.459 0 00.459-.459v-9.334h3.43a.459.459 0 00.459-.459V9.3a.46.46 0 00-.458-.459H8.888V6.676c0-1.04.248-1.568 1.603-1.568h1.965a.459.459 0 00.459-.46V1.213a.459.459 0 00-.458-.458z"/></symbol><symbol viewBox="0 0 20 20" id="icon-google" xmlns="http://www.w3.org/2000/svg"><path d="M10.004 8.239v3.82h5.443c-.71 2.316-2.645 3.974-5.443 3.974a6.033 6.033 0 110-12.067c1.498 0 2.865.551 3.92 1.457l2.813-2.816A9.962 9.962 0 0010.003 0C4.478 0 0 4.478 0 10s4.478 10 10.004 10c8.394 0 10.248-7.852 9.424-11.747l-9.424-.014z"/></symbol><symbol viewBox="0 0 20 18" id="icon-heart" xmlns="http://www.w3.org/2000/svg"><path d="M5.357 0C2.402 0 0 2.43 0 5.357c0 1.021.463 1.906.893 2.545s.87 1.049.87 1.049l7.724 7.745.513.514.513-.514 7.724-7.745S20 7.397 20 5.357C20 2.43 17.598 0 14.643 0 12.19 0 10.61 1.476 10 2.098 9.389 1.476 7.81 0 5.357 0zm0 1.429c2.135 0 4.107 2.075 4.107 2.075l.536.603.536-.603s1.972-2.075 4.107-2.075c2.173 0 3.928 1.782 3.928 3.928 0 1.102-1.339 2.59-1.339 2.59L10 15.178 2.768 7.946s-.346-.332-.692-.848-.647-1.188-.647-1.74c0-2.146 1.755-3.93 3.928-3.93z"/></symbol><symbol viewBox="0 0 24 24" id="icon-instagram" xmlns="http://www.w3.org/2000/svg"><path d="M7.366.75C3.734.75.75 3.73.75 7.366v9.268c0 3.632 2.98 6.616 6.616 6.616h9.268c3.632 0 6.616-2.98 6.616-6.616V7.366c0-3.632-2.98-6.616-6.616-6.616H7.366zm0 2.045h9.268a4.564 4.564 0 014.57 4.57v9.27a4.564 4.564 0 01-4.57 4.57H7.366a4.564 4.564 0 01-4.57-4.57v-9.27a4.564 4.564 0 014.57-4.57zM18.04 5.033a.922.922 0 00-.927.927c0 .515.411.926.927.926a.922.922 0 00.926-.926.922.922 0 00-.926-.927zm-6.04.83c-3.376 0-6.136 2.761-6.136 6.137 0 3.376 2.76 6.136 6.136 6.136 3.376 0 6.136-2.76 6.136-6.136 0-3.376-2.76-6.136-6.136-6.136zm0 2.046A4.073 4.073 0 0116.09 12 4.073 4.073 0 0112 16.09 4.073 4.073 0 017.91 12 4.073 4.073 0 0112 7.91z"/></symbol><symbol viewBox="0 0 93 8" id="icon-maybach" xmlns="http://www.w3.org/2000/svg"><path d="M41.891 3.98V.533c0-.34.052-.388.412-.388 1.828 0 3.656-.025 5.51 0 .901 0 1.725.218 2.369.897.67.704.618 1.626-.077 2.306-.206.194-.18.242.077.363.618.243 1.133.607 1.416 1.19.386.776.154 1.625-.566 2.208a3.215 3.215 0 01-2.034.703h-6.695c-.309 0-.36-.048-.36-.34-.052-1.164-.052-2.329-.052-3.494zm4.274.218h-2.291c-.36 0-.412.048-.412.388V6.77c0 .291.077.34.36.34h4.61a1.86 1.86 0 001.106-.34c.85-.583.953-1.48.129-2.16-.386-.315-.824-.436-1.339-.436-.695.024-1.442.024-2.163.024zm-.489-3.3h-1.854c-.283 0-.36.048-.36.34v1.94c0 .22.077.34.334.34 1.21 0 2.395.025 3.605 0 .695-.024 1.262-.315 1.622-.897a.75.75 0 000-.801c-.386-.607-.927-.898-1.673-.898a39.091 39.091 0 00-1.674-.024zm-35.892.703c-.206.17-.412.316-.592.486L5.896 4.974c-.18.146-.283.122-.438 0a289.406 289.406 0 01-2.909-2.548l-.85-.727a.381.381 0 00-.154-.049c-.052.024-.077.097-.077.146v5.678c0 .266-.078.34-.36.34h-.8C.103 7.813 0 7.715 0 7.521V.533C0 .194.051.146.412.146c.206 0 .412.024.618 0 .335-.025.566.072.798.29 1.056.947 2.137 1.893 3.193 2.84.154.145.334.29.515.388.077.048.231.024.283-.024.72-.631 1.442-1.286 2.163-1.917.54-.486 1.107-.947 1.648-1.408A.719.719 0 019.939.17a9.641 9.641 0 011.184 0c.154 0 .257.097.257.267v7.012c0 .316-.051.364-.386.364h-.772c-.258 0-.335-.097-.335-.315V6.09c0-1.407 0-2.839.026-4.246 0-.073-.026-.121-.026-.194-.051 0-.077-.024-.103-.049zm83.164 2.403v3.494c0 .291-.051.34-.36.34h-.824c-.283 0-.335-.049-.335-.34V4.61c0-.388-.025-.412-.437-.412h-6.283c-.36 0-.386.024-.386.364v2.887c0 .34-.051.389-.412.389h-.85c-.231 0-.334-.098-.334-.316V.485c0-.242.103-.315.36-.315h.901c.232 0 .36.097.36.315 0 .874 0 1.772-.025 2.645 0 .291.077.364.36.364h6.386c.335 0 .386-.048.386-.364V.51c0-.292.052-.34.36-.34h.825c.283 0 .36.048.36.34-.052 1.14-.052 2.305-.052 3.494zM54.816 7.74c.438-.703.876-1.383 1.288-2.062.463-.752.953-1.504 1.416-2.257.67-1.019 1.339-2.038 2.008-3.081.103-.17.258-.219.464-.219.309.025.618 0 .9 0 .207 0 .336.049.439.219.566.922 1.158 1.844 1.75 2.766.412.63.824 1.237 1.236 1.868.541.85 1.082 1.675 1.597 2.524.128.218.103.291-.18.291-.258 0-.541-.024-.799 0-.309.024-.489-.097-.618-.34-.18-.315-.412-.63-.592-.946-.103-.194-.257-.267-.49-.267h-5.69c-.205 0-.308.097-.411.243a44.64 44.64 0 01-.696 1.116c-.05.073-.154.17-.257.17a9.644 9.644 0 01-1.184 0c-.026.048-.103.024-.18-.025zm5.665-6.308h-.103c-.206.315-.412.63-.618.97-.566.922-1.159 1.844-1.725 2.766-.052.073-.052.195-.077.292.103.024.18.072.283.072h4.454c.077 0 .206-.024.232-.072a.32.32 0 00-.052-.267c-.592-.97-1.184-1.917-1.776-2.888a13.651 13.651 0 01-.618-.873zM20.778 6.26H18.05c-.232 0-.412.073-.515.267-.232.388-.49.752-.747 1.116a.496.496 0 01-.334.17c-.335.025-.67.025-.979 0-.257 0-.309-.073-.18-.29.463-.753.953-1.505 1.416-2.258.901-1.407 1.828-2.839 2.73-4.246.154-.267.334-.51.54-.728.077-.073.232-.121.335-.145.309-.025.643-.025.952 0 .13 0 .31.097.387.194.36.51.695 1.067 1.03 1.601.952 1.48 1.905 2.985 2.857 4.465l.696 1.019c.051.097.077.218.103.315-.103.025-.206.073-.31.073-.257 0-.54-.024-.797 0-.284.025-.438-.073-.567-.29-.206-.34-.412-.656-.592-.996a.53.53 0 00-.49-.267h-2.806zm.18-4.634c-.128-.194-.231-.194-.36 0-.283.46-.592.898-.875 1.359-.464.752-.927 1.48-1.39 2.232-.052.073-.078.194-.052.267.026.048.154.073.257.073h4.506c.077 0 .232-.025.258-.073.025-.073 0-.194-.052-.267m51.83 2.766c-1.004.073-1.983-.097-2.936-.364a6.47 6.47 0 01-2.651-1.504c-.644-.607-1.005-1.335-.979-2.184.026-.777.335-1.407.927-1.966.85-.825 1.854-1.334 3.013-1.65A10.251 10.251 0 0175.028 0c1.159 0 2.292.146 3.399.412.309.073.515.607.283.826-.051.048-.206.048-.283.024C77.062.8 75.647.679 74.179.776c-.618.049-1.21.243-1.803.486-.695.29-1.261.703-1.7 1.286-.772 1.067-.669 2.305.258 3.276.721.752 1.623 1.14 2.627 1.334 1.596.34 3.167.097 4.711-.34.103-.024.18-.072.284-.072.051 0 .128.024.154.072.18.316 0 .728-.36.801a36.92 36.92 0 01-2.37.364c-.257.024-.591 0-.9 0zM32.107 6.212c0-.291-.026-.607 0-.898.052-.437-.129-.752-.463-1.043-.592-.559-1.159-1.14-1.751-1.723-.67-.68-1.365-1.359-2.034-2.014-.077-.073-.103-.17-.155-.267.103-.024.206-.073.31-.073h.849c.232 0 .438.073.592.243l1.803 1.844c.463.46.926.922 1.39 1.359.129.145.257.17.412 0l1.158-1.165c.696-.704 1.417-1.407 2.137-2.111a.654.654 0 01.412-.146 7.295 7.295 0 011.03 0c.078 0 .18.049.206.097.026.049-.025.146-.077.195-1.107 1.116-2.24 2.232-3.347 3.372-.232.243-.49.437-.721.68-.103.145-.206.315-.206.485-.026.825 0 1.65 0 2.45 0 .34-.052.389-.412.389h-.824c-.232 0-.335-.097-.335-.315.026-.486.026-.922.026-1.36z"/></symbol><symbol viewBox="0 0 21 20" id="icon-phone" xmlns="http://www.w3.org/2000/svg"><path d="M5.34 0a1.81 1.81 0 00-1.129.408l-.048.024-.024.024L1.738 2.93l.024.024a2.408 2.408 0 00-.648 2.593c.003.006-.003.018 0 .024.65 1.864 2.317 5.463 5.57 8.717 3.267 3.266 6.914 4.866 8.718 5.572h.024c.933.312 1.945.09 2.665-.529l2.426-2.425c.636-.636.636-1.741 0-2.378l-3.122-3.121-.024-.048c-.636-.637-1.765-.637-2.401 0l-1.537 1.537a12.432 12.432 0 01-3.146-2.162c-1.258-1.2-1.9-2.581-2.137-3.122l1.537-1.536c.645-.646.657-1.72-.024-2.354l.024-.024-.072-.072L6.54.456 6.517.432 6.469.408A1.81 1.81 0 005.34 0zm0 1.537c.057 0 .114.027.168.072l3.074 3.146.072.072c-.006-.006.045.075-.048.168L6.685 6.916l-.36.336.168.48s.882 2.363 2.737 4.13l.168.145c1.786 1.63 3.89 2.521 3.89 2.521l.48.217 2.282-2.282c.132-.132.108-.132.24 0l3.146 3.146c.132.132.132.084 0 .216l-2.353 2.354c-.354.303-.73.366-1.177.216-1.74-.685-5.124-2.17-8.14-5.187-3.041-3.041-4.63-6.49-5.212-8.165-.117-.312-.033-.775.24-1.009l.049-.048L5.172 1.61a.269.269 0 01.168-.072z"/></symbol><symbol viewBox="0 0 20 20" id="icon-plus" xmlns="http://www.w3.org/2000/svg"><path d="M9.09 0v9.09H0v1.82h9.09V20h1.82v-9.09H20V9.09h-9.09V0H9.09z"/></symbol><symbol viewBox="0 0 21 20" id="icon-sale" xmlns="http://www.w3.org/2000/svg"><path d="M11.195 0l-.268.24-9.746 9.854-.587.587.587.614L9.3 19.413l.614.587.587-.587 9.853-9.747.24-.267V0h-9.398zm.72 1.709h6.97v6.97l-8.972 8.918-6.916-6.916 8.918-8.972zm4.406 1.709a.856.856 0 00-.854.854c0 .471.384.855.854.855a.857.857 0 00.855-.855.856.856 0 00-.855-.854z"/></symbol><symbol viewBox="0 0 20 20" id="icon-search" xmlns="http://www.w3.org/2000/svg"><path d="M7.776 0c4.287 0 7.777 3.49 7.777 7.776 0 1.863-.653 3.57-1.75 4.91L20 18.881 18.882 20l-6.197-6.197a7.716 7.716 0 01-4.909 1.75C3.49 15.553 0 12.063 0 7.776 0 3.49 3.49 0 7.776 0zm0 1.555a6.21 6.21 0 00-6.22 6.221 6.21 6.21 0 006.22 6.222 6.21 6.21 0 006.222-6.222 6.21 6.21 0 00-6.222-6.22z"/></symbol><symbol viewBox="0 0 21 20" id="icon-test-drive" xmlns="http://www.w3.org/2000/svg"><path d="M10.992 0c-2.999 0-5.45 2.452-5.45 5.45a5.45 5.45 0 001.93 4.173c-3.57 1.147-5.124 3.74-5.195 3.861l-.795 1.277a3.199 3.199 0 00-.398 2.47 3.253 3.253 0 001.477 2.044l.851.483a4.98 4.98 0 01.738-1.647l-.653-.397a1.45 1.45 0 01-.652-.909 1.39 1.39 0 01.17-1.078l.823-1.306c.085-.142 2.126-3.52 7.154-3.52 5.028 0 7.086 3.385 7.182 3.548l.795 1.278c.205.33.262.702.17 1.078a1.45 1.45 0 01-.653.909l-.653.397a4.91 4.91 0 01.738 1.647l.852-.483a3.254 3.254 0 001.476-2.044 3.2 3.2 0 00-.398-2.47l-.766-1.249c-.082-.142-1.654-2.742-5.223-3.889a5.456 5.456 0 001.93-4.173c0-2.998-2.452-5.45-5.45-5.45zm0 1.817a3.618 3.618 0 013.633 3.633 3.618 3.618 0 01-3.633 3.634A3.618 3.618 0 017.358 5.45a3.618 3.618 0 013.634-3.633zm0 13.626c-1.668 0-3.208.443-4.372 1.22-1.164.777-1.987 1.948-1.987 3.322H6.45c0-.635.383-1.278 1.192-1.817.809-.54 2.008-.908 3.35-.908 1.341 0 2.54.369 3.35.908.808.54 1.192 1.182 1.192 1.817h1.816c0-1.373-.823-2.544-1.987-3.322-1.163-.777-2.704-1.22-4.371-1.22z"/></symbol><symbol viewBox="0 0 16 16" id="icon-times" xmlns="http://www.w3.org/2000/svg"><path d="M1.518.281L.28 1.518 6.545 7.78.28 14.045l1.237 1.236L7.78 9.018l6.264 6.263 1.236-1.236L9.018 7.78l6.263-6.263L14.045.28 7.78 6.545 1.518.28z"/></symbol><symbol viewBox="0 0 19 20" id="icon-user" xmlns="http://www.w3.org/2000/svg"><path d="M9.09 0C5.587 0 2.728 2.859 2.728 6.364a6.386 6.386 0 002.813 5.284C2.298 13.04 0 16.258 0 20h1.818a7.26 7.26 0 017.273-7.273A7.26 7.26 0 0116.364 20h1.818c0-3.743-2.298-6.96-5.54-8.352a6.386 6.386 0 002.813-5.284C15.454 2.859 12.595 0 9.09 0zm0 1.818a4.532 4.532 0 014.546 4.546 4.532 4.532 0 01-4.545 4.545 4.532 4.532 0 01-4.546-4.545 4.532 4.532 0 014.546-4.546z"/></symbol><symbol viewBox="0 0 26 20" id="icon-youtube" xmlns="http://www.w3.org/2000/svg"><path d="M13 0C9.38 0 6.18.376 4.226.661 2.611.898 1.308 2.115 1.011 3.726.759 5.096.5 7.103.5 9.616c0 2.512.26 4.518.51 5.889a3.808 3.808 0 003.216 3.065c1.96.285 5.172.66 8.774.66 3.602 0 6.813-.375 8.774-.66a3.807 3.807 0 003.215-3.065c.252-1.375.511-3.384.511-5.89 0-2.505-.255-4.514-.51-5.889-.297-1.611-1.6-2.828-3.216-3.065C19.821.376 16.621 0 13 0zm0 1.923c3.493 0 6.614.357 8.504.631a1.89 1.89 0 011.592 1.533c.233 1.27.48 3.15.48 5.528 0 2.374-.247 4.26-.48 5.53a1.882 1.882 0 01-1.592 1.532c-1.897.274-5.033.63-8.504.63-3.47 0-6.61-.356-8.504-.63a1.886 1.886 0 01-1.592-1.533 30.658 30.658 0 01-.48-5.529c0-2.385.247-4.259.48-5.528.146-.8.777-1.413 1.592-1.533A60.644 60.644 0 0113 1.924zm-2.885 2.194v10.997l1.443-.811 6.73-3.846 1.443-.842-1.443-.841-6.73-3.846-1.443-.811zm1.924 3.305l3.816 2.193-3.816 2.194V7.422z"/></symbol></svg>