<svg width="146" height="43" viewBox="0 0 146 43" fill="none" xmlns="http://www.w3.org/2000/svg">
<path d="M51.9009 16.8995L51.9331 16.3978H54.8931L57.9169 24.0994L60.9412 16.3978H63.8685V16.8995H63.2574C62.936 16.8995 62.6141 17.2127 62.6141 17.4941L62.775 25.8828C62.775 26.3213 63.1935 26.5098 63.5471 26.5098H64.0299V27.0104H59.9444V26.5098H60.6199C61.07 26.5098 61.3597 26.1334 61.3597 25.852L61.1988 17.6189L57.6921 26.4779H57.3385L53.8635 17.7129L53.7031 25.852C53.7031 26.3845 53.9923 26.5098 54.4107 26.5098H54.9575V27.0104H51.7083L51.7405 26.5098H52.2223C52.8656 26.5098 53.0265 26.1652 53.0265 25.852L53.1875 17.3683C53.1875 16.9303 52.7374 16.8995 52.3833 16.8995H51.9009Z" fill="white"/>
<path fill-rule="evenodd" clip-rule="evenodd" d="M70.5411 23.191H65.7023C65.6701 24.2868 65.7994 26.5761 67.6327 26.5406C69.2411 26.5098 69.6591 25.1007 69.7235 24.4747L70.4773 24.4779C70.1419 26.1652 69.4981 27.2198 67.3107 27.2198C65.0584 27.2198 64.0804 25.416 64.0804 23.191C64.0804 20.9659 65.2521 19.1621 67.3107 19.1621C69.5308 19.1621 70.5411 20.9659 70.5411 23.191ZM65.7343 22.4917C65.7344 22.5174 65.7345 22.5417 65.7345 22.5645H68.9192C68.9192 21.5313 68.7261 19.8408 67.3751 19.8408C65.7266 19.8408 65.7321 21.7437 65.7343 22.4917Z" fill="white"/>
<path d="M74.485 26.6037V27.0115H70.7208V26.6048H71.171C71.4607 26.6048 71.9752 26.5108 71.9752 25.947V20.8129C71.9752 20.7893 71.976 20.7637 71.9767 20.7366C71.9863 20.4049 72.0024 19.8472 70.753 19.9056V19.5923C71.2997 19.561 71.943 19.467 72.6512 19.2478C72.9726 19.1538 73.1014 19.4352 73.1336 19.7176C73.1657 19.999 73.3965 20.0966 73.5837 19.8419C73.7446 19.6226 74.3241 19.1851 75.0318 19.1851C75.9326 19.1851 76.4471 19.5918 76.5115 20.4678C76.5758 21.3444 76.1252 21.4065 75.7716 21.4384C75.418 21.4702 74.9996 21.157 75.0639 20.6871C75.1283 20.2178 74.9668 20.0925 74.7098 20.0925C74.0344 20.0925 73.3589 20.5613 73.3589 21.8451V25.9459C73.3589 26.5098 73.8734 26.6037 74.1631 26.6037H74.485Z" fill="white"/>
<path d="M79.825 19.1313C80.5509 19.1313 81.147 19.324 81.6212 19.6607L82.0446 19.028H82.3981V21.6576H81.9802C81.9802 20.6245 81.1754 19.7171 79.8566 19.7171C78.3126 19.7171 78.216 22.4716 78.216 23.1607C78.1838 24.256 78.3131 26.5489 80.1464 26.5103C81.5939 26.4785 81.8192 25.0386 81.8836 24.4126L82.6379 24.4157C82.3021 26.102 81.8198 27.1984 79.825 27.189C77.5727 27.1775 76.5946 25.3852 76.5946 23.1602C76.5946 20.9351 77.7664 19.1313 79.825 19.1313Z" fill="white"/>
<path fill-rule="evenodd" clip-rule="evenodd" d="M96.8116 16.6484V25.3821C96.8116 25.4057 96.8109 25.4312 96.8101 25.4582C96.8006 25.7898 96.7847 26.348 98.0344 26.291V26.6043C97.3894 26.6416 96.7518 26.757 96.1362 26.9478C95.8142 27.0428 95.6055 26.6194 95.5734 26.338C95.5406 26.1971 95.4446 26.2748 95.4285 26.338C95.2353 26.6356 94.3023 27.1984 93.5947 27.1984C92.887 27.1984 90.5387 26.9473 90.5387 23.0349C90.5387 20.0606 92.5651 19.2154 93.6591 19.2154C94.5277 19.2154 95.01 19.5913 95.4285 19.9666V17.2748C95.4285 16.9616 95.3319 16.6802 94.3989 16.7423V16.4291C94.9456 16.3978 95.5894 16.3038 96.2971 16.0845C96.6185 15.9906 96.8116 16.2886 96.8116 16.6484ZM93.6907 26.6972C94.4628 26.6972 95.3958 26.1652 95.428 24.4429V22.7216C95.428 21.7511 95.2992 20.1233 93.7229 19.9348C92.1466 19.7474 92.0822 21.9077 92.0822 23.003C92.0822 23.0693 92.0818 23.141 92.0813 23.2172C92.0735 24.4001 92.0586 26.6673 93.6907 26.6972Z" fill="white"/>
<path d="M115.599 21.8132V22.5342H111.353V21.8132H115.599Z" fill="white"/>
<path d="M105.529 27.0104V24.3494H105.85C106.14 25.9459 107.363 26.4785 108.135 26.4785C108.907 26.4785 109.389 25.9778 109.647 25.5392C109.904 25.1007 109.678 24.3494 109.293 24.1615C109.232 24.1322 109.166 24.0991 109.091 24.0619C108.688 23.8607 108.047 23.5412 106.879 23.0662C105.496 22.5024 105.336 21.1251 105.914 20.2491C106.494 19.3725 107.523 19.0593 108.135 19.0593C108.746 19.0593 109.035 19.1214 109.711 19.56L110.065 18.9653H110.387V21.4697H110.033C109.904 20.4992 109.39 19.6534 108.361 19.6853C107.331 19.7166 106.88 20.2491 106.784 20.7498C106.724 21.0625 106.849 21.5631 107.363 21.8132C107.528 21.8934 107.705 21.9829 107.893 22.0782C108.445 22.3575 109.094 22.6859 109.808 22.9717C110.902 23.4097 111.127 24.8496 110.645 25.7267C110.162 26.6038 108.94 27.0726 108.071 27.0726C107.202 27.0726 106.527 26.6038 106.206 26.3213L105.884 27.0104H105.529Z" fill="white"/>
<path fill-rule="evenodd" clip-rule="evenodd" d="M117.047 17.681V25.4134C117.047 25.852 117.015 26.5719 115.727 26.5719V27.0104H119.684C120.874 27.0104 123.61 26.9165 123.673 23.8483C123.673 22.8156 123.159 21.595 121.614 21.2817C122.387 21.0928 123.159 19.7474 123.159 18.8395C123.159 17.9316 122.805 16.3972 120.553 16.3972H115.728V16.8039C116.21 16.8039 117.047 16.899 117.047 17.681ZM120.07 26.5098H118.43V21.7192H120.264C121.326 21.7192 122.258 22.4402 122.258 24.0043C122.258 25.5706 121.293 26.5098 120.07 26.5098ZM120.039 21.2186H118.43V16.899H120.039C121.229 16.899 121.711 17.7431 121.711 18.8395C121.711 20.1854 121.293 21.2186 120.039 21.2186Z" fill="white"/>
<path d="M136.734 25.9459V21.3126C136.734 20.7179 136.509 19.8727 135.19 19.9672C133.871 20.0611 133.613 21.1575 133.613 21.8456V25.9465C133.613 26.5103 134.129 26.6043 134.418 26.6043H134.74V27.011H130.976V26.6043H131.427C131.716 26.6043 132.23 26.5103 132.23 25.9465V20.8124C132.23 20.7888 132.231 20.7632 132.232 20.736C132.241 20.4044 132.257 19.8466 131.009 19.905V19.5918C131.555 19.5605 132.199 19.4665 132.906 19.2472C133.228 19.1533 133.356 19.4347 133.389 19.7171C133.421 19.9985 133.652 20.0961 133.839 19.8414C134 19.6221 134.773 19.1846 135.48 19.1846C136.156 19.1846 138.086 19.2467 138.119 21.3444V25.9459C138.119 26.5098 138.633 26.6037 138.922 26.6037H139.244V27.0104H135.738V26.6037H135.931C136.22 26.6037 136.734 26.5098 136.734 25.9459Z" fill="white"/>
<path d="M140.531 19.3407L139.952 21.4697H140.273C141.078 19.7792 141.657 19.7792 142.172 19.7792H144.262L139.598 27.011H145.196L145.711 24.9133H145.453C144.842 26.3532 144.392 26.5724 143.812 26.5724H141.303L146 19.3407H140.531Z" fill="white"/>
<path fill-rule="evenodd" clip-rule="evenodd" d="M89.8434 23.191H85.0045C84.9723 24.2868 85.1016 26.5761 86.9349 26.5406C88.5434 26.5098 88.9613 25.1007 89.0257 24.4747L89.78 24.4779C89.4442 26.1652 88.8009 27.2198 86.613 27.2198C84.3612 27.2198 83.3826 25.416 83.3826 23.191C83.3826 20.9659 84.5544 19.1621 86.613 19.1621C88.8326 19.1621 89.8434 20.9659 89.8434 23.191ZM85.0371 22.4917C85.0372 22.5174 85.0372 22.5417 85.0372 22.5645H88.222C88.222 21.5313 88.0294 19.8408 86.6779 19.8408C85.0294 19.8408 85.0349 21.7437 85.0371 22.4917Z" fill="white"/>
<path fill-rule="evenodd" clip-rule="evenodd" d="M104.513 23.191H99.674C99.6428 24.2868 99.7716 26.5761 101.604 26.5406C103.214 26.5098 103.632 25.1007 103.696 24.4747L104.449 24.4779C104.114 26.1652 103.47 27.2198 101.283 27.2198C99.0312 27.2198 98.0526 25.416 98.0526 23.191C98.0526 20.9659 99.2243 19.1621 101.283 19.1621C103.503 19.1621 104.513 20.9659 104.513 23.191ZM99.7065 22.4923C99.7066 22.5177 99.7067 22.5418 99.7067 22.5645H102.891C102.891 21.5313 102.699 19.8408 101.348 19.8408C99.6989 19.8408 99.7044 21.7446 99.7065 22.4923Z" fill="white"/>
<path fill-rule="evenodd" clip-rule="evenodd" d="M130.829 23.191H125.991C125.958 24.2868 126.087 26.5761 127.92 26.5406C129.529 26.5098 129.948 25.1007 130.012 24.4747L130.765 24.4779C130.43 26.1652 129.786 27.2198 127.599 27.2198C125.346 27.2198 124.369 25.416 124.369 23.191C124.369 20.9659 125.54 19.1621 127.599 19.1621C129.819 19.1621 130.829 20.9659 130.829 23.191ZM126.022 22.4923C126.022 22.5177 126.022 22.5418 126.022 22.5645H129.208C129.208 21.5313 129.014 19.8408 127.663 19.8408C126.015 19.8408 126.02 21.7446 126.022 22.4923Z" fill="white"/>
<path d="M41.6131 21.0382C41.6131 32.4066 32.4066 41.6131 21.0382 41.6131C9.6697 41.6131 0.463257 32.4066 0.463257 21.0382C0.463257 9.6697 9.65782 0.463257 21.0382 0.463257C32.4185 0.463257 41.6131 9.6697 41.6131 21.0382ZM21.0382 1.71058C10.3231 1.71058 1.71058 10.3231 1.71058 21.0382C1.71058 31.7533 10.3825 40.3658 21.0382 40.3658C31.7533 40.3658 40.3657 31.6939 40.3657 21.0382C40.3657 10.3231 31.7533 1.71058 21.0382 1.71058Z" fill="url(#paint0_linear)"/>
<path d="M21.0382 1.71057C10.3231 1.71057 1.71063 10.323 1.71063 21.0382C1.71063 31.7533 10.3825 40.3657 21.0382 40.3657C31.7533 40.3657 40.3658 31.6939 40.3658 21.0382C40.3658 10.323 31.7533 1.71057 21.0382 1.71057ZM21.0382 39.1184C11.0477 39.1184 2.95796 31.0286 2.95796 21.0382C2.95796 11.0477 11.0477 2.9579 21.0382 2.9579C31.0287 2.9579 39.1185 11.0477 39.1185 21.0382C39.1185 31.0286 31.0287 39.1184 21.0382 39.1184Z" fill="url(#paint1_linear)"/>
<path opacity="0.4" d="M21.0382 41.6131C32.4067 41.6131 41.6131 32.4067 41.6131 21.0382C41.6131 9.66973 32.4067 0.463291 21.0382 0.463291C9.66973 0.463291 0.463292 9.66973 0.463292 21.0382C0.463292 32.4067 9.65785 41.6131 21.0382 41.6131ZM21.0382 0C32.6086 0 42.0764 9.46778 42.0764 21.0382C42.0764 32.6086 32.6086 42.0764 21.0382 42.0764C9.46778 42.0764 0 32.6086 0 21.0382C0 9.46778 9.46778 0 21.0382 0Z" fill="url(#paint2_linear)"/>
<path d="M1.44934 21.1094C1.44934 10.323 10.1925 1.44922 21.0383 1.44922C31.884 1.44922 40.6272 10.2518 40.6272 21.1094C40.6272 31.8958 31.884 40.6271 21.0383 40.6271C10.1925 40.6271 1.44934 31.8839 1.44934 21.1094ZM7.55529 7.56705C4.07466 11.0477 1.90075 15.8469 1.90075 21.1094C1.90075 26.3719 4.07466 31.1712 7.48401 34.5805C10.9646 38.0018 15.7639 40.1638 21.0264 40.1638C26.2889 40.1638 31.0881 38.0611 34.4975 34.5805C37.9781 31.1593 40.0807 26.3601 40.0807 21.1094C40.0807 15.8588 37.9068 11.0477 34.4975 7.56705C31.0881 4.08642 26.277 1.91251 21.0264 1.91251C15.7757 1.91251 10.9765 4.07454 7.55529 7.56705Z" fill="white"/>
<path opacity="0.4" d="M21.0382 39.1779C16.1796 39.1779 11.6417 37.2772 8.22048 33.856C4.79924 30.4347 2.89856 25.8968 2.89856 21.0382C2.89856 16.1796 4.79924 11.6417 8.22048 8.22047C11.6417 4.79924 16.1796 2.89856 21.0382 2.89856C25.8968 2.89856 30.4347 4.79924 33.856 8.22047C37.2772 11.6417 39.1779 16.1796 39.1779 21.0382C39.1779 25.8968 37.2772 30.4347 33.856 33.856C30.4347 37.2772 25.8968 39.1779 21.0382 39.1779ZM21.0382 38.6552C25.7068 38.6552 30.1734 36.8139 33.4639 33.5233C36.8139 30.1734 38.5958 25.7662 38.5958 21.0976C38.5958 16.4291 36.7545 11.9624 33.4639 8.67189C30.114 5.32193 25.7068 3.54004 21.0382 3.54004C16.3697 3.54004 11.9031 5.38133 8.61249 8.67189C5.26254 11.8912 3.42125 16.3578 3.42125 21.0263C3.42125 25.6949 5.26254 30.1615 8.5531 33.4521C11.9031 36.8139 16.3697 38.6552 21.0382 38.6552Z" fill="url(#paint3_linear)"/>
<path d="M37.004 29.5794C36.6714 29.3181 23.9843 19.2563 23.9843 19.2563L21.0382 2.36401C20.8363 2.43529 20.5749 2.62536 20.4443 2.8867L18.3416 19.3157L5.26255 29.3775C5.26255 29.3775 5.0012 29.7101 4.87053 29.9002C4.79926 30.0308 4.79926 30.2328 4.79926 30.4229L20.967 23.7823L37.1346 30.4229C37.2772 30.114 37.1346 29.7814 37.004 29.5794Z" fill="white"/>
<path d="M21.1689 21.5609L21.0382 24.5901L35.8992 30.5773C36.4219 30.8386 36.8139 30.708 37.2178 30.4466L21.3708 21.5015C21.2996 21.4302 21.1689 21.5015 21.1689 21.5609Z" fill="#565F64"/>
<path d="M21.1689 21.5609C21.1689 21.5609 22.0242 23.0696 23.0102 24.1268C24.3882 25.6355 26.2295 26.6928 26.2295 26.6928L35.8873 30.5654C36.41 30.8267 36.802 30.6961 37.2059 30.4347L21.359 21.4896C21.2996 21.4302 21.1689 21.5015 21.1689 21.5609Z" fill="url(#paint4_linear)"/>
<path d="M37.1346 29.8407C37.1346 29.7695 37.0634 29.7101 37.004 29.5794L23.4616 19.6483L21.6203 20.8362C21.6203 20.8362 21.751 20.9075 21.8222 20.8362C22.0242 20.765 22.4162 20.7056 22.8082 20.8362C23.1408 20.9669 37.1346 29.912 37.1346 29.8407C37.1346 29.912 37.1346 29.912 37.1346 29.8407Z" fill="#A4AAAE" fill-opacity="0.6"/>
<path d="M36.6831 29.2587L24.0674 19.2682L23.4734 19.6602L37.0158 29.6507C36.9445 29.52 36.8138 29.3893 36.6831 29.2587Z" fill="#333E46"/>
<path d="M21.359 20.575L21.2877 20.6462C21.2877 20.6462 21.2877 20.7769 21.4184 20.7175C21.4897 20.6462 23.3904 19.6603 24.0437 19.2682L21.7629 3.49256C21.6916 2.89859 21.4303 2.63725 20.9789 2.4353L21.2402 20.7056L21.359 20.575Z" fill="#565F64"/>
<path d="M20.2422 3.49246V4.34777L18.7929 18.8761C18.7929 19.0781 18.8642 19.2681 19.0543 19.3988L19.9096 20.0522L20.5036 4.01515L20.5748 2.76782C20.3729 2.89849 20.3135 3.15984 20.2422 3.49246ZM19.4582 20.3135L18.6741 19.6602L5.33371 29.318C5.33371 29.318 4.9417 29.5793 4.87042 29.8407L5.33371 29.5793L19.3394 20.7768C19.5888 20.6461 19.6601 20.5155 19.4582 20.3135Z" fill="#A4AAAE" fill-opacity="0.6"/>
<path d="M20.8363 21.5609C20.8363 21.4896 20.765 21.4302 20.7056 21.4896L4.79926 30.4941C5.19127 30.7555 5.58329 30.8268 6.11786 30.6248L20.9788 24.6377L20.8363 21.5609Z" fill="#565F64"/>
<path d="M21.2996 20.6462L21.3708 20.5749L21.2996 20.6462C21.2996 20.6462 21.2996 20.7175 21.3708 20.7175H21.4421C21.5134 20.6462 23.4141 19.6602 24.0674 19.2682L23.8061 17.3675L21.7629 3.49252C21.7629 3.23118 21.6916 3.02923 21.5609 2.89856C21.5609 2.89856 22.5469 16.1796 22.5469 17.6289C22.5469 19.5295 21.2996 20.6462 21.2996 20.6462Z" fill="url(#paint5_linear)"/>
<path d="M20.8363 21.5609C20.8363 21.4896 20.765 21.4302 20.7056 21.4896L4.79926 30.4941C5.19127 30.7555 5.58329 30.8268 6.11786 30.6248L20.9788 24.6377L20.8363 21.5609Z" fill="url(#paint6_linear)" fill-opacity="0.8"/>
<path opacity="0.8" d="M6.11782 30.5653L20.9788 24.5782L20.8481 21.6915C20.5868 22.4756 20.1235 23.3309 18.8762 23.9961C17.9615 24.5188 9.14704 28.8547 5.98715 30.3753C5.7852 30.506 5.52386 30.5772 5.39319 30.6366C5.65453 30.7673 5.8446 30.696 6.11782 30.5653Z" fill="url(#paint7_linear)"/>
<path d="M21.359 20.575L21.2877 20.6462C21.2877 20.6462 21.2877 20.7769 21.4184 20.7175C21.4897 20.6462 23.3904 19.6603 24.0437 19.2682L21.7629 3.49256C21.6916 2.89859 21.4303 2.63725 20.9789 2.4353L21.2402 20.7056L21.359 20.575Z" fill="url(#paint8_linear)"/>
<path d="M21.359 20.575L21.2877 20.6462C21.2877 20.6462 21.2877 20.7769 21.4184 20.7175C21.4897 20.6462 23.3904 19.6603 24.0437 19.2682L21.7629 3.49256C21.6916 2.89859 21.4303 2.63725 20.9789 2.4353L21.2402 20.7056L21.359 20.575Z" fill="url(#paint9_linear)"/>
<path d="M3.35 29.1874C2.88671 28.1302 0.261386 23.0102 3.14805 13.1504H2.0314C1.43743 15.1224 0.974142 16.3103 0.712798 18.0803C0.712798 18.0803 0.582126 18.7336 0.510851 19.4583C0.439575 20.1829 0.439575 20.5749 0.439575 21.0382C0.439575 24.9822 1.42556 27.2867 1.42556 27.2867C2.48281 30.5773 4.31222 33.5352 6.81875 35.7685C8.99265 37.6692 12.3426 39.1185 15.0986 39.6412C14.6591 39.5699 6.77123 36.2199 3.35 29.1874Z" fill="url(#paint10_linear)"/>
<path d="M21.2996 21.4302H20.7056C20.7769 21.4302 20.8363 21.4302 20.8363 21.5015L20.967 24.5307H21.0382L21.1689 21.5015C21.1689 21.4302 21.2283 21.3708 21.2996 21.4302Z" fill="url(#paint11_linear)"/>
<path d="M27.6074 1.52051C34.5093 4.14583 41.0191 11.3803 41.0191 20.5155C41.0191 31.5632 32.2166 40.5677 21.0382 40.5677V41.6249C32.2166 41.6249 41.6131 32.4185 41.6131 21.05C41.6131 11.9624 35.8279 4.3359 27.6074 1.52051Z" fill="url(#paint12_linear)"/>
<path d="M38.6551 13.281C34.0579 2.69657 23.6635 2.10261 23.0814 2.04321H23.0101C30.9692 3.49248 36.0298 8.68373 37.7998 14.1363V14.2076C38.5839 16.3102 38.9878 18.5435 39.0472 20.9788C39.1184 23.2834 38.5839 25.8374 37.5979 28.2133C37.5266 28.5459 37.4672 28.9379 37.3959 28.9379H38.4532C41.6131 23.0101 40.2351 17.023 38.6551 13.281Z" fill="url(#paint13_linear)"/>
<path d="M1.44934 21.1094C1.44934 10.323 10.1925 1.44922 21.0383 1.44922C31.884 1.44922 40.6272 10.2518 40.6272 21.1094C40.6272 31.8958 31.884 40.6271 21.0383 40.6271C10.1925 40.6271 1.44934 31.8839 1.44934 21.1094ZM7.55529 7.56705C4.07466 11.0477 1.90075 15.8469 1.90075 21.1094C1.90075 26.3719 4.07466 31.1712 7.48401 34.5805C10.9646 38.0018 15.7639 40.1638 21.0264 40.1638C26.2889 40.1638 31.0881 38.0611 34.4975 34.5805C37.9781 31.1593 40.0807 26.3601 40.0807 21.1094C40.0807 15.8588 37.9068 11.0477 34.4975 7.56705C31.0881 4.08642 26.277 1.91251 21.0264 1.91251C15.7757 1.91251 10.9765 4.07454 7.55529 7.56705Z" fill="#FBFBFB"/>
<path d="M5.19128 29.4488L18.603 19.7909C19.3276 20.1829 20.5037 20.7056 20.6462 20.7056C20.7769 20.7769 20.7769 20.6344 20.7769 20.6344L19.1376 19.2564C18.9356 19.1257 18.8762 18.9237 18.8762 18.7337L20.4562 2.88672C20.3849 2.95799 20.3849 3.08867 20.3255 3.14806C20.2542 3.27873 20.2542 3.35001 20.2542 3.48068L17.9496 19.3276L5.33384 29.2587C5.26256 29.3181 5.19128 29.3894 5.19128 29.4488Z" fill="#333F47"/>
<defs>
<linearGradient id="paint0_linear" x1="5.2572" y1="7.82433" x2="36.8125" y2="34.2515" gradientUnits="userSpaceOnUse">
<stop stop-color="white"/>
<stop offset="0.1" stop-color="#CDD0D0"/>
<stop offset="0.2" stop-color="#A5ACAF"/>
<stop offset="0.3" stop-color="#98A0A4"/>
<stop offset="0.4" stop-color="#828A8F"/>
<stop offset="0.5" stop-color="#667075"/>
<stop offset="0.6" stop-color="#535C63"/>
<stop offset="0.7" stop-color="#475158"/>
<stop offset="0.8" stop-color="#434D54"/>
<stop offset="1" stop-color="#475157"/>
</linearGradient>
<linearGradient id="paint1_linear" x1="6.22568" y1="8.58719" x2="35.8065" y2="33.4344" gradientUnits="userSpaceOnUse">
<stop stop-color="#0B1F2A"/>
<stop offset="0.2" stop-color="#333F47"/>
<stop offset="0.5" stop-color="#81898D"/>
<stop offset="0.7" stop-color="#B3B8B8"/>
<stop offset="0.8" stop-color="#DEE0DD"/>
<stop offset="1" stop-color="#FBFBFB"/>
</linearGradient>
<linearGradient id="paint2_linear" x1="28.2246" y1="40.8" x2="13.8289" y2="1.22857" gradientUnits="userSpaceOnUse">
<stop stop-color="#E1E3E1"/>
<stop offset="0.1" stop-color="#C1C5C4"/>
<stop offset="0.3" stop-color="#9BA1A2"/>
<stop offset="0.5" stop-color="#7D8487"/>
<stop offset="0.7" stop-color="#687074" stop-opacity="0"/>
<stop offset="0.8" stop-color="#5B6469" stop-opacity="0"/>
<stop offset="1" stop-color="#576065" stop-opacity="0"/>
</linearGradient>
<linearGradient id="paint3_linear" x1="11.9639" y1="5.32787" x2="30.1053" y2="36.7481" gradientUnits="userSpaceOnUse">
<stop stop-color="#E1E3E1"/>
<stop offset="0.1" stop-color="#C1C5C4"/>
<stop offset="0.3" stop-color="#9BA1A2"/>
<stop offset="0.5" stop-color="#7D8487"/>
<stop offset="0.7" stop-color="#687074" stop-opacity="0"/>
<stop offset="0.8" stop-color="#5B6469" stop-opacity="0"/>
<stop offset="1" stop-color="#576065" stop-opacity="0"/>
</linearGradient>
<linearGradient id="paint4_linear" x1="29.2441" y1="25.898" x2="28.1262" y2="27.7384" gradientUnits="userSpaceOnUse">
<stop stop-color="#27343C"/>
<stop offset="1" stop-color="#00111E" stop-opacity="0"/>
</linearGradient>
<linearGradient id="paint5_linear" x1="26.0172" y1="19.1394" x2="24.1769" y2="16.1816" gradientUnits="userSpaceOnUse">
<stop offset="0.1" stop-color="#02131F"/>
<stop offset="0.9" stop-color="#02131F" stop-opacity="0"/>
</linearGradient>
<linearGradient id="paint6_linear" x1="21.0233" y1="23.8879" x2="18.2623" y2="24.6772" gradientUnits="userSpaceOnUse">
<stop offset="0.2" stop-color="#02131F"/>
<stop offset="0.9" stop-color="#02131F" stop-opacity="0"/>
</linearGradient>
<linearGradient id="paint7_linear" x1="13.6669" y1="27.5486" x2="13.2725" y2="26.562" gradientUnits="userSpaceOnUse">
<stop stop-color="#02131F"/>
<stop offset="0.1" stop-color="#02131F"/>
<stop offset="1" stop-color="#02131F" stop-opacity="0"/>
</linearGradient>
<linearGradient id="paint8_linear" x1="23.4029" y1="11.3186" x2="21.1677" y2="11.5812" gradientUnits="userSpaceOnUse">
<stop offset="0.3" stop-color="#02131F"/>
<stop offset="0.8" stop-color="#02131F" stop-opacity="0"/>
</linearGradient>
<linearGradient id="paint9_linear" x1="23.4725" y1="11.2815" x2="21.9598" y2="11.4782" gradientUnits="userSpaceOnUse">
<stop offset="0.4" stop-color="#27343C"/>
<stop offset="1" stop-color="#3B474E" stop-opacity="0"/>
</linearGradient>
<linearGradient id="paint10_linear" x1="-0.237358" y1="21.5844" x2="18.1027" y2="32.1681" gradientUnits="userSpaceOnUse">
<stop stop-color="#25323B" stop-opacity="0"/>
<stop offset="0.1" stop-color="#27343C"/>
</linearGradient>
<linearGradient id="paint11_linear" x1="21.002" y1="24.5876" x2="21.002" y2="21.4326" gradientUnits="userSpaceOnUse">
<stop offset="0.3" stop-color="#A5ABAF"/>
<stop offset="1" stop-color="#A5ABAF" stop-opacity="0"/>
</linearGradient>
<linearGradient id="paint12_linear" x1="31.322" y1="1.51438" x2="31.322" y2="41.613" gradientUnits="userSpaceOnUse">
<stop stop-color="#6B7378"/>
<stop offset="0.2" stop-color="#333F47"/>
<stop offset="0.5" stop-color="#27343C"/>
<stop offset="0.8" stop-color="#333F47"/>
<stop offset="1" stop-color="#434D54"/>
</linearGradient>
<linearGradient id="paint13_linear" x1="37.6584" y1="5.32273" x2="28.7842" y2="18.338" gradientUnits="userSpaceOnUse">
<stop offset="0.7" stop-color="#49545B"/>
<stop offset="0.8" stop-color="white" stop-opacity="0"/>
</linearGradient>
</defs>
</svg>
