<svg width="194" height="142" viewBox="0 0 194 142" fill="none" xmlns="http://www.w3.org/2000/svg">
<path d="M0.396284 120.26L0.462515 119.227H6.55247L12.7738 135.073L18.9962 119.227H25.0188V120.26H23.7615C23.1003 120.26 22.438 120.904 22.438 121.483L22.7692 138.742C22.7692 139.645 23.6302 140.032 24.3576 140.032H25.3511V141.062H16.9453V140.032H18.335C19.2611 140.032 19.8572 139.258 19.8572 138.679L19.5261 121.74L12.3113 139.967H11.5838L4.43418 121.933L4.10413 138.679C4.10413 139.775 4.6991 140.032 5.56011 140.032H6.68494V141.062H0L0.0662317 140.032H1.05749C2.38101 140.032 2.71217 139.323 2.71217 138.679L3.04332 121.224C3.04332 120.323 2.11719 120.26 1.38865 120.26H0.396284Z" fill="white"/>
<path fill-rule="evenodd" clip-rule="evenodd" d="M38.7475 133.204H28.7918C28.7256 135.459 28.9916 140.169 32.7635 140.096C36.0728 140.032 36.9327 137.133 37.0652 135.845L38.6161 135.852C37.9262 139.323 36.6016 141.493 32.1012 141.493C27.4672 141.493 25.4549 137.782 25.4549 133.204C25.4549 128.626 27.8657 124.915 32.1012 124.915C36.6689 124.915 38.7475 128.626 38.7475 133.204ZM28.8577 131.765C28.8579 131.818 28.858 131.868 28.858 131.915H35.4105C35.4105 129.789 35.0131 126.311 32.2336 126.311C28.8419 126.311 28.8533 130.226 28.8577 131.765Z" fill="white"/>
<path d="M46.8619 140.226V141.065H39.1173V140.228H40.0434C40.6395 140.228 41.6981 140.034 41.6981 138.874V128.311C41.6981 128.263 41.6996 128.21 41.7012 128.154C41.7209 127.472 41.754 126.324 39.1835 126.444V125.8C40.3083 125.736 41.6318 125.542 43.0889 125.091C43.7501 124.898 44.015 125.477 44.0813 126.058C44.1475 126.637 44.6222 126.838 45.0074 126.313C45.3386 125.862 46.5307 124.962 47.9867 124.962C49.8401 124.962 50.8987 125.799 51.0311 127.601C51.1636 129.405 50.2364 129.533 49.5089 129.598C48.7815 129.664 47.9205 129.019 48.0529 128.052C48.1854 127.087 47.8531 126.829 47.3244 126.829C45.9346 126.829 44.5449 127.794 44.5449 130.435V138.872C44.5449 140.032 45.6035 140.226 46.1996 140.226H46.8619Z" fill="white"/>
<path d="M57.8485 124.852C59.342 124.852 60.5684 125.248 61.5442 125.941L62.4152 124.639H63.1426V130.049H62.2827C62.2827 127.924 60.6269 126.057 57.9137 126.057C54.7368 126.057 54.5381 131.724 54.5381 133.142C54.4718 135.395 54.7379 140.113 58.5097 140.033C61.4879 139.968 61.9516 137.005 62.084 135.717L63.636 135.724C62.945 139.193 61.9527 141.449 57.8485 141.43C53.2146 141.406 51.2022 137.719 51.2022 133.141C51.2022 128.563 53.613 124.852 57.8485 124.852Z" fill="white"/>
<path fill-rule="evenodd" clip-rule="evenodd" d="M92.7976 119.743V137.712C92.7976 137.761 92.7961 137.813 92.7945 137.869C92.775 138.551 92.7421 139.699 95.3133 139.582V140.227C93.9864 140.304 92.6745 140.541 91.4079 140.933C90.7456 141.129 90.3162 140.258 90.2499 139.679C90.1826 139.389 89.985 139.549 89.9519 139.679C89.5545 140.291 87.6349 141.449 86.1789 141.449C84.7229 141.449 79.8914 140.932 79.8914 132.883C79.8914 126.763 84.0606 125.024 86.3114 125.024C88.0985 125.024 89.0909 125.798 89.9519 126.57V121.032C89.9519 120.387 89.7532 119.808 87.8336 119.936V119.292C88.9584 119.227 90.2831 119.034 91.739 118.583C92.4002 118.39 92.7976 119.003 92.7976 119.743ZM86.3765 140.418C87.965 140.418 89.8846 139.323 89.9508 135.78V132.238C89.9508 130.242 89.6859 126.892 86.4427 126.505C83.1996 126.119 83.0672 130.564 83.0672 132.817C83.0672 132.954 83.0662 133.101 83.0652 133.258C83.0492 135.692 83.0185 140.356 86.3765 140.418Z" fill="white"/>
<path d="M131.451 130.369V131.853H122.715V130.369H131.451Z" fill="white"/>
<path d="M110.734 141.062V135.588H111.394C111.989 138.872 114.506 139.968 116.094 139.968C117.683 139.968 118.675 138.938 119.205 138.035C119.734 137.133 119.27 135.588 118.477 135.201C118.353 135.141 118.216 135.072 118.063 134.996C117.232 134.582 115.913 133.925 113.511 132.947C110.666 131.787 110.336 128.954 111.526 127.151C112.718 125.348 114.835 124.703 116.094 124.703C117.352 124.703 117.947 124.831 119.338 125.733L120.066 124.51H120.728V129.663H120C119.735 127.666 118.676 125.926 116.559 125.991C114.441 126.056 113.514 127.151 113.315 128.181C113.192 128.825 113.449 129.855 114.507 130.369C114.845 130.534 115.209 130.719 115.597 130.914C116.732 131.489 118.068 132.165 119.537 132.753C121.788 133.654 122.252 136.617 121.258 138.421C120.266 140.226 117.751 141.19 115.963 141.19C114.175 141.19 112.787 140.226 112.125 139.645L111.463 141.062H110.734Z" fill="white"/>
<path fill-rule="evenodd" clip-rule="evenodd" d="M134.431 121.868V137.777C134.431 138.679 134.364 140.16 131.715 140.16V141.062H139.856C142.305 141.062 147.933 140.869 148.064 134.556C148.064 132.432 147.006 129.92 143.828 129.276C145.417 128.887 147.006 126.119 147.006 124.251C147.006 122.383 146.277 119.226 141.644 119.226H131.716V120.063C132.71 120.063 134.431 120.259 134.431 121.868ZM140.651 140.032H137.276V130.176H141.049C143.234 130.176 145.152 131.659 145.152 134.878C145.152 138.1 143.166 140.032 140.651 140.032ZM140.586 129.146H137.276V120.259H140.586C143.035 120.259 144.026 121.995 144.026 124.251C144.026 127.02 143.166 129.146 140.586 129.146Z" fill="white"/>
<path d="M174.936 138.872V129.339C174.936 128.116 174.473 126.377 171.76 126.571C169.045 126.765 168.515 129.02 168.515 130.436V138.873C168.515 140.033 169.576 140.227 170.171 140.227H170.833V141.063H163.089V140.227H164.016C164.611 140.227 165.67 140.033 165.67 138.873V128.31C165.67 128.262 165.671 128.209 165.673 128.153C165.692 127.471 165.726 126.323 163.156 126.443V125.799C164.281 125.734 165.606 125.541 167.06 125.09C167.722 124.897 167.987 125.476 168.054 126.057C168.119 126.636 168.595 126.837 168.979 126.312C169.311 125.861 170.901 124.961 172.356 124.961C173.746 124.961 177.717 125.089 177.784 129.405V138.872C177.784 140.032 178.843 140.226 179.438 140.226H180.1V141.062H172.887V140.226H173.283C173.878 140.226 174.936 140.032 174.936 138.872Z" fill="white"/>
<path d="M182.748 125.282L181.556 129.663H182.217C183.873 126.185 185.065 126.185 186.124 126.185H190.425L180.829 141.063H192.346L193.405 136.748H192.875C191.618 139.71 190.691 140.161 189.498 140.161H184.337L194 125.282H182.748Z" fill="white"/>
<path fill-rule="evenodd" clip-rule="evenodd" d="M78.4608 133.204H68.5051C68.4389 135.459 68.7049 140.169 72.4768 140.096C75.7862 140.032 76.646 137.133 76.7785 135.845L78.3305 135.852C77.6395 139.323 76.316 141.493 71.8145 141.493C67.1816 141.493 65.1682 137.782 65.1682 133.204C65.1682 128.626 67.579 124.915 71.8145 124.915C76.3811 124.915 78.4608 128.626 78.4608 133.204ZM68.5722 131.765C68.5723 131.818 68.5725 131.868 68.5725 131.915H75.1249C75.1249 129.789 74.7287 126.311 71.948 126.311C68.5563 126.311 68.5677 130.226 68.5722 131.765Z" fill="white"/>
<path fill-rule="evenodd" clip-rule="evenodd" d="M108.643 133.204H98.6867C98.6227 135.459 98.8876 140.169 102.658 140.096C105.97 140.032 106.83 137.133 106.961 135.845L108.511 135.852C107.821 139.323 106.498 141.493 101.998 141.493C97.3643 141.493 95.3508 137.782 95.3508 133.204C95.3508 128.626 97.7617 124.915 101.998 124.915C106.565 124.915 108.643 128.626 108.643 133.204ZM98.7537 131.767C98.7539 131.819 98.754 131.868 98.754 131.915H105.306C105.306 129.789 104.91 126.311 102.131 126.311C98.7381 126.311 98.7493 130.228 98.7537 131.767Z" fill="white"/>
<path fill-rule="evenodd" clip-rule="evenodd" d="M162.786 133.204H152.832C152.764 135.459 153.03 140.169 156.802 140.096C160.112 140.032 160.974 137.133 161.105 135.845L162.655 135.852C161.965 139.323 160.642 141.493 156.14 141.493C151.506 141.493 149.495 137.782 149.495 133.204C149.495 128.626 151.906 124.915 156.14 124.915C160.708 124.915 162.786 128.626 162.786 133.204ZM152.897 131.767C152.897 131.819 152.897 131.868 152.897 131.915H159.452C159.452 129.789 159.053 126.311 156.274 126.311C152.881 126.311 152.892 130.228 152.897 131.767Z" fill="white"/>
<path d="M139.37 43.2849C139.37 66.6749 120.428 85.6166 97.0383 85.6166C73.6483 85.6166 54.7066 66.6749 54.7066 43.2849C54.7066 19.8949 73.6239 0.953125 97.0383 0.953125C120.453 0.953125 139.37 19.8949 139.37 43.2849ZM97.0383 3.51943C74.9926 3.51943 57.2729 21.2391 57.2729 43.2849C57.2729 65.3306 75.1148 83.0503 97.0383 83.0503C119.084 83.0503 136.804 65.2084 136.804 43.2849C136.804 21.2391 119.084 3.51943 97.0383 3.51943Z" fill="url(#paint0_linear)"/>
<path d="M97.0384 3.51953C74.9927 3.51953 57.273 21.2392 57.273 43.285C57.273 65.3307 75.1149 83.0504 97.0384 83.0504C119.084 83.0504 136.804 65.2085 136.804 43.285C136.804 21.2392 119.084 3.51953 97.0384 3.51953ZM97.0384 80.4841C76.4836 80.4841 59.8393 63.8398 59.8393 43.285C59.8393 22.7301 76.4836 6.08583 97.0384 6.08583C117.593 6.08583 134.238 22.7301 134.238 43.285C134.238 63.8398 117.593 80.4841 97.0384 80.4841Z" fill="url(#paint1_linear)"/>
<path opacity="0.4" d="M97.0384 85.6167C120.428 85.6167 139.37 66.6749 139.37 43.285C139.37 19.8949 120.428 0.953197 97.0384 0.953197C73.6484 0.953197 54.7067 19.8949 54.7067 43.285C54.7067 66.6749 73.624 85.6167 97.0384 85.6167ZM97.0384 0C120.844 0 140.323 19.4795 140.323 43.285C140.323 67.0905 120.844 86.5699 97.0384 86.5699C73.2329 86.5699 53.7535 67.0905 53.7535 43.285C53.7535 19.4795 73.2329 0 97.0384 0Z" fill="url(#paint2_linear)"/>
<path d="M56.7354 43.4303C56.7354 21.2379 74.724 2.98047 97.0386 2.98047C119.353 2.98047 137.342 21.0912 137.342 43.4303C137.342 65.6227 119.353 83.5868 97.0386 83.5868C74.724 83.5868 56.7354 65.5982 56.7354 43.4303ZM69.2981 15.5676C62.1368 22.7288 57.6642 32.6029 57.6642 43.4303C57.6642 54.2576 62.1369 64.1318 69.1514 71.1463C76.3126 78.1853 86.1868 82.6336 97.0141 82.6336C107.841 82.6336 117.716 78.3075 124.73 71.1463C131.891 64.1073 136.217 54.2332 136.217 43.4303C136.217 32.6274 131.745 22.7288 124.73 15.5676C117.716 8.40636 107.817 3.93367 97.0141 3.93367C86.2112 3.93367 76.3371 8.38192 69.2981 15.5676Z" fill="white"/>
<path opacity="0.4" d="M97.0385 80.6076C87.0421 80.6076 77.7057 76.697 70.6667 69.658C63.6277 62.619 59.7171 53.2825 59.7171 43.2862C59.7171 33.2898 63.6277 23.9534 70.6667 16.9144C77.7057 9.8754 87.0421 5.96484 97.0385 5.96484C107.035 5.96484 116.371 9.8754 123.41 16.9144C130.449 23.9534 134.36 33.2898 134.36 43.2862C134.36 53.2825 130.449 62.619 123.41 69.658C116.371 76.697 107.035 80.6076 97.0385 80.6076ZM97.0385 79.5321C106.644 79.5321 115.834 75.7438 122.604 68.9737C129.496 62.0813 133.162 53.0137 133.162 43.4084C133.162 33.8031 129.374 24.6133 122.604 17.8432C115.711 10.9508 106.644 7.28466 97.0385 7.28466C87.4332 7.28466 78.2434 11.073 71.4732 17.8432C64.5809 24.4667 60.7925 33.6565 60.7925 43.2618C60.7925 52.8671 64.5809 62.0569 71.351 68.827C78.2434 75.7438 87.4332 79.5321 97.0385 79.5321Z" fill="url(#paint3_linear)"/>
<path d="M129.887 60.8536C129.203 60.3159 103.1 39.6144 103.1 39.6144L97.0385 4.85938C96.623 5.00602 96.0853 5.39708 95.8164 5.93478L91.4904 39.7366L64.5809 60.4381C64.5809 60.4381 64.0432 61.1225 63.7743 61.5135C63.6277 61.7824 63.6277 62.1979 63.6277 62.5889L96.8918 48.9264L130.156 62.5889C130.449 61.9535 130.156 61.2691 129.887 60.8536Z" fill="white"/>
<path d="M97.3073 44.3594L97.0384 50.5918L127.614 62.91C128.689 63.4478 129.496 63.1789 130.327 62.6412L97.7228 44.2372C97.5761 44.0905 97.3073 44.2372 97.3073 44.3594Z" fill="#565F64"/>
<path d="M97.3073 44.3567C97.3073 44.3567 99.067 47.4607 101.096 49.6359C103.931 52.7399 107.719 54.9152 107.719 54.9152L127.59 62.8829C128.665 63.4206 129.472 63.1518 130.303 62.6141L97.6983 44.21C97.5761 44.0878 97.3073 44.2345 97.3073 44.3567Z" fill="url(#paint4_linear)"/>
<path d="M130.156 61.3922C130.156 61.2456 130.009 61.1234 129.887 60.8545L102.024 40.4219L98.236 42.866C98.236 42.866 98.5049 43.0126 98.6515 42.866C99.067 42.7193 99.8736 42.5971 100.68 42.866C101.364 43.1348 130.156 61.5389 130.156 61.3922C130.156 61.5389 130.156 61.5389 130.156 61.3922Z" fill="#A4AAAE" fill-opacity="0.6"/>
<path d="M129.227 60.1955L103.271 39.6406L102.049 40.4472L129.911 61.002C129.765 60.7332 129.496 60.4643 129.227 60.1955Z" fill="#333E46"/>
<path d="M97.6984 42.3292L97.5518 42.4758C97.5518 42.4758 97.5518 42.7447 97.8206 42.6225C97.9673 42.4758 101.878 40.4472 103.222 39.6407L98.5294 7.18306C98.3828 5.96101 97.8451 5.42331 96.9163 5.00781L97.454 42.598L97.6984 42.3292Z" fill="#565F64"/>
<path d="M95.4007 7.18621V8.94596L92.4189 38.8373C92.4189 39.2528 92.5655 39.6438 92.9566 39.9127L94.7163 41.2569L95.9384 8.26161L96.085 5.69531C95.6695 5.96416 95.5473 6.50186 95.4007 7.18621ZM93.7875 41.7946L92.1744 40.4504L64.7272 60.3209C64.7272 60.3209 63.9207 60.8586 63.774 61.3963L64.7272 60.8586L93.5431 42.7478C94.0564 42.479 94.203 42.2101 93.7875 41.7946Z" fill="#A4AAAE" fill-opacity="0.6"/>
<path d="M96.623 44.3607C96.623 44.2141 96.4763 44.0919 96.3541 44.2141L63.6277 62.7403C64.4342 63.278 65.2408 63.4247 66.3406 63.0092L96.9163 50.6909L96.623 44.3607Z" fill="#565F64"/>
<path d="M97.5761 42.4796L97.7228 42.333L97.5761 42.4796C97.5761 42.4796 97.5761 42.6263 97.7228 42.6263H97.8694C98.0161 42.4796 101.927 40.451 103.271 39.6445L102.733 35.7339L98.5293 7.18689C98.5293 6.64919 98.3827 6.23369 98.1138 5.96484C98.1138 5.96484 100.142 33.2898 100.142 36.2716C100.142 40.1822 97.5761 42.4796 97.5761 42.4796Z" fill="url(#paint5_linear)"/>
<path d="M96.623 44.3607C96.623 44.2141 96.4763 44.0919 96.3541 44.2141L63.6277 62.7403C64.4342 63.278 65.2408 63.4247 66.3406 63.0092L96.9163 50.6909L96.623 44.3607Z" fill="url(#paint6_linear)" fill-opacity="0.8"/>
<path opacity="0.8" d="M66.3406 62.8863L96.9162 50.5681L96.6474 44.6289C96.1097 46.242 95.1565 48.0018 92.5902 49.3705C90.7082 50.4459 72.573 59.3668 66.0717 62.4953C65.6562 62.7641 65.1185 62.9107 64.8497 63.0329C65.3874 63.3018 65.7784 63.1552 66.3406 62.8863Z" fill="url(#paint7_linear)"/>
<path d="M97.6984 42.3292L97.5518 42.4758C97.5518 42.4758 97.5518 42.7447 97.8206 42.6225C97.9673 42.4758 101.878 40.4472 103.222 39.6407L98.5294 7.18306C98.3828 5.96101 97.8451 5.42331 96.9163 5.00781L97.454 42.598L97.6984 42.3292Z" fill="url(#paint8_linear)"/>
<path d="M97.6984 42.3292L97.5518 42.4758C97.5518 42.4758 97.5518 42.7447 97.8206 42.6225C97.9673 42.4758 101.878 40.4472 103.222 39.6407L98.5294 7.18306C98.3828 5.96101 97.8451 5.42331 96.9163 5.00781L97.454 42.598L97.6984 42.3292Z" fill="url(#paint9_linear)"/>
<path d="M60.6459 60.05C59.6927 57.8747 54.2912 47.3407 60.2304 27.0547H57.9329C56.7109 31.1119 55.7577 33.556 55.22 37.1977C55.22 37.1977 54.9511 38.5419 54.8045 40.0328C54.6579 41.5237 54.6579 42.3303 54.6579 43.2835C54.6579 51.3979 56.6865 56.1394 56.6865 56.1394C58.8617 62.9096 62.6256 68.9954 67.7826 73.5903C72.2553 77.5008 79.1477 80.4826 84.818 81.558C83.9137 81.4114 67.6849 74.519 60.6459 60.05Z" fill="url(#paint10_linear)"/>
<path d="M97.5762 44.093H96.3542C96.5008 44.093 96.623 44.093 96.623 44.2396L96.8919 50.4721H97.0385L97.3074 44.2396C97.3074 44.093 97.4296 43.9708 97.5762 44.093Z" fill="url(#paint11_linear)"/>
<path d="M110.554 3.125C124.754 8.52645 138.148 23.411 138.148 42.2061C138.148 64.9362 120.037 83.4625 97.0384 83.4625V85.6377C120.037 85.6377 139.37 66.696 139.37 43.306C139.37 24.6086 127.467 8.91751 110.554 3.125Z" fill="url(#paint12_linear)"/>
<path d="M133.284 27.3243C123.826 5.54738 102.44 4.32533 101.242 4.20312H101.096C117.471 7.18492 127.883 17.8656 131.525 29.084V29.2307C133.138 33.5567 133.969 38.1516 134.091 43.162C134.237 47.9036 133.138 53.1584 131.109 58.0466C130.962 58.7309 130.84 59.5375 130.694 59.5375H132.869C139.37 47.3414 136.535 35.0232 133.284 27.3243Z" fill="url(#paint13_linear)"/>
<path d="M56.7354 43.4303C56.7354 21.2379 74.724 2.98047 97.0386 2.98047C119.353 2.98047 137.342 21.0912 137.342 43.4303C137.342 65.6227 119.353 83.5868 97.0386 83.5868C74.724 83.5868 56.7354 65.5982 56.7354 43.4303ZM69.2981 15.5676C62.1368 22.7288 57.6642 32.6029 57.6642 43.4303C57.6642 54.2576 62.1369 64.1318 69.1514 71.1463C76.3126 78.1853 86.1868 82.6336 97.0141 82.6336C107.841 82.6336 117.716 78.3075 124.73 71.1463C131.891 64.1073 136.217 54.2332 136.217 43.4303C136.217 32.6274 131.745 22.7288 124.73 15.5676C117.716 8.40636 107.817 3.93367 97.0141 3.93367C86.2112 3.93367 76.3371 8.38192 69.2981 15.5676Z" fill="#FBFBFB"/>
<path d="M64.4343 60.5875L92.0282 40.717C93.5191 41.5236 95.9387 42.599 96.232 42.599C96.5009 42.7456 96.5009 42.4523 96.5009 42.4523L93.128 39.6172C92.7125 39.3483 92.5903 38.9328 92.5903 38.5418L95.8409 5.9375C95.6943 6.08415 95.6943 6.353 95.5721 6.4752C95.4255 6.74405 95.4254 6.8907 95.4254 7.15955L90.6839 39.7638L64.7276 60.1965C64.581 60.3187 64.4343 60.4653 64.4343 60.5875Z" fill="#333F47"/>
<defs>
<linearGradient id="paint0_linear" x1="64.5699" y1="16.0981" x2="129.493" y2="70.4707" gradientUnits="userSpaceOnUse">
<stop stop-color="white"/>
<stop offset="0.1" stop-color="#CDD0D0"/>
<stop offset="0.2" stop-color="#A5ACAF"/>
<stop offset="0.3" stop-color="#98A0A4"/>
<stop offset="0.4" stop-color="#828A8F"/>
<stop offset="0.5" stop-color="#667075"/>
<stop offset="0.6" stop-color="#535C63"/>
<stop offset="0.7" stop-color="#475158"/>
<stop offset="0.8" stop-color="#434D54"/>
<stop offset="1" stop-color="#475157"/>
</linearGradient>
<linearGradient id="paint1_linear" x1="66.5625" y1="17.6678" x2="127.423" y2="68.7895" gradientUnits="userSpaceOnUse">
<stop stop-color="#0B1F2A"/>
<stop offset="0.2" stop-color="#333F47"/>
<stop offset="0.5" stop-color="#81898D"/>
<stop offset="0.7" stop-color="#B3B8B8"/>
<stop offset="0.8" stop-color="#DEE0DD"/>
<stop offset="1" stop-color="#FBFBFB"/>
</linearGradient>
<linearGradient id="paint2_linear" x1="111.824" y1="83.9438" x2="82.2056" y2="2.52772" gradientUnits="userSpaceOnUse">
<stop stop-color="#E1E3E1"/>
<stop offset="0.1" stop-color="#C1C5C4"/>
<stop offset="0.3" stop-color="#9BA1A2"/>
<stop offset="0.5" stop-color="#7D8487"/>
<stop offset="0.7" stop-color="#687074" stop-opacity="0"/>
<stop offset="0.8" stop-color="#5B6469" stop-opacity="0"/>
<stop offset="1" stop-color="#576065" stop-opacity="0"/>
</linearGradient>
<linearGradient id="paint3_linear" x1="78.3686" y1="10.963" x2="115.694" y2="75.6084" gradientUnits="userSpaceOnUse">
<stop stop-color="#E1E3E1"/>
<stop offset="0.1" stop-color="#C1C5C4"/>
<stop offset="0.3" stop-color="#9BA1A2"/>
<stop offset="0.5" stop-color="#7D8487"/>
<stop offset="0.7" stop-color="#687074" stop-opacity="0"/>
<stop offset="0.8" stop-color="#5B6469" stop-opacity="0"/>
<stop offset="1" stop-color="#576065" stop-opacity="0"/>
</linearGradient>
<linearGradient id="paint4_linear" x1="113.922" y1="53.2801" x2="111.622" y2="57.0666" gradientUnits="userSpaceOnUse">
<stop stop-color="#27343C"/>
<stop offset="1" stop-color="#00111E" stop-opacity="0"/>
</linearGradient>
<linearGradient id="paint5_linear" x1="107.282" y1="39.3795" x2="103.496" y2="33.294" gradientUnits="userSpaceOnUse">
<stop offset="0.1" stop-color="#02131F"/>
<stop offset="0.9" stop-color="#02131F" stop-opacity="0"/>
</linearGradient>
<linearGradient id="paint6_linear" x1="97.0077" y1="49.1483" x2="91.3271" y2="50.7723" gradientUnits="userSpaceOnUse">
<stop offset="0.2" stop-color="#02131F"/>
<stop offset="0.9" stop-color="#02131F" stop-opacity="0"/>
</linearGradient>
<linearGradient id="paint7_linear" x1="81.8724" y1="56.6794" x2="81.0609" y2="54.6497" gradientUnits="userSpaceOnUse">
<stop stop-color="#02131F"/>
<stop offset="0.1" stop-color="#02131F"/>
<stop offset="1" stop-color="#02131F" stop-opacity="0"/>
</linearGradient>
<linearGradient id="paint8_linear" x1="101.904" y1="23.2847" x2="97.3047" y2="23.8251" gradientUnits="userSpaceOnUse">
<stop offset="0.3" stop-color="#02131F"/>
<stop offset="0.8" stop-color="#02131F" stop-opacity="0"/>
</linearGradient>
<linearGradient id="paint9_linear" x1="102.047" y1="23.2083" x2="98.9344" y2="23.6131" gradientUnits="userSpaceOnUse">
<stop offset="0.4" stop-color="#27343C"/>
<stop offset="1" stop-color="#3B474E" stop-opacity="0"/>
</linearGradient>
<linearGradient id="paint10_linear" x1="53.2651" y1="44.4072" x2="90.9987" y2="66.1826" gradientUnits="userSpaceOnUse">
<stop stop-color="#25323B" stop-opacity="0"/>
<stop offset="0.1" stop-color="#27343C"/>
</linearGradient>
<linearGradient id="paint11_linear" x1="96.9639" y1="50.5891" x2="96.9639" y2="44.098" gradientUnits="userSpaceOnUse">
<stop offset="0.3" stop-color="#A5ABAF"/>
<stop offset="1" stop-color="#A5ABAF" stop-opacity="0"/>
</linearGradient>
<linearGradient id="paint12_linear" x1="118.197" y1="3.1124" x2="118.197" y2="85.6131" gradientUnits="userSpaceOnUse">
<stop stop-color="#6B7378"/>
<stop offset="0.2" stop-color="#333F47"/>
<stop offset="0.5" stop-color="#27343C"/>
<stop offset="0.8" stop-color="#333F47"/>
<stop offset="1" stop-color="#434D54"/>
</linearGradient>
<linearGradient id="paint13_linear" x1="131.234" y1="10.9505" x2="112.975" y2="37.7287" gradientUnits="userSpaceOnUse">
<stop offset="0.7" stop-color="#49545B"/>
<stop offset="0.8" stop-color="white" stop-opacity="0"/>
</linearGradient>
</defs>
</svg>
